STARTFONT 2.1
COMMENT
COMMENT Converted from OpenType font "NimbusSans-Regular.otf" by "otf2bdf 3.0".
COMMENT
FONT -FreeType-Nimbus Sans-Medium-R-Normal--94-680-100-100-P-489-ISO10646-1
SIZE 68 100 100
FONTBOUNDINGBOX 117 130 -20 -28
STARTPROPERTIES 19
FOUNDRY "FreeType"
FAMILY_NAME "Nimbus Sans"
WEIGHT_NAME "Medium"
SLANT "R"
SETWIDTH_NAME "Normal"
ADD_STYLE_NAME ""
PIXEL_SIZE 94
POINT_SIZE 680
RESOLUTION_X 100
RESOLUTION_Y 100
SPACING "P"
AVERAGE_WIDTH 489
CHARSET_REGISTRY "ISO10646"
CHARSET_ENCODING "1"
FONT_ASCENT 68
FONT_DESCENT 25
COPYRIGHT "(URW)++,Copyright 2014 by (URW)++ Design & Development"
_OTF_FONTFILE "NimbusSans-Regular.otf"
_OTF_PSNAME "NimbusSans-Regular"
ENDPROPERTIES
CHARS 854
STARTCHAR 0020
ENCODING 32
SWIDTH 275 0
DWIDTH 26 0
BBX 0 0 0 0
BITMAP
ENDCHAR
STARTCHAR 0021
ENCODING 33
SWIDTH 275 0
DWIDTH 26 0
BBX 8 69 12 0
BITMAP
FF
FF
FF
FF
FF
FF
FF
FF
FF
FF
FF
FF
FF
FF
FF
FF
FF
FF
FF
FF
FF
FF
FF
FF
FF
FF
FF
FF
FF
FF
FF
FF
FF
FE
FE
FE
FE
FE
FE
7E
7E
7E
7E
7E
7C
7C
7C
7C
7C
3C
3C
3C
3C
00
00
00
00
00
00
FF
FF
FF
FF
FF
FF
FF
FF
FF
FF
ENDCHAR
STARTCHAR 0022
ENCODING 34
SWIDTH 360 0
DWIDTH 34 0
BBX 24 23 5 44
BITMAP
FF81FF
FF81FF
FF81FF
FF81FF
FF81FF
FF81FF
FF81FF
FF81FF
FF81FF
FF81FF
FF81FF
FF01FF
FF01FE
FF00FE
7F00FE
7F00FE
7E00FE
7E00FC
7E007C
3E007C
3E007C
3C007C
3C0078
ENDCHAR
STARTCHAR 0023
ENCODING 35
SWIDTH 561 0
DWIDTH 53 0
BBX 50 68 1 -2
BITMAP
00001FC003F800
00003FC007F800
00003F8007F000
00003F8007F000
00003F8007F000
00003F8007F000
00003F800FF000
00007F800FF000
00007F000FE000
00007F000FE000
00007F000FE000
00007F000FE000
0000FF001FE000
0000FE001FC000
0000FE001FC000
0000FE001FC000
0000FE001FC000
0000FE003FC000
0001FE003F8000
0FFFFFFFFFFFC0
0FFFFFFFFFFFC0
0FFFFFFFFFFFC0
0FFFFFFFFFFFC0
0FFFFFFFFFFFC0
0FFFFFFFFFFFC0
0003F8007F0000
0003F8007F0000
0003F8007F0000
0007F800FF0000
0007F800FE0000
0007F000FE0000
0007F000FE0000
0007F000FE0000
0007F000FE0000
000FF001FE0000
000FE001FC0000
000FE001FC0000
000FE001FC0000
000FE001FC0000
001FE003FC0000
001FC003F80000
001FC003F80000
FFFFFFFFFFFE00
FFFFFFFFFFFE00
FFFFFFFFFFFE00
FFFFFFFFFFFE00
FFFFFFFFFFFE00
FFFFFFFFFFFE00
003F8007F00000
003F8007F00000
007F800FF00000
007F000FE00000
007F000FE00000
007F000FE00000
007F000FE00000
007F001FE00000
00FF001FE00000
00FE001FC00000
00FE001FC00000
00FE001FC00000
00FE001FC00000
01FE003FC00000
01FC003F800000
01FC003F800000
01FC003F800000
01FC003F800000
01FC003F800000
03FC007F800000
ENDCHAR
STARTCHAR 0024
ENCODING 36
SWIDTH 561 0
DWIDTH 53 0
BBX 46 85 4 -12
BITMAP
00000F800000
00000F800000
00000F800000
00000F800000
00000F800000
00001FC00000
0003FFFE0000
000FFFFFC000
003FFFFFF000
00FFFFFFF800
01FFFFFFFC00
03FFFFFFFE00
07FF8F8FFF00
0FFE0F83FF80
1FF80F80FF80
1FF00F807FC0
3FE00F803FC0
3FC00F803FE0
3FC00F801FE0
3F800F801FE0
7F800F800FE0
7F800F800FE0
7F800F800FF0
7F800F800FF0
7F800F800000
7F800F800000
7F800F800000
7F800F800000
7FC00F800000
3FE00F800000
3FE00F800000
3FF80F800000
1FFC0F800000
1FFF0F800000
0FFFEF800000
07FFFF800000
03FFFFF00000
01FFFFFF0000
00FFFFFFC000
003FFFFFF800
000FFFFFFC00
0001FFFFFF00
00003FFFFF80
00000FFFFFC0
00000F9FFFE0
00000F83FFE0
00000F80FFF0
00000F803FF0
00000F801FF8
00000F800FF8
00000F8007F8
00000F8007F8
00000F8007FC
FE000F8003FC
FE000F8003FC
FE000F8003FC
FF000F8003FC
FF000F8003F8
FF000F8003F8
FF000F8007F8
FF000F8007F8
7F800F8007F8
7F800F800FF0
7FC00F801FF0
3FE00F801FE0
3FF00F803FE0
1FF80F80FFC0
1FFE0F83FFC0
0FFFEFBFFF80
07FFFFFFFF00
03FFFFFFFE00
01FFFFFFF800
007FFFFFF000
001FFFFF8000
0001FFFC0000
00000F800000
00000F800000
00000F800000
00000F800000
00000F800000
00000F800000
00000F800000
00000F800000
00000F800000
00000F800000
ENDCHAR
STARTCHAR 0025
ENCODING 37
SWIDTH 889 0
DWIDTH 84 0
BBX 78 69 3 -2
BITMAP
00000000000003F80000
00000000000003F00000
00018000000007E00000
003FFC00000007E00000
00FFFF0000000FC00000
03FFFF8000000FC00000
07FFFFE000001F800000
0FFFFFF000001F800000
1FFFFFF800003F000000
1FF81FF800007F000000
3FE007FC00007E000000
7F8003FC0000FE000000
7F0001FE0000FC000000
7F0000FE0001F8000000
FE00007E0001F8000000
FE00007F0003F0000000
FC00007F0003F0000000
FC00007F0007E0000000
FC00007F0007E0000000
FC00007F000FC0000000
FE00007F001FC0000000
FE00007F001F80000000
FE00007E003F80000000
7F0000FE003F00000000
7F0001FE007F00000000
7F8003FC007E00000000
3FE007FC00FC00000000
3FF81FF800FC00000000
1FFFFFF001F800000000
0FFFFFF001F800000000
07FFFFE003F000000000
03FFFF8003F000000000
00FFFF0007E000000000
003FFC000FE000000000
000180000FC000000000
000000001FC000000000
000000001F8000000000
000000003F00003FC000
000000003F0001FFF800
000000007E0007FFFE00
000000007E000FFFFF00
00000000FC001FFFFF80
00000000FC003FFFFFC0
00000001F8007FFFFFE0
00000003F800FFC03FF0
00000003F000FF000FF0
00000007F001FE0007F8
00000007E001FC0003F8
0000000FE001FC0003FC
0000000FC003F80001FC
0000001F8003F80001FC
0000001F8003F80001FC
0000003F0003F00000FC
0000003F0003F00000FC
0000007E0003F80000FC
0000007E0003F80001FC
000000FC0003F80001FC
000001FC0001FC0003FC
000001F80001FC0003F8
000003F80001FE0007F8
000003F00000FF000FF0
000007E00000FFC03FF0
000007E000007FFFFFE0
00000FC000003FFFFFC0
00000FC000001FFFFF80
00001F8000000FFFFF00
00001F80000007FFFE00
00003F00000001FFF800
00007F000000003FC000
ENDCHAR
STARTCHAR 0026
ENCODING 38
SWIDTH 667 0
DWIDTH 63 0
BBX 55 69 5 -2
BITMAP
00000FF0000000
00007FFE000000
0001FFFF800000
0007FFFFC00000
000FFFFFE00000
001FFFFFF00000
003FFFFFF80000
003FE01FF80000
007FC007FC0000
007F8003FC0000
00FF0001FE0000
00FF0001FE0000
00FF0001FE0000
00FE0000FE0000
00FE0000FE0000
00FE0000FE0000
00FE0001FE0000
00FF0001FE0000
00FF0001FE0000
00FF8003FC0000
007F8007FC0000
007FC00FFC0000
003FE01FF80000
003FF03FF00000
001FF07FE00000
000FF9FFC00000
000FFFFF800000
0007FFFF000000
0003FFFC000000
0001FFF8000000
0001FFE0000000
0007FFC0000000
001FFFE0000000
003FFFF0000000
00FFFFF8000000
01FFEFFC003F80
03FF87FC003F80
07FF07FE007F80
0FFC03FF007F80
1FF801FF807F80
1FF000FFC07F80
3FE0007FE07F00
7FC0007FE0FF00
7FC0003FF0FF00
7F80001FF8FF00
FF80000FFDFE00
FF000007FFFE00
FF000007FFFC00
FF000003FFFC00
FF000001FFF800
FF000000FFF800
FF0000007FF000
FF0000007FF000
FF8000003FF000
FF8000003FF800
7FC000007FFC00
7FC00000FFFE00
7FE00001FFFE00
3FF00007FFFF00
3FF8000FFFFF80
1FFE003FFCFFC0
1FFFE7FFF87FE0
0FFFFFFFF07FF0
07FFFFFFE03FF0
03FFFFFF801FF8
01FFFFFF000FFC
007FFFFC000FFE
001FFFF0000000
0003FF00000000
ENDCHAR
STARTCHAR 0027
ENCODING 39
SWIDTH 190 0
DWIDTH 18 0
BBX 8 23 5 44
BITMAP
FF
FF
FF
FF
FF
FF
FF
FF
FF
FF
FF
FF
FF
FF
FF
7E
7E
7E
7E
7E
3C
3C
3C
ENDCHAR
STARTCHAR 0028
ENCODING 40
SWIDTH 328 0
DWIDTH 31 0
BBX 20 89 7 -20
BITMAP
0001F0
0003F0
0007E0
0007C0
000FC0
000F80
001F80
003F00
003F00
007E00
007E00
00FE00
00FC00
01FC00
01F800
03F800
03F800
03F000
07F000
07F000
0FE000
0FE000
0FE000
1FC000
1FC000
1FC000
3FC000
3F8000
3F8000
3F8000
3F8000
7F8000
7F0000
7F0000
7F0000
7F0000
FF0000
FF0000
FF0000
FF0000
FF0000
FF0000
FF0000
FF0000
FF0000
FF0000
FF0000
FF0000
FF0000
FF0000
FF0000
FF0000
FF0000
7F0000
7F0000
7F0000
7F8000
7F8000
3F8000
3F8000
3F8000
3F8000
3FC000
1FC000
1FC000
1FC000
0FE000
0FE000
0FE000
07F000
07F000
03F000
03F800
03F800
01F800
01FC00
00FC00
00FE00
007E00
007F00
003F00
003F00
001F80
000F80
000FC0
0007E0
0003E0
0003F0
0001F0
ENDCHAR
STARTCHAR 0029
ENCODING 41
SWIDTH 328 0
DWIDTH 31 0
BBX 20 89 4 -20
BITMAP
F80000
FC0000
7E0000
3E0000
3F0000
1F8000
1F8000
0FC000
0FC000
07E000
07E000
03F000
03F000
03F800
01F800
01FC00
01FC00
00FE00
00FE00
007E00
007F00
007F00
007F00
003F80
003F80
003F80
003FC0
001FC0
001FC0
001FC0
001FE0
001FE0
000FE0
000FE0
000FE0
000FF0
000FF0
000FF0
000FF0
000FF0
000FF0
000FF0
0007F0
0007F0
0007F0
0007F0
0007F0
000FF0
000FF0
000FF0
000FF0
000FF0
000FF0
000FF0
000FE0
000FE0
000FE0
001FE0
001FE0
001FC0
001FC0
001FC0
003FC0
003F80
003F80
003F80
007F00
007F00
007F00
007E00
00FE00
00FE00
00FC00
01FC00
01F800
03F800
03F000
03F000
07E000
07E000
0FC000
0FC000
1F8000
1F8000
3F0000
3E0000
7E0000
FC0000
F80000
ENDCHAR
STARTCHAR 002A
ENCODING 42
SWIDTH 391 0
DWIDTH 37 0
BBX 28 27 4 42
BITMAP
001F8000
001F8000
001F8000
001F8000
001F8000
001F8000
001F8000
601F8060
7C1F83E0
7F8F8FE0
FFEFFFF0
FFFFFFF0
FFFFFFF0
1FFFFF80
01FFF800
003FC000
007FE000
00FFF000
00FFF800
01F9F800
03F9FC00
07F0FE00
0FE07F00
0FE07F80
0FC03F00
03801C00
01801800
ENDCHAR
STARTCHAR 002B
ENCODING 43
SWIDTH 582 0
DWIDTH 55 0
BBX 45 46 5 -1
BITMAP
00001FC00000
00001FC00000
00001FC00000
00001FC00000
00001FC00000
00001FC00000
00001FC00000
00001FC00000
00001FC00000
00001FC00000
00001FC00000
00001FC00000
00001FC00000
00001FC00000
00001FC00000
00001FC00000
00001FC00000
00001FC00000
00001FC00000
00001FC00000
FFFFFFFFFFF8
FFFFFFFFFFF8
FFFFFFFFFFF8
FFFFFFFFFFF8
FFFFFFFFFFF8
FFFFFFFFFFF8
FFFFFFFFFFF8
00001FC00000
00001FC00000
00001FC00000
00001FC00000
00001FC00000
00001FC00000
00001FC00000
00001FC00000
00001FC00000
00001FC00000
00001FC00000
00001FC00000
00001FC00000
00001FC00000
00001FC00000
00001FC00000
00001FC00000
00001FC00000
00001FC00000
ENDCHAR
STARTCHAR 002C
ENCODING 44
SWIDTH 275 0
DWIDTH 26 0
BBX 10 24 8 -14
BITMAP
FFC0
FFC0
FFC0
FFC0
FFC0
FFC0
FFC0
FFC0
FFC0
FFC0
03C0
03C0
03C0
03C0
03C0
03C0
03C0
0780
0780
0F00
FF00
FE00
FC00
E000
ENDCHAR
STARTCHAR 002D
ENCODING 45
SWIDTH 328 0
DWIDTH 31 0
BBX 23 7 4 23
BITMAP
FFFFFE
FFFFFE
FFFFFE
FFFFFE
FFFFFE
FFFFFE
FFFFFE
ENDCHAR
STARTCHAR 002E
ENCODING 46
SWIDTH 275 0
DWIDTH 26 0
BBX 10 10 8 0
BITMAP
FFC0
FFC0
FFC0
FFC0
FFC0
FFC0
FFC0
FFC0
FFC0
FFC0
ENDCHAR
STARTCHAR 002F
ENCODING 47
SWIDTH 275 0
DWIDTH 26 0
BBX 28 71 -1 -2
BITMAP
000003F0
000003E0
000003E0
000003E0
000007C0
000007C0
000007C0
00000F80
00000F80
00000F80
00001F80
00001F00
00001F00
00003F00
00003E00
00003E00
00007E00
00007C00
00007C00
0000FC00
0000F800
0000F800
0000F800
0001F000
0001F000
0001F000
0003E000
0003E000
0003E000
0007E000
0007C000
0007C000
000FC000
000F8000
000F8000
001F8000
001F0000
001F0000
003F0000
003E0000
003E0000
003E0000
007C0000
007C0000
007C0000
00F80000
00F80000
00F80000
01F80000
01F00000
01F00000
03F00000
03E00000
03E00000
07E00000
07C00000
07C00000
0FC00000
0F800000
0F800000
0F800000
1F000000
1F000000
1F000000
3E000000
3E000000
3E000000
7E000000
7C000000
7C000000
FC000000
ENDCHAR
STARTCHAR 0030
ENCODING 48
SWIDTH 561 0
DWIDTH 53 0
BBX 44 70 4 -2
BITMAP
00003FE00000
0003FFFC0000
000FFFFF0000
001FFFFF8000
007FFFFFE000
00FFFFFFF000
01FFFFFFF800
01FFF9FFF800
03FF801FFC00
07FF000FFE00
07FC0003FE00
0FFC0003FF00
0FF80001FF00
1FF00000FF80
1FF00000FF80
1FE000007F80
3FE000007FC0
3FE000007FC0
3FC000003FC0
3FC000003FC0
7FC000003FE0
7FC000003FE0
7F8000003FE0
7F8000001FE0
7F8000001FE0
7F8000001FE0
FF8000001FF0
FF8000001FF0
FF8000001FF0
FF8000001FF0
FF8000001FF0
FF8000001FF0
FF8000001FF0
FF8000001FF0
FF8000001FF0
FF8000001FF0
FF8000001FF0
FF8000001FF0
FF8000001FF0
FF8000001FF0
FF8000001FF0
FF8000001FF0
FF8000001FF0
FF8000001FF0
7F8000001FE0
7F8000001FE0
7F8000001FE0
7F8000001FE0
7FC000003FE0
7FC000003FE0
3FC000003FC0
3FC000003FC0
3FE000003FC0
3FE000007FC0
1FE000007F80
1FF00000FF80
1FF00000FF80
0FF80001FF00
0FF80001FF00
07FC0003FE00
07FE0007FE00
03FF000FFC00
01FFC03FF800
01FFFFFFF800
00FFFFFFF000
007FFFFFE000
003FFFFF8000
000FFFFF0000
0003FFFC0000
00007FE00000
ENDCHAR
STARTCHAR 0031
ENCODING 49
SWIDTH 561 0
DWIDTH 53 0
BBX 23 68 10 0
BITMAP
00007E
00007E
00007E
0000FE
0000FE
0001FE
0001FE
0003FE
0003FE
0007FE
001FFE
007FFE
07FFFE
FFFFFE
FFFFFE
FFFFFE
FFFFFE
FFFFFE
FFFFFE
0003FE
0003FE
0003FE
0003FE
0003FE
0003FE
0003FE
0003FE
0003FE
0003FE
0003FE
0003FE
0003FE
0003FE
0003FE
0003FE
0003FE
0003FE
0003FE
0003FE
0003FE
0003FE
0003FE
0003FE
0003FE
0003FE
0003FE
0003FE
0003FE
0003FE
0003FE
0003FE
0003FE
0003FE
0003FE
0003FE
0003FE
0003FE
0003FE
0003FE
0003FE
0003FE
0003FE
0003FE
0003FE
0003FE
0003FE
0003FE
0003FE
ENDCHAR
STARTCHAR 0032
ENCODING 50
SWIDTH 561 0
DWIDTH 53 0
BBX 45 68 3 0
BITMAP
00003FF80000
0001FFFF8000
000FFFFFE000
001FFFFFF800
007FFFFFFC00
00FFFFFFFE00
01FFFFFFFF00
03FFFC3FFF80
03FFC007FFC0
07FF0001FFC0
0FFE0000FFE0
0FFC00007FF0
0FF800003FF0
1FF000001FF0
1FF000000FF8
1FE000000FF8
3FE000000FF8
3FE0000007F8
3FE0000007F8
3FC0000007F8
3FC0000007F8
3FC0000007F8
3FC0000007F8
3FC000000FF8
000000000FF8
000000000FF8
000000001FF0
000000001FF0
000000003FE0
000000007FE0
00000000FFC0
00000001FFC0
00000003FF80
0000000FFF00
0000003FFE00
000000FFFC00
000001FFF800
000007FFF000
00001FFFC000
00003FFF8000
0000FFFE0000
0001FFF80000
0007FFE00000
000FFFC00000
003FFF000000
007FFC000000
00FFF0000000
01FFE0000000
03FF80000000
03FF00000000
07FE00000000
0FFC00000000
0FF800000000
1FF000000000
1FE000000000
3FE000000000
3FC000000000
3FC000000000
7FC000000000
7FC000000000
7FFFFFFFFFF8
7FFFFFFFFFF8
7FFFFFFFFFF8
7FFFFFFFFFF8
7FFFFFFFFFF8
FFFFFFFFFFF8
FFFFFFFFFFF8
FFFFFFFFFFF8
ENDCHAR
STARTCHAR 0033
ENCODING 51
SWIDTH 561 0
DWIDTH 53 0
BBX 45 70 3 -2
BITMAP
00007FF00000
0007FFFF0000
001FFFFFC000
007FFFFFF000
00FFFFFFF800
01FFFFFFFC00
03FFFFFFFE00
07FFF87FFF00
07FF000FFF00
0FFE0003FF80
0FF80001FF80
1FF00000FFC0
1FF000007FC0
1FE000007FC0
3FE000003FC0
3FC000003FE0
3FC000003FE0
3FC000003FE0
3FC000003FE0
3FC000003FE0
3FC000003FE0
7FC000003FE0
000000003FC0
000000003FC0
000000007FC0
000000007F80
00000000FF80
00000003FF00
0000000FFF00
000007FFFE00
00003FFFF800
00003FFFF000
00003FFFC000
00003FFFE000
00003FFFF800
00003FFFFE00
00003FFFFF00
00000007FF80
00000001FFC0
00000000FFE0
000000003FE0
000000003FF0
000000001FF0
000000001FF0
000000000FF0
000000000FF8
000000000FF8
000000000FF8
FF0000000FF8
FF0000000FF8
FF8000000FF8
FF8000000FF8
7F8000000FF8
7F8000000FF0
7F8000001FF0
7FC000001FF0
7FC000001FF0
3FE000003FE0
3FF000007FE0
1FF80000FFC0
1FFC0001FFC0
0FFF0007FF80
0FFFF8FFFF00
07FFFFFFFE00
03FFFFFFFC00
01FFFFFFF800
007FFFFFF000
003FFFFFC000
0007FFFE0000
0000FFF00000
ENDCHAR
STARTCHAR 0034
ENCODING 52
SWIDTH 561 0
DWIDTH 53 0
BBX 46 68 3 0
BITMAP
00000007F000
00000007F000
0000000FF000
0000001FF000
0000001FF000
0000003FF000
0000007FF000
0000007FF000
000000FFF000
000001FFF000
000003FFF000
000003FFF000
000007FFF000
00000FFFF000
00000FEFF000
00001FEFF000
00003FCFF000
00007F8FF000
00007F8FF000
0000FF0FF000
0001FE0FF000
0001FE0FF000
0003FC0FF000
0007F80FF000
0007F00FF000
000FF00FF000
001FE00FF000
003FC00FF000
003FC00FF000
007F800FF000
00FF000FF000
00FF000FF000
01FE000FF000
03FC000FF000
07FC000FF000
07F8000FF000
0FF0000FF000
1FE0000FF000
1FE0000FF000
3FC0000FF000
7F80000FF000
FF80000FF000
FF00000FF000
FE00000FF000
FFFFFFFFFFFC
FFFFFFFFFFFC
FFFFFFFFFFFC
FFFFFFFFFFFC
FFFFFFFFFFFC
FFFFFFFFFFFC
FFFFFFFFFFFC
0000000FF000
0000000FF000
0000000FF000
0000000FF000
0000000FF000
0000000FF000
0000000FF000
0000000FF000
0000000FF000
0000000FF000
0000000FF000
0000000FF000
0000000FF000
0000000FF000
0000000FF000
0000000FF000
0000000FF000
ENDCHAR
STARTCHAR 0035
ENCODING 53
SWIDTH 561 0
DWIDTH 53 0
BBX 45 69 3 -2
BITMAP
01FFFFFFFFC0
01FFFFFFFFC0
01FFFFFFFFC0
01FFFFFFFFC0
01FFFFFFFFC0
01FFFFFFFFC0
03FFFFFFFFC0
03FFFFFFFFC0
03FC00000000
03FC00000000
03FC00000000
03FC00000000
03F800000000
03F800000000
07F800000000
07F800000000
07F800000000
07F800000000
07F800000000
07F000000000
07F000000000
0FF000000000
0FF000000000
0FF03FFC0000
0FF1FFFF8000
0FF7FFFFE000
0FEFFFFFF800
0FFFFFFFFC00
1FFFFFFFFE00
1FFFFFFFFF00
1FFFC03FFF80
1FFE0007FFC0
1FFC0001FFC0
1FF80000FFE0
1FF000007FE0
3FE000003FF0
000000001FF0
000000001FF0
000000000FF8
000000000FF8
000000000FF8
000000000FF8
0000000007F8
0000000007F8
0000000007F8
0000000007F8
0000000007F8
0000000007F8
0000000007F8
0000000007F8
FF80000007F8
7F8000000FF8
7F8000000FF0
7FC000000FF0
7FC000001FF0
3FE000001FE0
3FE000003FE0
3FF000007FC0
1FF80000FFC0
1FFC0001FF80
0FFF0007FF80
07FFF0FFFF00
03FFFFFFFE00
01FFFFFFFC00
00FFFFFFF800
007FFFFFE000
001FFFFF8000
0007FFFE0000
00007FF00000
ENDCHAR
STARTCHAR 0036
ENCODING 54
SWIDTH 561 0
DWIDTH 53 0
BBX 44 70 4 -2
BITMAP
00000FF80000
0000FFFF0000
0003FFFFC000
000FFFFFE000
001FFFFFF800
003FFFFFFC00
007FFFFFFE00
00FFFC7FFE00
01FFC00FFF00
03FF8003FF00
03FE0001FF80
07FC0000FF80
07FC00007FC0
0FF800007FC0
0FF000003FC0
1FF000003FE0
1FE000003FE0
1FE000001FE0
3FE000000000
3FC000000000
3FC000000000
7FC000000000
7FC000000000
7F8000000000
7F8000000000
7F8000000000
7F801FF80000
7F80FFFF0000
FF83FFFFC000
FF87FFFFF000
FF9FFFFFF800
FFBFFFFFFC00
FFFFFFFFFE00
FFFFF8FFFF00
FFFF8007FF80
FFFE0003FF80
FFFC0000FFC0
FFF800007FC0
FFF000007FE0
FFE000003FE0
FFE000003FF0
FFC000001FF0
FFC000001FF0
FFC000001FF0
FF8000000FF0
FF8000000FF0
7F8000000FF0
7F8000000FF0
7F8000000FF0
7F8000000FF0
7F8000000FF0
7FC000000FF0
3FC000001FF0
3FC000001FF0
3FE000001FE0
1FE000003FE0
1FF000003FE0
1FF000007FC0
0FF80000FFC0
0FFC0001FF80
07FF0003FF80
03FF800FFF00
03FFF8FFFE00
01FFFFFFFC00
00FFFFFFF800
007FFFFFF000
003FFFFFE000
000FFFFF8000
0003FFFE0000
00007FE00000
ENDCHAR
STARTCHAR 0037
ENCODING 55
SWIDTH 561 0
DWIDTH 53 0
BBX 45 67 4 0
BITMAP
FFFFFFFFFFF8
FFFFFFFFFFF8
FFFFFFFFFFF8
FFFFFFFFFFF8
FFFFFFFFFFF8
FFFFFFFFFFF8
FFFFFFFFFFF8
FFFFFFFFFFF8
000000000FF0
000000000FE0
000000001FE0
000000003FC0
000000003F80
000000007F00
00000000FF00
00000000FE00
00000001FC00
00000003FC00
00000003F800
00000007F000
0000000FF000
0000000FE000
0000001FE000
0000001FC000
0000003F8000
0000007F8000
0000007F0000
000000FF0000
000000FE0000
000001FE0000
000003FC0000
000003FC0000
000007F80000
000007F80000
00000FF00000
00000FF00000
00001FE00000
00001FE00000
00003FC00000
00003FC00000
00003FC00000
00007F800000
00007F800000
0000FF000000
0000FF000000
0001FF000000
0001FE000000
0001FE000000
0003FE000000
0003FC000000
0003FC000000
0007FC000000
0007F8000000
0007F8000000
000FF8000000
000FF0000000
000FF0000000
001FF0000000
001FF0000000
001FE0000000
001FE0000000
003FE0000000
003FE0000000
003FE0000000
003FC0000000
007FC0000000
007FC0000000
ENDCHAR
STARTCHAR 0038
ENCODING 56
SWIDTH 561 0
DWIDTH 53 0
BBX 44 70 4 -2
BITMAP
00007FE00000
0007FFFE0000
001FFFFF8000
003FFFFFE000
00FFFFFFF000
01FFFFFFF800
03FFFFFFFC00
07FFF1FFFE00
07FF000FFE00
0FFC0007FF00
0FF80001FF80
1FF00001FF80
1FF00000FF80
3FE000007FC0
3FE000007FC0
3FE000007FC0
3FC000007FC0
3FC000003FC0
3FC000003FC0
3FC000003FC0
3FE000007FC0
3FE000007FC0
3FE000007FC0
1FF00000FF80
1FF00000FF80
0FF80001FF00
0FFC0003FF00
07FF0007FE00
03FFC03FFC00
01FFFFFFF800
00FFFFFFF000
003FFFFFC000
003FFFFF8000
007FFFFFE000
01FFFFFFF800
03FFFFFFFC00
07FFC03FFE00
0FFE0007FF00
1FF80001FF80
3FF00000FFC0
3FE000007FC0
7FC000003FE0
7FC000003FE0
FF8000001FF0
FF8000001FF0
FF0000001FF0
FF0000000FF0
FF0000000FF0
FF0000000FF0
FF0000000FF0
FF0000000FF0
FF0000000FF0
FF0000000FF0
FF8000001FF0
FF8000001FF0
FF8000001FF0
7FC000003FE0
7FE000007FE0
3FE000007FC0
3FF80000FFC0
1FFC0003FF80
1FFF000FFF80
0FFFF0FFFF00
07FFFFFFFE00
03FFFFFFFC00
01FFFFFFF800
007FFFFFE000
001FFFFF8000
0007FFFE0000
00007FE00000
ENDCHAR
STARTCHAR 0039
ENCODING 57
SWIDTH 561 0
DWIDTH 53 0
BBX 44 70 4 -2
BITMAP
00007FE00000
0007FFFC0000
001FFFFF0000
007FFFFFC000
00FFFFFFE000
01FFFFFFF000
03FFFFFFF800
07FFE1FFFC00
0FFF001FFC00
1FFC0007FE00
1FF80003FF00
3FF00001FF00
3FE00000FF80
7FC000007F80
7FC000007FC0
7F8000003FC0
FF8000003FC0
FF8000003FC0
FF0000001FE0
FF0000001FE0
FF0000001FE0
FF0000001FE0
FF0000001FE0
FF0000001FF0
FF0000001FF0
FF0000001FF0
FF8000001FF0
FF8000003FF0
FF8000003FF0
7FC000007FF0
7FC000007FF0
7FE00000FFF0
3FE00001FFF0
3FF00003FFF0
1FFC0007FFF0
1FFF001FFFF0
0FFFF1FFFFF0
07FFFFFFFFF0
03FFFFFFDFF0
01FFFFFF9FF0
00FFFFFE1FF0
003FFFFC1FF0
000FFFF01FF0
0001FF801FF0
000000001FE0
000000001FE0
000000001FE0
000000001FE0
000000003FE0
000000003FC0
000000003FC0
000000003FC0
7F8000007FC0
7FC000007F80
7FC00000FF80
3FC00000FF80
3FE00001FF00
3FE00001FF00
1FF00003FE00
1FF80007FE00
0FFC000FFC00
0FFF003FF800
07FFE3FFF000
03FFFFFFE000
03FFFFFFC000
01FFFFFF8000
007FFFFF0000
003FFFFC0000
000FFFF00000
0001FF000000
ENDCHAR
STARTCHAR 003A
ENCODING 58
SWIDTH 275 0
DWIDTH 26 0
BBX 10 49 10 0
BITMAP
FFC0
FFC0
FFC0
FFC0
FFC0
FFC0
FFC0
FFC0
FFC0
FFC0
0000
0000
0000
0000
0000
0000
0000
0000
0000
0000
0000
0000
0000
0000
0000
0000
0000
0000
0000
0000
0000
0000
0000
0000
0000
0000
0000
0000
0000
FFC0
FFC0
FFC0
FFC0
FFC0
FFC0
FFC0
FFC0
FFC0
FFC0
ENDCHAR
STARTCHAR 003B
ENCODING 59
SWIDTH 275 0
DWIDTH 26 0
BBX 10 63 10 -14
BITMAP
FFC0
FFC0
FFC0
FFC0
FFC0
FFC0
FFC0
FFC0
FFC0
FFC0
0000
0000
0000
0000
0000
0000
0000
0000
0000
0000
0000
0000
0000
0000
0000
0000
0000
0000
0000
0000
0000
0000
0000
0000
0000
0000
0000
0000
0000
FFC0
FFC0
FFC0
FFC0
FFC0
FFC0
FFC0
FFC0
FFC0
FFC0
03C0
03C0
03C0
03C0
03C0
03C0
03C0
0780
0780
0F80
FF00
FE00
FC00
F000
ENDCHAR
STARTCHAR 003C
ENCODING 60
SWIDTH 582 0
DWIDTH 55 0
BBX 46 45 4 0
BITMAP
00000000000C
00000000007C
0000000001FC
0000000007FC
000000003FFC
00000000FFFC
00000003FFFC
0000001FFFF8
0000007FFFC0
000001FFFF00
00000FFFFC00
00003FFFE000
0001FFFF8000
0007FFFC0000
001FFFF00000
00FFFF800000
03FFFE000000
0FFFF0000000
7FFFC0000000
FFFE00000000
FFF800000000
FFE000000000
FFC000000000
FFF800000000
FFFE00000000
FFFF80000000
1FFFF0000000
07FFFC000000
01FFFF800000
003FFFE00000
000FFFFC0000
0001FFFF0000
00007FFFC000
00001FFFF800
000003FFFE00
000000FFFFC0
0000003FFFF0
00000007FFFC
00000001FFFC
000000007FFC
000000000FFC
0000000003FC
0000000000FC
00000000001C
000000000004
ENDCHAR
STARTCHAR 003D
ENCODING 61
SWIDTH 582 0
DWIDTH 55 0
BBX 45 24 5 10
BITMAP
FFFFFFFFFFF8
FFFFFFFFFFF8
FFFFFFFFFFF8
FFFFFFFFFFF8
FFFFFFFFFFF8
FFFFFFFFFFF8
FFFFFFFFFFF8
000000000000
000000000000
000000000000
000000000000
000000000000
000000000000
000000000000
000000000000
000000000000
000000000000
FFFFFFFFFFF8
FFFFFFFFFFF8
FFFFFFFFFFF8
FFFFFFFFFFF8
FFFFFFFFFFF8
FFFFFFFFFFF8
FFFFFFFFFFF8
ENDCHAR
STARTCHAR 003E
ENCODING 62
SWIDTH 582 0
DWIDTH 55 0
BBX 46 45 5 0
BITMAP
C00000000000
F80000000000
FE0000000000
FF8000000000
FFF000000000
FFFC00000000
FFFF80000000
7FFFE0000000
0FFFF8000000
03FFFF000000
00FFFFC00000
001FFFF00000
0007FFFE0000
0000FFFF8000
00003FFFE000
00000FFFFC00
000001FFFF00
0000007FFFE0
0000000FFFF8
00000003FFFC
00000000FFFC
000000001FFC
0000000007FC
000000003FFC
00000000FFFC
00000007FFFC
0000001FFFE0
000000FFFF80
000003FFFE00
00001FFFF000
00007FFFC000
0001FFFF0000
000FFFF80000
003FFFE00000
01FFFF800000
07FFFC000000
3FFFF0000000
FFFF80000000
FFFE00000000
FFF800000000
FFC000000000
FF0000000000
FC0000000000
E00000000000
800000000000
ENDCHAR
STARTCHAR 003F
ENCODING 63
SWIDTH 561 0
DWIDTH 53 0
BBX 41 70 7 0
BITMAP
0001FFC00000
000FFFFC0000
003FFFFF0000
00FFFFFFC000
01FFFFFFE000
03FFFFFFF000
07FFFFFFF800
0FFFE3FFFC00
1FFC003FFE00
1FF8000FFE00
3FF00007FF00
3FE00003FF00
3FC00001FF00
7FC00000FF80
7F800000FF80
7F800000FF80
7F800000FF80
7F8000007F80
FF0000007F80
FF0000007F80
FF000000FF80
FF000000FF80
00000000FF80
00000001FF00
00000001FF00
00000003FF00
00000007FE00
00000007FC00
0000000FFC00
0000001FF800
0000003FF000
0000007FE000
000001FFC000
000003FF8000
000007FF0000
00000FFE0000
00001FFC0000
00001FF80000
00003FF00000
00007FE00000
00007FC00000
0000FFC00000
0000FF800000
0000FF800000
0000FF000000
0000FF000000
0000FF000000
0000FF000000
0000FF000000
0000FF000000
0000FF000000
000000000000
000000000000
000000000000
000000000000
000000000000
000000000000
000000000000
000000000000
000000000000
0000FF000000
0000FF000000
0000FF000000
0000FF000000
0000FF000000
0000FF000000
0000FF000000
0000FF000000
0000FF000000
0000FF000000
ENDCHAR
STARTCHAR 0040
ENCODING 64
SWIDTH 1016 0
DWIDTH 96 0
BBX 87 83 3 -13
BITMAP
0000000000FFF800000000
000000001FFFFFC0000000
00000000FFFFFFF8000000
00000007FFFFFFFF000000
0000001FFFFFFFFFC00000
0000007FFFFFFFFFF00000
000001FFFFFFFFFFFC0000
000003FFFF807FFFFE0000
00000FFFF00001FFFF8000
00001FFF8000003FFFC000
00007FFE0000000FFFE000
0000FFF800000003FFF000
0001FFE000000000FFF800
0003FF80000000003FFC00
0007FF00000000001FFE00
000FFE00000000000FFF00
001FF8000000000007FF80
003FF0000000000003FF80
003FE0000000000001FFC0
007FC0000000000000FFE0
00FF800000000000007FE0
00FF8000003FC000003FF0
01FF000001FFF000003FF0
03FE00000FFFFC0FE01FF8
03FC00001FFFFE1FE00FF8
07FC00007FFFFF1FE00FF8
07F80000FFFFFF1FC00FFC
0FF80001FFC07FBFC007FC
0FF00003FF001FBFC007FC
1FF00007FE000FFFC003FC
1FE0000FF80007FF8003FC
1FE0001FF00003FF8003FE
3FC0003FF00003FF8003FE
3FC0003FE00003FF0003FE
3FC0007FC00003FF0001FE
3F80007F800001FF0001FE
7F8000FF800003FE0001FE
7F8000FF000003FE0001FE
7F8001FF000003FE0001FE
7F8001FF000003FC0003FE
7F0001FE000003FC0003FC
FF0001FE000003FC0003FC
FF0003FE000007F80003FC
FF0003FE000007F80003FC
FF0003FE000007F80007F8
FF0003FE00000FF00007F8
FF0003FC00000FF00007F8
FF0003FC00000FF0000FF0
FF8003FE00001FE0000FF0
FF8003FE00001FE0001FE0
7F8003FE00003FE0003FE0
7F8003FE00003FC0003FC0
7F8001FF00007FC0007FC0
7FC001FF0000FFC000FF80
7FC001FF8001FFC001FF00
3FC000FFC003FFC003FE00
3FE000FFE007FFE00FFC00
3FE0007FF81FFFF83FFC00
1FF0003FFFFFDFFFFFF800
1FF0001FFFFF1FFFFFE000
0FF8000FFFFE0FFFFFC000
0FFC0007FFFC07FFFF8000
07FC0001FFF003FFFE0000
07FE00007F8001FFF00000
03FF00000000000E000000
01FF800000000000000000
01FFC00000000000000000
00FFE00000000000000000
007FF80000000000000000
003FFC0000000000000000
001FFE0000000000000000
000FFF8000000000000000
0007FFE000000000000000
0003FFFC0000000C000000
0001FFFF800000FE000000
00007FFFF8001FFE000000
00003FFFFFFFFFFE000000
00000FFFFFFFFFFF000000
000003FFFFFFFFFF000000
000000FFFFFFFFFF000000
0000001FFFFFFFF8000000
00000003FFFFFF80000000
000000003FFFF000000000
ENDCHAR
STARTCHAR 0041
ENCODING 65
SWIDTH 667 0
DWIDTH 63 0
BBX 59 69 2 0
BITMAP
000000FFF0000000
000000FFF0000000
000001FFF0000000
000001FFF8000000
000001FFF8000000
000003FFF8000000
000003FFFC000000
000007FFFC000000
000007FFFC000000
000007FFFE000000
00000FFBFE000000
00000FFBFF000000
00000FF9FF000000
00001FF1FF000000
00001FF1FF800000
00001FF0FF800000
00003FE0FF800000
00003FE0FFC00000
00003FC07FC00000
00007FC07FC00000
00007FC07FE00000
00007F803FE00000
0000FF803FE00000
0000FF803FF00000
0001FF001FF00000
0001FF001FF00000
0001FF001FF80000
0003FE000FF80000
0003FE000FF80000
0003FE000FFC0000
0007FC0007FC0000
0007FC0007FE0000
0007F80007FE0000
000FF80003FE0000
000FF80003FF0000
000FF00003FF0000
001FF00001FF0000
001FF00001FF8000
003FE00001FF8000
003FE00000FF8000
003FE00000FFC000
007FFFFFFFFFC000
007FFFFFFFFFC000
007FFFFFFFFFE000
00FFFFFFFFFFE000
00FFFFFFFFFFE000
00FFFFFFFFFFF000
01FFFFFFFFFFF000
01FF0000001FF000
01FF0000001FF800
03FE0000001FF800
03FE0000000FFC00
07FE0000000FFC00
07FC00000007FC00
07FC00000007FE00
0FFC00000007FE00
0FF800000003FE00
0FF800000003FF00
1FF800000003FF00
1FF000000001FF00
1FF000000001FF80
3FF000000001FF80
3FE000000000FF80
3FE000000000FFC0
7FE000000000FFC0
7FC0000000007FC0
FFC0000000007FE0
FF80000000007FE0
FF80000000003FE0
ENDCHAR
STARTCHAR 0042
ENCODING 66
SWIDTH 667 0
DWIDTH 63 0
BBX 52 69 7 0
BITMAP
FFFFFFFFC00000
FFFFFFFFFC0000
FFFFFFFFFF0000
FFFFFFFFFFC000
FFFFFFFFFFE000
FFFFFFFFFFF000
FFFFFFFFFFF800
FFFFFFFFFFFC00
FF8000007FFC00
FF8000001FFE00
FF80000007FE00
FF80000003FF00
FF80000003FF00
FF80000001FF00
FF80000001FF80
FF80000000FF80
FF80000000FF80
FF80000000FF80
FF80000000FF80
FF80000000FF80
FF80000000FF80
FF80000000FF00
FF80000000FF00
FF80000001FF00
FF80000001FF00
FF80000003FE00
FF80000007FE00
FF8000000FFC00
FF8000001FF800
FF800000FFF000
FFFFFFFFFFE000
FFFFFFFFFFC000
FFFFFFFFFF0000
FFFFFFFFFF8000
FFFFFFFFFFE000
FFFFFFFFFFF800
FFFFFFFFFFFC00
FFFFFFFFFFFE00
FF8000000FFF00
FF80000003FF80
FF80000001FFC0
FF80000000FFC0
FF800000007FE0
FF800000003FE0
FF800000003FE0
FF800000001FF0
FF800000001FF0
FF800000001FF0
FF800000001FF0
FF800000001FF0
FF800000001FF0
FF800000001FF0
FF800000001FF0
FF800000001FE0
FF800000003FE0
FF800000003FE0
FF800000007FE0
FF80000000FFC0
FF80000001FFC0
FF80000003FF80
FF8000000FFF80
FFFFFFFFFFFF00
FFFFFFFFFFFE00
FFFFFFFFFFFC00
FFFFFFFFFFF800
FFFFFFFFFFF000
FFFFFFFFFFC000
FFFFFFFFFF0000
FFFFFFFFF80000
ENDCHAR
STARTCHAR 0043
ENCODING 67
SWIDTH 720 0
DWIDTH 68 0
BBX 59 72 5 -2
BITMAP
0000007FF8000000
000007FFFFC00000
00003FFFFFF00000
0000FFFFFFFC0000
0003FFFFFFFF0000
0007FFFFFFFF8000
001FFFFFFFFFC000
003FFFFFFFFFE000
007FFF000FFFF000
00FFF80001FFF800
00FFE000007FF800
01FFC000001FFC00
03FF8000000FFC00
03FF00000007FE00
07FE00000003FE00
0FFC00000003FF00
0FF800000001FF00
1FF800000001FF00
1FF000000000FF80
1FF000000000FF80
3FE000000000FF80
3FE000000000FF80
7FC0000000000000
7FC0000000000000
7FC0000000000000
7FC0000000000000
7F80000000000000
FF80000000000000
FF80000000000000
FF80000000000000
FF80000000000000
FF80000000000000
FF00000000000000
FF00000000000000
FF00000000000000
FF00000000000000
FF00000000000000
FF00000000000000
FF00000000000000
FF00000000000000
FF80000000000000
FF80000000000000
FF80000000000000
FF80000000000000
FF80000000000000
FF80000000003FE0
7FC0000000003FE0
7FC0000000007FE0
7FC0000000007FC0
7FE0000000007FC0
3FE0000000007FC0
3FE000000000FFC0
3FF000000000FF80
1FF000000000FF80
1FF800000001FF80
0FFC00000001FF00
0FFC00000003FF00
07FE00000003FF00
07FF00000007FE00
03FF8000000FFE00
01FFC000001FFC00
01FFF000007FF800
00FFFC0001FFF800
007FFF8007FFF000
003FFFFFFFFFE000
001FFFFFFFFFC000
000FFFFFFFFF8000
0003FFFFFFFE0000
0001FFFFFFFC0000
00007FFFFFF00000
00000FFFFF800000
000000FFF8000000
ENDCHAR
STARTCHAR 0044
ENCODING 68
SWIDTH 720 0
DWIDTH 68 0
BBX 55 69 8 0
BITMAP
FFFFFFFF800000
FFFFFFFFF80000
FFFFFFFFFE0000
FFFFFFFFFF8000
FFFFFFFFFFE000
FFFFFFFFFFF000
FFFFFFFFFFF800
FFFFFFFFFFFC00
FF800000FFFE00
FF8000003FFF00
FF8000000FFF80
FF80000003FF80
FF80000001FFC0
FF80000000FFC0
FF800000007FE0
FF800000003FE0
FF800000003FF0
FF800000001FF0
FF800000001FF8
FF800000000FF8
FF800000000FF8
FF800000000FFC
FF8000000007FC
FF8000000007FC
FF8000000007FC
FF8000000007FC
FF8000000003FC
FF8000000003FE
FF8000000003FE
FF8000000003FE
FF8000000003FE
FF8000000003FE
FF8000000003FE
FF8000000003FE
FF8000000003FE
FF8000000003FE
FF8000000003FE
FF8000000003FE
FF8000000003FE
FF8000000003FE
FF8000000003FE
FF8000000003FE
FF8000000003FC
FF8000000007FC
FF8000000007FC
FF8000000007FC
FF8000000007FC
FF8000000007F8
FF800000000FF8
FF800000000FF8
FF800000001FF8
FF800000001FF0
FF800000003FF0
FF800000003FE0
FF800000007FE0
FF80000000FFC0
FF80000001FFC0
FF80000003FF80
FF80000007FF00
FF8000001FFF00
FF800000FFFE00
FFFFFFFFFFFC00
FFFFFFFFFFF800
FFFFFFFFFFF000
FFFFFFFFFFC000
FFFFFFFFFF8000
FFFFFFFFFE0000
FFFFFFFFF00000
FFFFFFFF000000
ENDCHAR
STARTCHAR 0045
ENCODING 69
SWIDTH 667 0
DWIDTH 63 0
BBX 50 69 8 0
BITMAP
FFFFFFFFFFFF00
FFFFFFFFFFFF00
FFFFFFFFFFFF00
FFFFFFFFFFFF00
FFFFFFFFFFFF00
FFFFFFFFFFFF00
FFFFFFFFFFFF00
FFFFFFFFFFFF00
FF800000000000
FF800000000000
FF800000000000
FF800000000000
FF800000000000
FF800000000000
FF800000000000
FF800000000000
FF800000000000
FF800000000000
FF800000000000
FF800000000000
FF800000000000
FF800000000000
FF800000000000
FF800000000000
FF800000000000
FF800000000000
FF800000000000
FF800000000000
FF800000000000
FF800000000000
FFFFFFFFFFFE00
FFFFFFFFFFFE00
FFFFFFFFFFFE00
FFFFFFFFFFFE00
FFFFFFFFFFFE00
FFFFFFFFFFFE00
FFFFFFFFFFFE00
FFFFFFFFFFFE00
FF800000000000
FF800000000000
FF800000000000
FF800000000000
FF800000000000
FF800000000000
FF800000000000
FF800000000000
FF800000000000
FF800000000000
FF800000000000
FF800000000000
FF800000000000
FF800000000000
FF800000000000
FF800000000000
FF800000000000
FF800000000000
FF800000000000
FF800000000000
FF800000000000
FF800000000000
FF800000000000
FFFFFFFFFFFFC0
FFFFFFFFFFFFC0
FFFFFFFFFFFFC0
FFFFFFFFFFFFC0
FFFFFFFFFFFFC0
FFFFFFFFFFFFC0
FFFFFFFFFFFFC0
FFFFFFFFFFFFC0
ENDCHAR
STARTCHAR 0046
ENCODING 70
SWIDTH 614 0
DWIDTH 58 0
BBX 47 69 8 0
BITMAP
FFFFFFFFFFFE
FFFFFFFFFFFE
FFFFFFFFFFFE
FFFFFFFFFFFE
FFFFFFFFFFFE
FFFFFFFFFFFE
FFFFFFFFFFFE
FFFFFFFFFFFE
FF8000000000
FF8000000000
FF8000000000
FF8000000000
FF8000000000
FF8000000000
FF8000000000
FF8000000000
FF8000000000
FF8000000000
FF8000000000
FF8000000000
FF8000000000
FF8000000000
FF8000000000
FF8000000000
FF8000000000
FF8000000000
FF8000000000
FF8000000000
FF8000000000
FF8000000000
FFFFFFFFFFC0
FFFFFFFFFFC0
FFFFFFFFFFC0
FFFFFFFFFFC0
FFFFFFFFFFC0
FFFFFFFFFFC0
FFFFFFFFFFC0
FFFFFFFFFFC0
FF8000000000
FF8000000000
FF8000000000
FF8000000000
FF8000000000
FF8000000000
FF8000000000
FF8000000000
FF8000000000
FF8000000000
FF8000000000
FF8000000000
FF8000000000
FF8000000000
FF8000000000
FF8000000000
FF8000000000
FF8000000000
FF8000000000
FF8000000000
FF8000000000
FF8000000000
FF8000000000
FF8000000000
FF8000000000
FF8000000000
FF8000000000
FF8000000000
FF8000000000
FF8000000000
FF8000000000
ENDCHAR
STARTCHAR 0047
ENCODING 71
SWIDTH 772 0
DWIDTH 73 0
BBX 63 72 4 -2
BITMAP
0000001FFF000000
000003FFFFF00000
00000FFFFFFE0000
00007FFFFFFF8000
0000FFFFFFFFE000
0003FFFFFFFFF000
0007FFFFFFFFFC00
000FFFFFFFFFFE00
001FFFE001FFFF00
003FFF00001FFF80
007FFC000007FF80
00FFF0000003FFC0
01FFE0000000FFE0
03FF800000007FE0
03FF000000003FF0
07FE000000003FF0
07FE000000001FF8
0FFC000000000FF8
0FF8000000000FF8
1FF8000000000FFC
1FF00000000007FC
1FF00000000007FC
3FE0000000000000
3FE0000000000000
3FE0000000000000
7FC0000000000000
7FC0000000000000
7FC0000000000000
7FC0000000000000
7F80000000000000
FF80000000000000
FF80000000000000
FF80000000000000
FF8000003FFFFFFE
FF8000003FFFFFFE
FF8000003FFFFFFE
FF8000003FFFFFFE
FF8000003FFFFFFE
FF8000003FFFFFFE
FF8000003FFFFFFE
FF8000003FFFFFFE
FF800000000001FE
7FC00000000001FE
7FC00000000001FE
7FC00000000001FE
7FC00000000001FE
7FE00000000001FE
3FE00000000001FE
3FE00000000001FE
3FF00000000003FE
3FF00000000003FE
1FF00000000003FE
1FF80000000007FE
0FFC0000000007FE
0FFC000000000FFE
07FE000000001FFE
07FF000000001FFE
03FF800000003FFE
03FFC00000007FFE
01FFE0000000FFFE
00FFF0000003FFFE
007FFC000007FFFE
007FFF00001FFCFE
003FFFE000FFF8FE
001FFFFFFFFFF0FE
0007FFFFFFFFC0FE
0003FFFFFFFF80FE
0001FFFFFFFF007E
00007FFFFFFC007E
00001FFFFFF0007E
000003FFFF800000
0000003FF8000000
ENDCHAR
STARTCHAR 0048
ENCODING 72
SWIDTH 720 0
DWIDTH 68 0
BBX 53 69 8 0
BITMAP
FF800000000FF8
FF800000000FF8
FF800000000FF8
FF800000000FF8
FF800000000FF8
FF800000000FF8
FF800000000FF8
FF800000000FF8
FF800000000FF8
FF800000000FF8
FF800000000FF8
FF800000000FF8
FF800000000FF8
FF800000000FF8
FF800000000FF8
FF800000000FF8
FF800000000FF8
FF800000000FF8
FF800000000FF8
FF800000000FF8
FF800000000FF8
FF800000000FF8
FF800000000FF8
FF800000000FF8
FF800000000FF8
FF800000000FF8
FF800000000FF8
FF800000000FF8
FF800000000FF8
FF800000000FF8
FFFFFFFFFFFFF8
FFFFFFFFFFFFF8
FFFFFFFFFFFFF8
FFFFFFFFFFFFF8
FFFFFFFFFFFFF8
FFFFFFFFFFFFF8
FFFFFFFFFFFFF8
FFFFFFFFFFFFF8
FF800000000FF8
FF800000000FF8
FF800000000FF8
FF800000000FF8
FF800000000FF8
FF800000000FF8
FF800000000FF8
FF800000000FF8
FF800000000FF8
FF800000000FF8
FF800000000FF8
FF800000000FF8
FF800000000FF8
FF800000000FF8
FF800000000FF8
FF800000000FF8
FF800000000FF8
FF800000000FF8
FF800000000FF8
FF800000000FF8
FF800000000FF8
FF800000000FF8
FF800000000FF8
FF800000000FF8
FF800000000FF8
FF800000000FF8
FF800000000FF8
FF800000000FF8
FF800000000FF8
FF800000000FF8
FF800000000FF8
ENDCHAR
STARTCHAR 0049
ENCODING 73
SWIDTH 275 0
DWIDTH 26 0
BBX 9 69 9 0
BITMAP
FF80
FF80
FF80
FF80
FF80
FF80
FF80
FF80
FF80
FF80
FF80
FF80
FF80
FF80
FF80
FF80
FF80
FF80
FF80
FF80
FF80
FF80
FF80
FF80
FF80
FF80
FF80
FF80
FF80
FF80
FF80
FF80
FF80
FF80
FF80
FF80
FF80
FF80
FF80
FF80
FF80
FF80
FF80
FF80
FF80
FF80
FF80
FF80
FF80
FF80
FF80
FF80
FF80
FF80
FF80
FF80
FF80
FF80
FF80
FF80
FF80
FF80
FF80
FF80
FF80
FF80
FF80
FF80
FF80
ENDCHAR
STARTCHAR 004A
ENCODING 74
SWIDTH 497 0
DWIDTH 47 0
BBX 38 71 2 -2
BITMAP
00000007FC
00000007FC
00000007FC
00000007FC
00000007FC
00000007FC
00000007FC
00000007FC
00000007FC
00000007FC
00000007FC
00000007FC
00000007FC
00000007FC
00000007FC
00000007FC
00000007FC
00000007FC
00000007FC
00000007FC
00000007FC
00000007FC
00000007FC
00000007FC
00000007FC
00000007FC
00000007FC
00000007FC
00000007FC
00000007FC
00000007FC
00000007FC
00000007FC
00000007FC
00000007FC
00000007FC
00000007FC
00000007FC
00000007FC
00000007FC
00000007FC
00000007FC
00000007FC
00000007FC
00000007FC
00000007FC
00000007FC
FF800007FC
FF800007FC
FF800007FC
FF800007FC
FF800007FC
FF800007FC
FF800007FC
FF800007FC
FF800007FC
FF800007FC
FFC0000FFC
FFC0000FF8
7FE0001FF8
7FE0003FF8
7FF0007FF0
3FFC00FFF0
1FFF8FFFE0
1FFFFFFFC0
0FFFFFFF80
07FFFFFF00
03FFFFFE00
00FFFFF800
003FFFE000
0003FF0000
ENDCHAR
STARTCHAR 004B
ENCODING 75
SWIDTH 667 0
DWIDTH 63 0
BBX 55 69 7 0
BITMAP
FF800000001FFC
FF800000003FF8
FF800000007FF0
FF80000000FFE0
FF80000001FFC0
FF80000003FF80
FF80000007FF00
FF8000000FFE00
FF8000001FFC00
FF8000003FF800
FF8000007FF000
FF800000FFE000
FF800001FFC000
FF800003FF8000
FF800007FF0000
FF80000FFE0000
FF80001FFC0000
FF80003FF80000
FF80007FF00000
FF8000FFE00000
FF8001FFC00000
FF8003FF800000
FF8007FF000000
FF800FFE000000
FF801FFC000000
FF801FF8000000
FF803FF0000000
FF807FE0000000
FF80FFE0000000
FF81FFF0000000
FF83FFF0000000
FF87FFF8000000
FF8FFFFC000000
FF9FFFFE000000
FFBFF7FE000000
FFFFE3FF000000
FFFFC3FF800000
FFFF81FF800000
FFFF00FFC00000
FFFE00FFE00000
FFFC007FE00000
FFF8003FF00000
FFF0001FF80000
FFE0001FF80000
FFC0000FFC0000
FF800007FE0000
FF800007FF0000
FF800003FF0000
FF800001FF8000
FF800001FFC000
FF800000FFC000
FF8000007FE000
FF8000007FF000
FF8000003FF000
FF8000001FF800
FF8000001FFC00
FF8000000FFC00
FF80000007FE00
FF80000003FF00
FF80000003FF80
FF80000001FF80
FF80000000FFC0
FF80000000FFE0
FF800000007FE0
FF800000003FF0
FF800000003FF8
FF800000001FF8
FF800000000FFC
FF800000000FFE
ENDCHAR
STARTCHAR 004C
ENCODING 76
SWIDTH 561 0
DWIDTH 53 0
BBX 42 69 8 0
BITMAP
FF0000000000
FF0000000000
FF0000000000
FF0000000000
FF0000000000
FF0000000000
FF0000000000
FF0000000000
FF0000000000
FF0000000000
FF0000000000
FF0000000000
FF0000000000
FF0000000000
FF0000000000
FF0000000000
FF0000000000
FF0000000000
FF0000000000
FF0000000000
FF0000000000
FF0000000000
FF0000000000
FF0000000000
FF0000000000
FF0000000000
FF0000000000
FF0000000000
FF0000000000
FF0000000000
FF0000000000
FF0000000000
FF0000000000
FF0000000000
FF0000000000
FF0000000000
FF0000000000
FF0000000000
FF0000000000
FF0000000000
FF0000000000
FF0000000000
FF0000000000
FF0000000000
FF0000000000
FF0000000000
FF0000000000
FF0000000000
FF0000000000
FF0000000000
FF0000000000
FF0000000000
FF0000000000
FF0000000000
FF0000000000
FF0000000000
FF0000000000
FF0000000000
FF0000000000
FF0000000000
FF0000000000
FFFFFFFFFFC0
FFFFFFFFFFC0
FFFFFFFFFFC0
FFFFFFFFFFC0
FFFFFFFFFFC0
FFFFFFFFFFC0
FFFFFFFFFFC0
FFFFFFFFFFC0
ENDCHAR
STARTCHAR 004D
ENCODING 77
SWIDTH 836 0
DWIDTH 79 0
BBX 65 69 7 0
BITMAP
FFF0000000000FFF80
FFF8000000000FFF80
FFF8000000000FFF80
FFF8000000000FFF80
FFFC000000001FFF80
FFFC000000001FFF80
FFFC000000001FFF80
FFFE000000003FFF80
FFFE000000003FFF80
FFFE000000003FFF80
FFFF000000007FFF80
FFFF000000007F7F80
FF7F800000007F7F80
FF7F80000000FF7F80
FF7F80000000FE7F80
FF3FC0000000FE7F80
FF3FC0000001FE7F80
FF1FC0000001FC7F80
FF1FE0000001FC7F80
FF1FE0000003FC7F80
FF0FE0000003F87F80
FF0FF0000003F87F80
FF0FF0000007F87F80
FF07F0000007F07F80
FF07F8000007F07F80
FF07F800000FF07F80
FF03F800000FE07F80
FF03FC00000FE07F80
FF03FC00001FE07F80
FF01FC00001FC07F80
FF01FE00001FC07F80
FF01FE00003FC07F80
FF00FE00003F807F80
FF00FF00003F807F80
FF00FF00007F807F80
FF007F00007F007F80
FF007F80007F007F80
FF007F8000FF007F80
FF003F8000FE007F80
FF003FC000FE007F80
FF003FC001FE007F80
FF001FC001FC007F80
FF001FE001FC007F80
FF001FE003FC007F80
FF000FE003F8007F80
FF000FF003F8007F80
FF000FF007F8007F80
FF0007F007F0007F80
FF0007F807F0007F80
FF0007F80FF0007F80
FF0003F80FE0007F80
FF0003FC0FE0007F80
FF0003FC1FE0007F80
FF0001FC1FC0007F80
FF0001FE1FC0007F80
FF0001FE3FC0007F80
FF0000FE3F80007F80
FF0000FF3F80007F80
FF0000FF7F80007F80
FF00007F7F00007F80
FF00007FFF00007F80
FF00007FFF00007F80
FF00003FFE00007F80
FF00003FFE00007F80
FF00003FFE00007F80
FF00001FFC00007F80
FF00001FFC00007F80
FF00001FFC00007F80
FF00000FF800007F80
ENDCHAR
STARTCHAR 004E
ENCODING 78
SWIDTH 720 0
DWIDTH 68 0
BBX 54 69 7 0
BITMAP
FFC000000003FC
FFE000000003FC
FFE000000003FC
FFF000000003FC
FFF800000003FC
FFF800000003FC
FFFC00000003FC
FFFC00000003FC
FFFE00000003FC
FFFF00000003FC
FFFF00000003FC
FFFF80000003FC
FFFFC0000003FC
FF7FC0000003FC
FF7FE0000003FC
FF3FF0000003FC
FF1FF0000003FC
FF1FF8000003FC
FF0FFC000003FC
FF07FC000003FC
FF07FE000003FC
FF03FE000003FC
FF03FF000003FC
FF01FF800003FC
FF00FF800003FC
FF00FFC00003FC
FF007FE00003FC
FF003FE00003FC
FF003FF00003FC
FF001FF80003FC
FF000FF80003FC
FF000FFC0003FC
FF0007FC0003FC
FF0007FE0003FC
FF0003FF0003FC
FF0001FF0003FC
FF0001FF8003FC
FF0000FFC003FC
FF00007FC003FC
FF00007FE003FC
FF00003FF003FC
FF00001FF003FC
FF00001FF803FC
FF00000FF803FC
FF00000FFC03FC
FF000007FE03FC
FF000003FE03FC
FF000003FF03FC
FF000001FF83FC
FF000000FF83FC
FF000000FFC3FC
FF0000007FE3FC
FF0000003FE3FC
FF0000003FF3FC
FF0000001FF3FC
FF0000001FFBFC
FF0000000FFFFC
FF00000007FFFC
FF00000007FFFC
FF00000003FFFC
FF00000001FFFC
FF00000001FFFC
FF00000000FFFC
FF000000007FFC
FF000000007FFC
FF000000003FFC
FF000000003FFC
FF000000001FFC
FF000000000FFC
ENDCHAR
STARTCHAR 004F
ENCODING 79
SWIDTH 772 0
DWIDTH 73 0
BBX 66 72 4 -2
BITMAP
0000001FFE00000000
000003FFFFF0000000
00000FFFFFFC000000
00007FFFFFFF800000
0000FFFFFFFFC00000
0003FFFFFFFFF00000
0007FFFFFFFFF80000
001FFFFFFFFFFE0000
003FFFC001FFFF0000
007FFE00003FFF8000
00FFF800000FFF8000
01FFF0000003FFC000
01FFC0000001FFE000
03FF800000007FF000
07FF000000003FF000
07FE000000001FF800
0FFC000000001FFC00
0FFC000000000FFC00
1FF80000000007FE00
1FF00000000007FE00
3FF00000000003FE00
3FE00000000003FF00
3FE00000000001FF00
7FC00000000001FF00
7FC00000000000FF80
7FC00000000000FF80
7FC00000000000FF80
FF800000000000FF80
FF8000000000007F80
FF8000000000007FC0
FF8000000000007FC0
FF8000000000007FC0
FF8000000000007FC0
FF0000000000007FC0
FF0000000000007FC0
FF0000000000007FC0
FF0000000000007FC0
FF0000000000007FC0
FF0000000000007FC0
FF8000000000007FC0
FF8000000000007FC0
FF8000000000007FC0
FF8000000000007FC0
FF8000000000007FC0
FF800000000000FF80
7FC00000000000FF80
7FC00000000000FF80
7FC00000000000FF80
7FE00000000001FF00
3FE00000000001FF00
3FE00000000003FF00
3FF00000000003FE00
1FF00000000007FE00
1FF80000000007FC00
0FFC000000000FFC00
0FFC000000001FF800
07FE000000001FF800
07FF000000003FF000
03FF800000007FF000
01FFC0000001FFE000
01FFF0000003FFC000
00FFF800000FFF8000
007FFF00003FFF8000
003FFFE001FFFF0000
001FFFFFFFFFFC0000
000FFFFFFFFFF80000
0003FFFFFFFFF00000
0001FFFFFFFFC00000
00007FFFFFFF000000
00001FFFFFFC000000
000003FFFFE0000000
0000001FFE00000000
ENDCHAR
STARTCHAR 0050
ENCODING 80
SWIDTH 667 0
DWIDTH 63 0
BBX 49 69 9 0
BITMAP
FFFFFFFFC00000
FFFFFFFFFC0000
FFFFFFFFFF0000
FFFFFFFFFFC000
FFFFFFFFFFE000
FFFFFFFFFFF000
FFFFFFFFFFF800
FFFFFFFFFFFC00
FF000000FFFC00
FF0000003FFE00
FF0000000FFE00
FF00000007FF00
FF00000003FF00
FF00000001FF80
FF00000001FF80
FF00000001FF80
FF00000000FF80
FF00000000FF80
FF00000000FF80
FF00000000FF80
FF00000000FF80
FF00000000FF80
FF00000000FF80
FF00000000FF80
FF00000001FF80
FF00000001FF80
FF00000003FF80
FF00000003FF00
FF00000007FF00
FF0000000FFE00
FF0000003FFE00
FF000001FFFC00
FFFFFFFFFFFC00
FFFFFFFFFFF800
FFFFFFFFFFF000
FFFFFFFFFFE000
FFFFFFFFFF8000
FFFFFFFFFF0000
FFFFFFFFF80000
FFFFFFFF800000
FF000000000000
FF000000000000
FF000000000000
FF000000000000
FF000000000000
FF000000000000
FF000000000000
FF000000000000
FF000000000000
FF000000000000
FF000000000000
FF000000000000
FF000000000000
FF000000000000
FF000000000000
FF000000000000
FF000000000000
FF000000000000
FF000000000000
FF000000000000
FF000000000000
FF000000000000
FF000000000000
FF000000000000
FF000000000000
FF000000000000
FF000000000000
FF000000000000
FF000000000000
ENDCHAR
STARTCHAR 0051
ENCODING 81
SWIDTH 772 0
DWIDTH 73 0
BBX 66 75 4 -5
BITMAP
0000001FFE00000000
000003FFFFE0000000
00000FFFFFFC000000
00007FFFFFFF000000
0000FFFFFFFFC00000
0003FFFFFFFFF00000
0007FFFFFFFFF80000
001FFFFFFFFFFC0000
003FFFC001FFFF0000
007FFE00003FFF8000
00FFF800000FFF8000
01FFF0000003FFC000
01FFC0000001FFE000
03FF800000007FF000
07FF000000003FF800
07FE000000001FF800
0FFC000000001FFC00
0FFC000000000FFC00
1FF80000000007FE00
1FF00000000007FE00
3FF00000000003FE00
3FE00000000003FF00
3FE00000000001FF00
7FC00000000001FF00
7FC00000000000FF80
7FC00000000000FF80
7FC00000000000FF80
FF800000000000FF80
FF8000000000007FC0
FF8000000000007FC0
FF8000000000007FC0
FF8000000000007FC0
FF8000000000007FC0
FF0000000000007FC0
FF0000000000007FC0
FF0000000000007FC0
FF0000000000007FC0
FF0000000000007FC0
FF0000000000007FC0
FF8000000000007FC0
FF8000000000007FC0
FF8000000000007FC0
FF8000000000007FC0
FF8000000000007FC0
FF800000000000FF80
7FC00000000000FF80
7FC00000000000FF80
7FC00000000000FF80
7FE00000000001FF00
3FE00000000001FF00
3FE00000000003FF00
3FF00000006003FE00
1FF0000000F007FE00
1FF8000001F807FC00
0FFC000003FC0FFC00
0FFC000007FF1FF800
07FE000003FF9FF800
07FF000001FFFFF000
03FF800000FFFFF000
01FFC000003FFFE000
01FFF000001FFFC000
00FFF800000FFF8000
007FFE00003FFF0000
003FFFE001FFFF8000
001FFFFFFFFFFFE000
000FFFFFFFFFFFF000
0003FFFFFFFFFFF800
0001FFFFFFFFDFFC00
00007FFFFFFF0FFE00
00001FFFFFFC03FF80
000003FFFFE001FF80
0000001FFE0000FF00
000000000000007E00
000000000000003C00
000000000000000C00
ENDCHAR
STARTCHAR 0052
ENCODING 82
SWIDTH 720 0
DWIDTH 68 0
BBX 55 69 9 0
BITMAP
FFFFFFFFFC0000
FFFFFFFFFFC000
FFFFFFFFFFF000
FFFFFFFFFFFC00
FFFFFFFFFFFE00
FFFFFFFFFFFF00
FFFFFFFFFFFF80
FFFFFFFFFFFFC0
FF8000000FFFC0
FF80000003FFE0
FF80000000FFE0
FF800000007FF0
FF800000003FF0
FF800000003FF0
FF800000001FF0
FF800000001FF0
FF800000001FF0
FF800000001FF0
FF800000001FF0
FF800000001FF0
FF800000001FF0
FF800000001FF0
FF800000001FF0
FF800000001FF0
FF800000001FF0
FF800000003FE0
FF800000003FE0
FF800000007FC0
FF80000000FFC0
FF80000001FF80
FF8000000FFF00
FFFFFFFFFFFE00
FFFFFFFFFFF800
FFFFFFFFFFF000
FFFFFFFFFFC000
FFFFFFFFFFF000
FFFFFFFFFFF800
FFFFFFFFFFFE00
FFFFFFFFFFFF00
FF8000001FFF00
FF80000003FF80
FF80000001FFC0
FF80000000FFC0
FF800000007FC0
FF800000007FC0
FF800000003FE0
FF800000003FE0
FF800000003FE0
FF800000003FE0
FF800000001FE0
FF800000001FE0
FF800000001FE0
FF800000001FE0
FF800000001FE0
FF800000001FE0
FF800000003FE0
FF800000003FE0
FF800000003FE0
FF800000003FE0
FF800000001FE0
FF800000001FF0
FF800000001FF0
FF800000001FF0
FF800000001FF0
FF800000001FF8
FF800000001FFC
FF800000000FFE
FF800000000FFE
FF800000000FFE
ENDCHAR
STARTCHAR 0053
ENCODING 83
SWIDTH 667 0
DWIDTH 63 0
BBX 54 72 5 -2
BITMAP
00000FFF800000
0000FFFFF80000
0007FFFFFF0000
001FFFFFFFC000
007FFFFFFFE000
00FFFFFFFFF800
01FFFFFFFFFC00
03FFFF0FFFFE00
07FFC0003FFE00
07FF00000FFF00
0FFE000003FF80
1FFC000001FF80
1FF8000000FFC0
1FF00000007FC0
3FE00000007FE0
3FE00000003FE0
3FE00000003FE0
3FE00000001FE0
3FC00000001FE0
3FC00000001FE0
3FE00000001FE0
3FE00000000000
3FE00000000000
3FF00000000000
3FF00000000000
3FF80000000000
1FFE0000000000
1FFF8000000000
0FFFF000000000
0FFFFE00000000
07FFFFE0000000
03FFFFFE000000
01FFFFFFC00000
007FFFFFFC0000
003FFFFFFFC000
0007FFFFFFF000
0000FFFFFFFC00
00000FFFFFFE00
000000FFFFFF00
0000000FFFFF80
00000001FFFFC0
000000001FFFE0
0000000007FFF0
0000000001FFF0
00000000007FF8
00000000003FF8
00000000001FF8
00000000000FF8
FF000000000FFC
FF0000000007FC
FF0000000007FC
FF0000000007FC
FF0000000007FC
FF8000000007FC
FF8000000007F8
FF800000000FF8
7FC00000000FF8
7FE00000001FF8
7FE00000001FF0
3FF00000003FF0
3FFC0000007FE0
1FFE000000FFE0
0FFF800003FFC0
07FFF0001FFF80
03FFFFFFFFFF00
01FFFFFFFFFE00
00FFFFFFFFFC00
007FFFFFFFF800
001FFFFFFFE000
0007FFFFFF8000
0000FFFFFC0000
00000FFFC00000
ENDCHAR
STARTCHAR 0054
ENCODING 84
SWIDTH 614 0
DWIDTH 58 0
BBX 54 69 2 0
BITMAP
FFFFFFFFFFFFFC
FFFFFFFFFFFFFC
FFFFFFFFFFFFFC
FFFFFFFFFFFFFC
FFFFFFFFFFFFFC
FFFFFFFFFFFFFC
FFFFFFFFFFFFFC
FFFFFFFFFFFFFC
000001FE000000
000001FE000000
000001FE000000
000001FE000000
000001FE000000
000001FE000000
000001FE000000
000001FE000000
000001FE000000
000001FE000000
000001FE000000
000001FE000000
000001FE000000
000001FE000000
000001FE000000
000001FE000000
000001FE000000
000001FE000000
000001FE000000
000001FE000000
000001FE000000
000001FE000000
000001FE000000
000001FE000000
000001FE000000
000001FE000000
000001FE000000
000001FE000000
000001FE000000
000001FE000000
000001FE000000
000001FE000000
000001FE000000
000001FE000000
000001FE000000
000001FE000000
000001FE000000
000001FE000000
000001FE000000
000001FE000000
000001FE000000
000001FE000000
000001FE000000
000001FE000000
000001FE000000
000001FE000000
000001FE000000
000001FE000000
000001FE000000
000001FE000000
000001FE000000
000001FE000000
000001FE000000
000001FE000000
000001FE000000
000001FE000000
000001FE000000
000001FE000000
000001FE000000
000001FE000000
000001FE000000
ENDCHAR
STARTCHAR 0055
ENCODING 85
SWIDTH 720 0
DWIDTH 68 0
BBX 53 71 8 -2
BITMAP
FF800000000FF8
FF800000000FF8
FF800000000FF8
FF800000000FF8
FF800000000FF8
FF800000000FF8
FF800000000FF8
FF800000000FF8
FF800000000FF8
FF800000000FF8
FF800000000FF8
FF800000000FF8
FF800000000FF8
FF800000000FF8
FF800000000FF8
FF800000000FF8
FF800000000FF8
FF800000000FF8
FF800000000FF8
FF800000000FF8
FF800000000FF8
FF800000000FF8
FF800000000FF8
FF800000000FF8
FF800000000FF8
FF800000000FF8
FF800000000FF8
FF800000000FF8
FF800000000FF8
FF800000000FF8
FF800000000FF8
FF800000000FF8
FF800000000FF8
FF800000000FF8
FF800000000FF8
FF800000000FF8
FF800000000FF8
FF800000000FF8
FF800000000FF8
FF800000000FF8
FF800000000FF8
FF800000000FF8
FF800000000FF8
FF800000000FF8
FF800000000FF8
FF800000000FF8
FF800000000FF8
FF800000000FF8
FF800000000FF8
FF800000000FF8
FF800000000FF8
FF800000000FF8
FF800000000FF8
7FC00000001FF0
7FC00000001FF0
7FC00000001FF0
7FE00000003FF0
3FF00000007FE0
3FF8000000FFE0
1FFC000001FFC0
1FFE000003FFC0
0FFF80000FFF80
07FFF0007FFF00
03FFFFFFFFFE00
01FFFFFFFFFC00
00FFFFFFFFF800
007FFFFFFFE000
001FFFFFFFC000
0007FFFFFF0000
0000FFFFF80000
00000FFF800000
ENDCHAR
STARTCHAR 0056
ENCODING 86
SWIDTH 667 0
DWIDTH 63 0
BBX 58 69 3 0
BITMAP
FF8000000000FFC0
FFC000000000FF80
7FC000000000FF80
7FC000000001FF80
7FE000000001FF00
3FE000000001FF00
3FF000000003FF00
3FF000000003FE00
1FF000000003FE00
1FF800000007FE00
0FF800000007FC00
0FF800000007FC00
0FFC0000000FFC00
07FC0000000FF800
07FC0000000FF800
07FE0000001FF800
03FE0000001FF000
03FE0000001FF000
03FF0000001FE000
01FF0000003FE000
01FF0000003FE000
00FF8000003FC000
00FF8000007FC000
00FF8000007FC000
007FC000007F8000
007FC00000FF8000
007FC00000FF8000
003FE00000FF0000
003FE00001FF0000
003FE00001FF0000
001FF00001FE0000
001FF00003FE0000
001FF80003FE0000
000FF80003FC0000
000FF80007FC0000
0007FC0007FC0000
0007FC0007F80000
0007FC000FF80000
0003FE000FF80000
0003FE000FF00000
0003FE001FF00000
0001FF001FF00000
0001FF001FE00000
0001FF003FE00000
0000FF803FC00000
0000FF803FC00000
0000FF807FC00000
00007FC07F800000
00007FC07F800000
00003FC0FF800000
00003FE0FF000000
00003FE0FF000000
00001FE1FF000000
00001FF1FE000000
00001FF1FE000000
00000FF3FE000000
00000FFBFC000000
00000FFBFC000000
000007FFFC000000
000007FFF8000000
000007FFF8000000
000003FFF8000000
000003FFF0000000
000001FFF0000000
000001FFF0000000
000001FFE0000000
000000FFE0000000
000000FFE0000000
000000FFC0000000
ENDCHAR
STARTCHAR 0057
ENCODING 87
SWIDTH 942 0
DWIDTH 89 0
BBX 86 69 2 0
BITMAP
FFC0000003FF0000000FFC
FFC0000003FF0000000FF8
7FC0000007FF0000001FF8
7FE0000007FF8000001FF8
7FE0000007FF8000001FF8
7FE0000007FF8000001FF0
3FE000000FFF8000003FF0
3FF000000FFFC000003FF0
3FF000000FFFC000003FF0
3FF000000FFFC000003FE0
1FF000001FFFE000003FE0
1FF800001FFFE000007FE0
1FF800001FFFE000007FE0
0FF800003FDFE000007FC0
0FF800003FDFF000007FC0
0FF800003FCFF00000FFC0
0FFC00003FCFF00000FFC0
07FC00007F8FF00000FF80
07FC00007F8FF80000FF80
07FC00007F87F80000FF80
07FE00007F87F80001FF80
03FE0000FF07FC0001FF00
03FE0000FF03FC0001FF00
03FE0000FF03FC0001FF00
03FF0001FE03FC0003FF00
01FF0001FE03FE0003FE00
01FF0001FE01FE0003FE00
01FF0001FE01FE0003FE00
01FF0003FC01FF0007FE00
00FF8003FC00FF0007FC00
00FF8003FC00FF0007FC00
00FF8003FC00FF0007FC00
00FF8007F800FF8007F800
007FC007F8007F800FF800
007FC007F8007F800FF800
007FC00FF0007FC00FF800
007FC00FF0003FC00FF000
003FE00FF0003FC01FF000
003FE00FF0003FC01FF000
003FE01FE0003FE01FF000
003FE01FE0001FE01FE000
001FE01FE0001FE01FE000
001FF01FE0001FE03FE000
001FF03FC0001FF03FE000
001FF03FC0000FF03FC000
000FF03FC0000FF03FC000
000FF87F80000FF87FC000
000FF87F800007F87FC000
000FF87F800007F87F8000
0007F87F800007F87F8000
0007FCFF000007FC7F8000
0007FCFF000003FCFF8000
0007FCFF000003FCFF0000
0003FCFF000003FEFF0000
0003FDFE000001FEFF0000
0003FFFE000001FFFF0000
0001FFFE000001FFFE0000
0001FFFC000001FFFE0000
0001FFFC000000FFFE0000
0001FFFC000000FFFE0000
0000FFFC000000FFFC0000
0000FFF80000007FFC0000
0000FFF80000007FFC0000
0000FFF80000007FFC0000
00007FF80000007FF80000
00007FF00000003FF80000
00007FF00000003FF80000
00007FF00000003FF80000
00003FF00000003FF00000
ENDCHAR
STARTCHAR 0058
ENCODING 88
SWIDTH 667 0
DWIDTH 63 0
BBX 59 69 2 0
BITMAP
3FF800000001FFC0
1FF800000001FF80
1FFC00000003FF00
0FFE00000007FF00
07FE00000007FE00
07FF0000000FFC00
03FF8000001FFC00
01FF8000001FF800
01FFC000003FF000
00FFC000007FF000
007FE000007FE000
007FF00000FFC000
003FF00001FFC000
001FF80001FF8000
001FFC0003FF0000
000FFC0003FE0000
0007FE0007FE0000
0007FF000FFC0000
0003FF000FF80000
0001FF801FF80000
0000FFC03FF00000
0000FFC03FE00000
00007FE07FE00000
00003FF0FFC00000
00003FF0FF800000
00001FF9FF800000
00000FFFFF000000
00000FFFFE000000
000007FFFC000000
000003FFFC000000
000003FFF8000000
000001FFF0000000
000000FFF0000000
000000FFE0000000
000000FFF0000000
000001FFF0000000
000003FFF8000000
000003FFFC000000
000007FFFC000000
00000FFFFE000000
00000FFBFF000000
00001FFBFF000000
00003FF1FF800000
00003FE0FFC00000
00007FE0FFC00000
0000FFC07FE00000
0000FFC03FF00000
0001FF803FF00000
0003FF001FF80000
0007FF000FFC0000
0007FE000FFE0000
000FFC0007FE0000
001FFC0003FF0000
001FF80003FF8000
003FF00001FF8000
007FF00000FFC000
007FE00000FFE000
00FFC000007FE000
01FFC000003FF000
01FF8000003FF800
03FF0000001FF800
07FF0000000FFC00
07FE0000000FFE00
0FFC00000007FF00
1FFC00000007FF00
3FF800000003FF80
3FF000000001FFC0
7FF000000001FFC0
FFE000000000FFE0
ENDCHAR
STARTCHAR 0059
ENCODING 89
SWIDTH 667 0
DWIDTH 63 0
BBX 60 69 2 0
BITMAP
FFC0000000003FF0
FFE0000000007FE0
7FF000000000FFE0
7FF000000000FFC0
3FF800000001FFC0
1FF800000001FF80
1FFC00000003FF00
0FFE00000003FF00
07FE00000007FE00
07FF0000000FFE00
03FF0000000FFC00
03FF8000001FF800
01FFC000001FF800
00FFC000003FF000
00FFE000007FE000
007FE000007FE000
003FF00000FFC000
003FF80000FFC000
001FF80001FF8000
000FFC0001FF0000
000FFC0003FF0000
0007FE0007FE0000
0007FF0007FE0000
0003FF000FFC0000
0001FF800FF80000
0001FF801FF80000
0000FFC03FF00000
00007FE03FE00000
00007FE07FE00000
00003FF07FC00000
00003FF0FFC00000
00001FF8FF800000
00000FFDFF000000
00000FFFFF000000
000007FFFE000000
000003FFFE000000
000003FFFC000000
000001FFF8000000
000000FFF8000000
000000FFF0000000
0000007FE0000000
0000007FE0000000
0000003FE0000000
0000003FE0000000
0000003FE0000000
0000003FE0000000
0000003FE0000000
0000003FE0000000
0000003FE0000000
0000003FE0000000
0000003FE0000000
0000003FE0000000
0000003FE0000000
0000003FE0000000
0000003FE0000000
0000003FE0000000
0000003FE0000000
0000003FE0000000
0000003FE0000000
0000003FE0000000
0000003FE0000000
0000003FE0000000
0000003FE0000000
0000003FE0000000
0000003FE0000000
0000003FE0000000
0000003FE0000000
0000003FE0000000
0000003FE0000000
ENDCHAR
STARTCHAR 005A
ENCODING 90
SWIDTH 614 0
DWIDTH 58 0
BBX 52 69 3 0
BITMAP
3FFFFFFFFFFFF0
3FFFFFFFFFFFF0
3FFFFFFFFFFFF0
3FFFFFFFFFFFF0
3FFFFFFFFFFFF0
3FFFFFFFFFFFF0
3FFFFFFFFFFFF0
3FFFFFFFFFFFF0
0000000000FFE0
0000000000FFE0
0000000001FFC0
0000000003FF80
0000000007FF00
0000000007FF00
000000000FFE00
000000001FFC00
000000003FF800
000000007FF000
000000007FF000
00000000FFE000
00000001FFC000
00000003FF8000
00000003FF8000
00000007FF0000
0000000FFE0000
0000001FFC0000
0000001FFC0000
0000003FF80000
0000007FF00000
000000FFE00000
000001FFC00000
000001FFC00000
000003FF800000
000007FF000000
00000FFE000000
00000FFE000000
00001FFC000000
00003FF8000000
00007FF0000000
0000FFE0000000
0000FFE0000000
0001FFC0000000
0003FF80000000
0007FF00000000
0007FF00000000
000FFE00000000
001FFC00000000
003FF800000000
003FF800000000
007FF000000000
00FFE000000000
01FFC000000000
03FF8000000000
03FF8000000000
07FF0000000000
0FFE0000000000
1FFC0000000000
1FFC0000000000
3FF80000000000
7FF00000000000
FFE00000000000
FFFFFFFFFFFFF0
FFFFFFFFFFFFF0
FFFFFFFFFFFFF0
FFFFFFFFFFFFF0
FFFFFFFFFFFFF0
FFFFFFFFFFFFF0
FFFFFFFFFFFFF0
FFFFFFFFFFFFF0
ENDCHAR
STARTCHAR 005B
ENCODING 91
SWIDTH 275 0
DWIDTH 26 0
BBX 18 89 6 -20
BITMAP
FFFFC0
FFFFC0
FFFFC0
FFFFC0
FFFFC0
FFFFC0
FFFFC0
FF0000
FF0000
FF0000
FF0000
FF0000
FF0000
FF0000
FF0000
FF0000
FF0000
FF0000
FF0000
FF0000
FF0000
FF0000
FF0000
FF0000
FF0000
FF0000
FF0000
FF0000
FF0000
FF0000
FF0000
FF0000
FF0000
FF0000
FF0000
FF0000
FF0000
FF0000
FF0000
FF0000
FF0000
FF0000
FF0000
FF0000
FF0000
FF0000
FF0000
FF0000
FF0000
FF0000
FF0000
FF0000
FF0000
FF0000
FF0000
FF0000
FF0000
FF0000
FF0000
FF0000
FF0000
FF0000
FF0000
FF0000
FF0000
FF0000
FF0000
FF0000
FF0000
FF0000
FF0000
FF0000
FF0000
FF0000
FF0000
FF0000
FF0000
FF0000
FF0000
FF0000
FF0000
FF0000
FFFFC0
FFFFC0
FFFFC0
FFFFC0
FFFFC0
FFFFC0
FFFFC0
ENDCHAR
STARTCHAR 005C
ENCODING 92
SWIDTH 275 0
DWIDTH 26 0
BBX 28 71 -1 -2
BITMAP
FC000000
7C000000
7C000000
7E000000
3E000000
3E000000
3F000000
1F000000
1F000000
1F000000
0F800000
0F800000
0F800000
0FC00000
07C00000
07C00000
07E00000
03E00000
03E00000
03F00000
01F00000
01F00000
01F80000
00F80000
00F80000
00F80000
007C0000
007C0000
007C0000
003E0000
003E0000
003E0000
003F0000
001F0000
001F0000
001F8000
000F8000
000F8000
000FC000
0007C000
0007C000
0007E000
0003E000
0003E000
0003E000
0001F000
0001F000
0001F000
0000F800
0000F800
0000F800
0000FC00
00007C00
00007C00
00007E00
00003E00
00003E00
00003F00
00001F00
00001F00
00001F80
00000F80
00000F80
00000F80
000007C0
000007C0
000007C0
000003E0
000003E0
000003E0
000003F0
ENDCHAR
STARTCHAR 005D
ENCODING 93
SWIDTH 275 0
DWIDTH 26 0
BBX 18 89 2 -20
BITMAP
FFFFC0
FFFFC0
FFFFC0
FFFFC0
FFFFC0
FFFFC0
FFFFC0
003FC0
003FC0
003FC0
003FC0
003FC0
003FC0
003FC0
003FC0
003FC0
003FC0
003FC0
003FC0
003FC0
003FC0
003FC0
003FC0
003FC0
003FC0
003FC0
003FC0
003FC0
003FC0
003FC0
003FC0
003FC0
003FC0
003FC0
003FC0
003FC0
003FC0
003FC0
003FC0
003FC0
003FC0
003FC0
003FC0
003FC0
003FC0
003FC0
003FC0
003FC0
003FC0
003FC0
003FC0
003FC0
003FC0
003FC0
003FC0
003FC0
003FC0
003FC0
003FC0
003FC0
003FC0
003FC0
003FC0
003FC0
003FC0
003FC0
003FC0
003FC0
003FC0
003FC0
003FC0
003FC0
003FC0
003FC0
003FC0
003FC0
003FC0
003FC0
003FC0
003FC0
003FC0
003FC0
FFFFC0
FFFFC0
FFFFC0
FFFFC0
FFFFC0
FFFFC0
FFFFC0
ENDCHAR
STARTCHAR 005E
ENCODING 94
SWIDTH 465 0
DWIDTH 44 0
BBX 36 36 4 31
BITMAP
0003FC0000
0003FC0000
0003FE0000
0007FE0000
0007FE0000
000FFF0000
000FFF0000
000FFF8000
001FFF8000
001F9F8000
003F9FC000
003F8FC000
003F0FE000
007F0FE000
007E07E000
00FE07F000
00FC03F000
00FC03F800
01FC01F800
01F801F800
03F801FC00
03F000FC00
03F000FE00
07F0007E00
07E0007E00
0FE0007F00
0FC0003F00
0FC0003F80
1FC0001F80
1F80001FC0
3F80001FC0
3F00000FC0
3F00000FE0
7F000007E0
7E000007F0
FE000007F0
ENDCHAR
STARTCHAR 005F
ENCODING 95
SWIDTH 561 0
DWIDTH 53 0
BBX 57 5 -2 -17
BITMAP
FFFFFFFFFFFFFF80
FFFFFFFFFFFFFF80
FFFFFFFFFFFFFF80
FFFFFFFFFFFFFF80
FFFFFFFFFFFFFF80
ENDCHAR
STARTCHAR 0060
ENCODING 96
SWIDTH 328 0
DWIDTH 31 0
BBX 19 14 3 56
BITMAP
FFC000
7FE000
3FE000
1FF000
0FF800
07F800
03FC00
01FE00
00FE00
007F00
003F80
001F80
000FC0
0007E0
ENDCHAR
STARTCHAR 0061
ENCODING 97
SWIDTH 561 0
DWIDTH 53 0
BBX 47 53 4 -2
BITMAP
0000FFF00000
000FFFFF0000
003FFFFFC000
00FFFFFFF000
01FFFFFFF800
03FFFFFFFC00
07FFFFFFFE00
0FFFC07FFE00
0FFE0007FF00
1FF80003FF00
1FF00001FF00
1FE00000FF00
1FE00000FF80
3FE000007F80
3FC000007F80
3FC000007F80
000000007F80
000000007F80
00000000FF80
00000000FF80
00000001FF80
0000000FFF80
000003FFFF80
0001FFFFFF80
001FFFFFFF80
00FFFFFFFF80
03FFFFFFFF80
07FFFFFC7F80
0FFFFF807F80
1FFFC0007F80
3FFC00007F80
7FF000007F80
7FE000007F80
7FC000007F80
FF8000007F80
FF8000007F80
FF0000007F80
FF0000007F80
FF000000FF80
FF000000FF80
FF800001FF80
FF800003FF80
FF800007FF80
7FC0001FFF80
7FE0003FFF80
3FFC01FFFFC0
3FFFFFFF7FFE
1FFFFFFE7FFE
0FFFFFFC3FFE
07FFFFF03FFE
03FFFFC01FFE
00FFFF000FFE
001FF80003F8
ENDCHAR
STARTCHAR 0062
ENCODING 98
SWIDTH 561 0
DWIDTH 53 0
BBX 44 71 5 -2
BITMAP
FF0000000000
FF0000000000
FF0000000000
FF0000000000
FF0000000000
FF0000000000
FF0000000000
FF0000000000
FF0000000000
FF0000000000
FF0000000000
FF0000000000
FF0000000000
FF0000000000
FF0000000000
FF0000000000
FF0000000000
FF0000000000
FF003FF00000
FF01FFFE0000
FF03FFFFC000
FF0FFFFFE000
FF1FFFFFF000
FF3FFFFFF800
FF7FFFFFFC00
FFFFF9FFFE00
FFFF001FFF00
FFFE0007FF80
FFFC0003FF80
FFF80001FFC0
FFF00000FFC0
FFE000007FC0
FFE000007FE0
FFC000003FE0
FFC000003FE0
FF8000001FF0
FF8000001FF0
FF8000001FF0
FF8000000FF0
FF0000000FF0
FF0000000FF0
FF0000000FF0
FF0000000FF0
FF0000000FF0
FF0000000FF0
FF0000000FF0
FF0000000FF0
FF0000000FF0
FF0000000FF0
FF0000000FF0
FF8000000FF0
FF8000001FF0
FF8000001FF0
FF8000001FE0
FFC000003FE0
FFC000003FE0
FFE000007FC0
FFE000007FC0
FFF00000FFC0
FFF80001FF80
FFFC0003FF80
FFFE0007FF00
FFFF801FFE00
FEFFF9FFFE00
FE7FFFFFFC00
FE7FFFFFF800
FE3FFFFFF000
FE0FFFFFC000
FE07FFFF8000
0001FFFE0000
00003FF00000
ENDCHAR
STARTCHAR 0063
ENCODING 99
SWIDTH 497 0
DWIDTH 47 0
BBX 42 53 3 -2
BITMAP
00007FE00000
0003FFFC0000
000FFFFF8000
003FFFFFC000
007FFFFFF000
00FFFFFFF800
01FFFFFFFC00
03FFF0FFFC00
07FF001FFE00
0FFE0007FE00
0FF80003FF00
1FF80001FF00
1FF00000FF80
3FE00000FF80
3FE000007F80
3FC000007F80
7FC000007F80
7F8000007F80
7F8000000000
7F8000000000
FF8000000000
FF8000000000
FF0000000000
FF0000000000
FF0000000000
FF0000000000
FF0000000000
FF0000000000
FF0000000000
FF0000000000
FF0000000000
FF0000000000
FF8000000000
FF8000000000
7F8000003FC0
7F8000003FC0
7FC000003FC0
7FC000007FC0
3FE000007F80
3FE00000FF80
3FF00000FF80
1FF80001FF00
1FF80003FF00
0FFE0007FE00
07FF000FFE00
07FFF07FFC00
03FFFFFFF800
01FFFFFFF000
00FFFFFFE000
003FFFFFC000
001FFFFF0000
0007FFFC0000
00007FE00000
ENDCHAR
STARTCHAR 0064
ENCODING 100
SWIDTH 561 0
DWIDTH 53 0
BBX 45 71 2 -2
BITMAP
0000000007F8
0000000007F8
0000000007F8
0000000007F8
0000000007F8
0000000007F8
0000000007F8
0000000007F8
0000000007F8
0000000007F8
0000000007F8
0000000007F8
0000000007F8
0000000007F8
0000000007F8
0000000007F8
0000000007F8
0000000007F8
00007FE007F8
0003FFFC07F8
000FFFFF07F8
003FFFFF87F8
007FFFFFC7F8
00FFFFFFE7F8
01FFFFFFF7F8
03FFFCFFFFF8
07FFC00FFFF8
07FF0003FFF8
0FFE0001FFF8
0FFC0000FFF8
1FF800007FF8
1FF000003FF8
3FE000003FF8
3FE000001FF8
3FE000001FF8
7FC000000FF8
7FC000000FF8
7FC000000FF8
7F8000000FF8
7F80000007F8
7F80000007F8
7F80000007F8
7F80000007F8
FF80000007F8
FF80000007F8
FF80000007F8
7F80000007F8
7F80000007F8
7F80000007F8
7F80000007F8
7F8000000FF8
7FC000000FF8
7FC000000FF8
7FC000000FF8
3FE000001FF8
3FE000001FF8
3FF000003FF8
1FF000003FF8
1FF800007FF8
0FFC0000FFF8
0FFE0001FFF8
07FF0003FFF8
07FFC00FFFF8
03FFFCFFFBF8
01FFFFFFF3F8
00FFFFFFE3F8
007FFFFFC3F8
003FFFFF83F8
000FFFFF03F8
0003FFFC0000
00007FE00000
ENDCHAR
STARTCHAR 0065
ENCODING 101
SWIDTH 561 0
DWIDTH 53 0
BBX 44 53 4 -2
BITMAP
00003FF00000
0003FFFE0000
000FFFFF8000
003FFFFFE000
007FFFFFF000
00FFFFFFF800
01FFFFFFFC00
03FFF0FFFE00
07FF800FFF00
0FFE0003FF80
0FF80001FF80
1FF00000FFC0
1FF000007FC0
3FE000003FE0
3FC000003FE0
3FC000001FE0
7F8000001FE0
7F8000001FF0
7F8000000FF0
7F8000000FF0
FF0000000FF0
FF0000000FF0
FF0000000FF0
FFFFFFFFFFF0
FFFFFFFFFFF0
FFFFFFFFFFF0
FFFFFFFFFFF0
FFFFFFFFFFF0
FFFFFFFFFFF0
FF0000000000
FF0000000000
FF0000000000
FF0000000000
FF0000000000
FF8000000000
7F8000000000
7F8000001FE0
7FC000001FE0
3FC000003FE0
3FE000003FE0
3FE000007FC0
1FF000007FC0
1FF80000FF80
0FFE0003FF80
07FF8007FF00
07FFF87FFE00
03FFFFFFFC00
01FFFFFFF800
00FFFFFFF000
003FFFFFE000
001FFFFF8000
0003FFFE0000
00007FE00000
ENDCHAR
STARTCHAR 0066
ENCODING 102
SWIDTH 275 0
DWIDTH 26 0
BBX 22 69 2 0
BITMAP
0003FC
001FFC
003FFC
007FFC
00FFFC
00FFFC
01FFFC
01FF80
01FE00
03FE00
03FC00
03FC00
03FC00
03FC00
03FC00
03FC00
03FC00
03FC00
03FC00
03FC00
FFFFFC
FFFFFC
FFFFFC
FFFFFC
FFFFFC
FFFFFC
03FC00
03FC00
03FC00
03FC00
03FC00
03FC00
03FC00
03FC00
03FC00
03FC00
03FC00
03FC00
03FC00
03FC00
03FC00
03FC00
03FC00
03FC00
03FC00
03FC00
03FC00
03FC00
03FC00
03FC00
03FC00
03FC00
03FC00
03FC00
03FC00
03FC00
03FC00
03FC00
03FC00
03FC00
03FC00
03FC00
03FC00
03FC00
03FC00
03FC00
03FC00
03FC00
03FC00
ENDCHAR
STARTCHAR 0067
ENCODING 103
SWIDTH 561 0
DWIDTH 53 0
BBX 42 72 3 -21
BITMAP
0000FF800000
0003FFF00000
000FFFF81FC0
003FFFFE1FC0
007FFFFF1FC0
00FFFFFF9FC0
01FFFFFF9FC0
03FFE1FFDFC0
07FF001FFFC0
07FE000FFFC0
0FF80003FFC0
0FF80003FFC0
1FF00001FFC0
1FE00000FFC0
3FE00000FFC0
3FC000007FC0
3FC000007FC0
7FC000007FC0
7F8000003FC0
7F8000003FC0
7F8000003FC0
7F8000003FC0
7F8000003FC0
FF8000003FC0
FF8000003FC0
FF8000003FC0
FF8000003FC0
FF8000003FC0
FF8000003FC0
FF8000003FC0
FF8000003FC0
7F8000003FC0
7F8000003FC0
7F8000003FC0
7F8000003FC0
7FC000007FC0
7FC000007FC0
3FC000007FC0
3FE00000FFC0
3FE00000FFC0
1FF00001FFC0
1FF80003FFC0
0FF80003FFC0
0FFE000FFFC0
07FF001FFFC0
03FFE0FFBFC0
01FFFFFFBFC0
00FFFFFF3FC0
007FFFFE3FC0
003FFFFC3FC0
001FFFF03FC0
0007FFE03FC0
0000FF003FC0
000000003FC0
000000003FC0
000000003FC0
000000007F80
3FC000007F80
3FC000007F80
3FE00000FF00
1FE00000FF00
1FF00001FF00
1FF80003FE00
0FFC000FFC00
07FF803FFC00
07FFFFFFF800
03FFFFFFF000
01FFFFFFE000
007FFFFF8000
001FFFFF0000
0007FFF80000
00001C000000
ENDCHAR
STARTCHAR 0068
ENCODING 104
SWIDTH 561 0
DWIDTH 53 0
BBX 39 69 7 0
BITMAP
FE00000000
FE00000000
FE00000000
FE00000000
FE00000000
FE00000000
FE00000000
FE00000000
FE00000000
FE00000000
FE00000000
FE00000000
FE00000000
FE00000000
FE00000000
FE00000000
FE00000000
FE00000000
FE003FF000
FE01FFFE00
FE07FFFF80
FE0FFFFFE0
FE1FFFFFF0
FE3FFFFFF0
FE7FFFFFF8
FEFF807FFC
FFFE001FFC
FFF8000FFC
FFF00007FE
FFE00003FE
FFC00003FE
FFC00001FE
FF800001FE
FF800001FE
FF800001FE
FF000001FE
FF000001FE
FF000001FE
FF000001FE
FF000001FE
FE000001FE
FE000001FE
FE000001FE
FE000001FE
FE000001FE
FE000001FE
FE000001FE
FE000001FE
FE000001FE
FE000001FE
FE000001FE
FE000001FE
FE000001FE
FE000001FE
FE000001FE
FE000001FE
FE000001FE
FE000001FE
FE000001FE
FE000001FE
FE000001FE
FE000001FE
FE000001FE
FE000001FE
FE000001FE
FE000001FE
FE000001FE
FE000001FE
FE000001FE
ENDCHAR
STARTCHAR 0069
ENCODING 105
SWIDTH 222 0
DWIDTH 21 0
BBX 8 69 6 0
BITMAP
FF
FF
FF
FF
FF
FF
FF
FF
FF
FF
00
00
00
00
00
00
00
00
00
00
FF
FF
FF
FF
FF
FF
FF
FF
FF
FF
FF
FF
FF
FF
FF
FF
FF
FF
FF
FF
FF
FF
FF
FF
FF
FF
FF
FF
FF
FF
FF
FF
FF
FF
FF
FF
FF
FF
FF
FF
FF
FF
FF
FF
FF
FF
FF
FF
FF
ENDCHAR
STARTCHAR 006A
ENCODING 106
SWIDTH 222 0
DWIDTH 21 0
BBX 16 90 -2 -21
BITMAP
007F
007F
007F
007F
007F
007F
007F
007F
007F
007F
0000
0000
0000
0000
0000
0000
0000
0000
0000
0000
007F
007F
007F
007F
007F
007F
007F
007F
007F
007F
007F
007F
007F
007F
007F
007F
007F
007F
007F
007F
007F
007F
007F
007F
007F
007F
007F
007F
007F
007F
007F
007F
007F
007F
007F
007F
007F
007F
007F
007F
007F
007F
007F
007F
007F
007F
007F
007F
007F
007F
007F
007F
007F
007F
007F
007F
007F
007F
007F
00FF
00FF
01FF
03FF
FFFF
FFFE
FFFE
FFFC
FFF8
FFE0
FE00
ENDCHAR
STARTCHAR 006B
ENCODING 107
SWIDTH 497 0
DWIDTH 47 0
BBX 42 69 5 0
BITMAP
FF0000000000
FF0000000000
FF0000000000
FF0000000000
FF0000000000
FF0000000000
FF0000000000
FF0000000000
FF0000000000
FF0000000000
FF0000000000
FF0000000000
FF0000000000
FF0000000000
FF0000000000
FF0000000000
FF0000000000
FF0000000000
FF0000000000
FF0000000000
FF000007FE00
FF00000FFC00
FF00001FF800
FF00003FF000
FF00007FE000
FF0000FFC000
FF0001FF8000
FF0003FF0000
FF0007FE0000
FF000FFC0000
FF001FF80000
FF003FF00000
FF007FE00000
FF00FFC00000
FF01FF800000
FF03FF000000
FF07FE000000
FF0FFE000000
FF1FFE000000
FF3FFF000000
FF7FFF000000
FFFFFF800000
FFFFFFC00000
FFFE7FC00000
FFFC7FE00000
FFF83FF00000
FFF03FF00000
FFE01FF80000
FFC00FF80000
FF800FFC0000
FF0007FE0000
FF0003FE0000
FF0003FF0000
FF0001FF8000
FF0000FF8000
FF0000FFC000
FF00007FE000
FF00007FE000
FF00003FF000
FF00001FF000
FF00001FF800
FF00000FFC00
FF000007FC00
FF000007FE00
FF000003FF00
FF000003FF00
FF000001FF80
FF000000FF80
FF000000FFC0
ENDCHAR
STARTCHAR 006C
ENCODING 108
SWIDTH 222 0
DWIDTH 21 0
BBX 8 69 6 0
BITMAP
FF
FF
FF
FF
FF
FF
FF
FF
FF
FF
FF
FF
FF
FF
FF
FF
FF
FF
FF
FF
FF
FF
FF
FF
FF
FF
FF
FF
FF
FF
FF
FF
FF
FF
FF
FF
FF
FF
FF
FF
FF
FF
FF
FF
FF
FF
FF
FF
FF
FF
FF
FF
FF
FF
FF
FF
FF
FF
FF
FF
FF
FF
FF
FF
FF
FF
FF
FF
FF
ENDCHAR
STARTCHAR 006D
ENCODING 109
SWIDTH 836 0
DWIDTH 79 0
BBX 65 51 7 0
BITMAP
00001FE00003FE0000
0000FFFC001FFFC000
FE03FFFE007FFFF000
FE0FFFFF00FFFFF800
FE1FFFFF83FFFFFC00
FE3FFFFFC7FFFFFE00
FE7FFFFFEFFFFFFE00
FEFF01FFFFF01FFF00
FFFC007FFFC007FF00
FFF0003FFF8001FF80
FFE0001FFF0001FF80
FFC0001FFE0000FF80
FFC0000FFC0000FF80
FF80000FFC00007F80
FF80000FF800007F80
FF00000FF800007F80
FF00000FF800007F80
FF00000FF000007F80
FF00000FF000007F80
FF00000FF000007F80
FF00000FF000007F80
FF00000FF000007F80
FF00000FF000007F80
FF00000FF000007F80
FF00000FF000007F80
FF00000FF000007F80
FF00000FF000007F80
FF00000FF000007F80
FF00000FF000007F80
FF00000FF000007F80
FF00000FF000007F80
FF00000FF000007F80
FF00000FF000007F80
FF00000FF000007F80
FF00000FF000007F80
FF00000FF000007F80
FF00000FF000007F80
FF00000FF000007F80
FF00000FF000007F80
FF00000FF000007F80
FF00000FF000007F80
FF00000FF000007F80
FF00000FF000007F80
FF00000FF000007F80
FF00000FF000007F80
FF00000FF000007F80
FF00000FF000007F80
FF00000FF000007F80
FF00000FF000007F80
FF00000FF000007F80
FF00000FF000007F80
ENDCHAR
STARTCHAR 006E
ENCODING 110
SWIDTH 561 0
DWIDTH 53 0
BBX 39 51 7 0
BITMAP
00000FF000
00007FFE00
FE01FFFF80
FE07FFFFE0
FE0FFFFFF0
FE1FFFFFF8
FE3FFFFFF8
FE7F807FFC
FEFE001FFC
FFF8000FFC
FFF00007FE
FFE00003FE
FFE00003FE
FFC00001FE
FF800001FE
FF800001FE
FF800001FE
FF000001FE
FF000001FE
FF000001FE
FF000001FE
FF000001FE
FF000001FE
FF000001FE
FF000001FE
FF000001FE
FF000001FE
FF000001FE
FF000001FE
FF000001FE
FF000001FE
FF000001FE
FF000001FE
FF000001FE
FF000001FE
FF000001FE
FF000001FE
FF000001FE
FF000001FE
FF000001FE
FF000001FE
FF000001FE
FF000001FE
FF000001FE
FF000001FE
FF000001FE
FF000001FE
FF000001FE
FF000001FE
FF000001FE
FF000001FE
ENDCHAR
STARTCHAR 006F
ENCODING 111
SWIDTH 561 0
DWIDTH 53 0
BBX 45 53 3 -2
BITMAP
00003FF00000
0003FFFF0000
000FFFFFC000
003FFFFFF000
007FFFFFF800
00FFFFFFFC00
01FFFFFFFE00
03FFF87FFF00
07FF800FFF00
07FE0003FF80
0FFC0001FFC0
0FF80000FFC0
1FF000007FE0
1FF000003FE0
3FE000003FE0
3FE000001FF0
3FC000001FF0
7FC000000FF0
7FC000000FF0
7F8000000FF8
7F8000000FF8
7F80000007F8
7F80000007F8
7F80000007F8
FF80000007F8
FF80000007F8
FF80000007F8
FF80000007F8
FF80000007F8
7F80000007F8
7F80000007F8
7F80000007F8
7F8000000FF8
7F8000000FF8
7FC000000FF0
7FC000000FF0
3FC000001FF0
3FE000001FF0
3FE000001FE0
1FF000003FE0
1FF000007FE0
1FF80000FFC0
0FFC0000FFC0
07FE0003FF80
07FF8007FF00
03FFF87FFF00
01FFFFFFFE00
00FFFFFFFC00
007FFFFFF800
003FFFFFE000
000FFFFFC000
0003FFFE0000
00007FF00000
ENDCHAR
STARTCHAR 0070
ENCODING 112
SWIDTH 561 0
DWIDTH 53 0
BBX 44 71 5 -20
BITMAP
00000FF00000
00007FFE0000
FE01FFFF8000
FE07FFFFE000
FE0FFFFFF000
FE1FFFFFF800
FE3FFFFFFC00
FE7FF9FFFE00
FEFF801FFF00
FFFE0007FF00
FFFC0003FF80
FFF80001FF80
FFF00000FFC0
FFE000007FC0
FFE000007FE0
FFC000003FE0
FFC000003FE0
FF8000001FE0
FF8000001FF0
FF8000001FF0
FF8000000FF0
FF0000000FF0
FF0000000FF0
FF0000000FF0
FF0000000FF0
FF0000000FF0
FF0000000FF0
FF0000000FF0
FF0000000FF0
FF0000000FF0
FF0000000FF0
FF0000000FF0
FF8000000FF0
FF8000001FF0
FF8000001FF0
FF8000001FE0
FFC000003FE0
FFC000003FE0
FFE000003FE0
FFE000007FC0
FFF00000FFC0
FFF80001FF80
FFFC0003FF80
FFFE0007FF00
FFFF801FFF00
FFFFF9FFFE00
FF7FFFFFFC00
FF3FFFFFF800
FF1FFFFFF000
FF0FFFFFE000
FF07FFFF8000
FF01FFFE0000
FF003FF00000
FF0000000000
FF0000000000
FF0000000000
FF0000000000
FF0000000000
FF0000000000
FF0000000000
FF0000000000
FF0000000000
FF0000000000
FF0000000000
FF0000000000
FF0000000000
FF0000000000
FF0000000000
FF0000000000
FF0000000000
FF0000000000
ENDCHAR
STARTCHAR 0071
ENCODING 113
SWIDTH 561 0
DWIDTH 53 0
BBX 45 72 2 -21
BITMAP
00007FE00000
0003FFFC0000
000FFFFF03F8
001FFFFF83F8
007FFFFFC3F8
00FFFFFFE3F8
01FFFFFFF3F8
03FFFCFFFBF8
03FFC00FFFF8
07FF0003FFF8
0FFE0001FFF8
0FFC0000FFF8
1FF800007FF8
1FF000003FF8
1FE000003FF8
3FE000001FF8
3FE000001FF8
3FC000000FF8
7FC000000FF8
7FC000000FF8
7F8000000FF8
7F80000007F8
7F80000007F8
7F80000007F8
7F80000007F8
7F80000007F8
FF80000007F8
FF80000007F8
FF80000007F8
7F80000007F8
7F80000007F8
7F80000007F8
7F8000000FF8
7FC000000FF8
7FC000000FF8
7FC000000FF8
3FE000001FF8
3FE000001FF8
3FF000003FF8
3FF000003FF8
1FF800007FF8
1FFC0000FFF8
0FFE0001FFF8
0FFF0003FFF8
07FFC00FFFF8
03FFFCFFFFF8
03FFFFFFF7F8
01FFFFFFE7F8
00FFFFFFC7F8
003FFFFF87F8
001FFFFF07F8
0007FFFC07F8
00007FC007F8
0000000007F8
0000000007F8
0000000007F8
0000000007F8
0000000007F8
0000000007F8
0000000007F8
0000000007F8
0000000007F8
0000000007F8
0000000007F8
0000000007F8
0000000007F8
0000000007F8
0000000007F8
0000000007F8
0000000007F8
0000000007F8
0000000003F8
ENDCHAR
STARTCHAR 0072
ENCODING 114
SWIDTH 328 0
DWIDTH 31 0
BBX 23 51 7 0
BITMAP
00007E
0001FE
FE07FE
FE0FFE
FE1FFE
FE3FFE
FE3FFE
FE7FFE
FEFFFE
FFFF80
FFFC00
FFF800
FFF000
FFE000
FFC000
FF8000
FF8000
FF8000
FF0000
FF0000
FF0000
FF0000
FF0000
FF0000
FE0000
FE0000
FE0000
FE0000
FE0000
FE0000
FE0000
FE0000
FE0000
FE0000
FE0000
FE0000
FE0000
FE0000
FE0000
FE0000
FE0000
FE0000
FE0000
FE0000
FE0000
FE0000
FE0000
FE0000
FE0000
FE0000
FE0000
ENDCHAR
STARTCHAR 0073
ENCODING 115
SWIDTH 497 0
DWIDTH 47 0
BBX 40 53 3 -2
BITMAP
0001FFC000
000FFFFC00
007FFFFF00
00FFFFFF80
03FFFFFFC0
07FFFFFFE0
0FFFFFFFF0
0FFF81FFF8
1FFC003FF8
1FF0000FF8
3FE00007FC
3FC00007FC
3FC00003FC
3FC00003FC
7FC00003FC
7FC0000000
7FC0000000
3FC0000000
3FE0000000
3FF8000000
3FFE000000
1FFFC00000
1FFFFC0000
0FFFFFC000
07FFFFFC00
01FFFFFF00
007FFFFFC0
001FFFFFF0
0003FFFFF8
00003FFFFC
000003FFFE
0000003FFE
0000000FFF
00000003FF
00000001FF
00000000FF
FF800000FF
FF800000FF
FF800000FF
7F800000FF
7FC00000FF
7FC00001FF
7FE00003FE
3FF00007FE
3FFC001FFE
1FFFC0FFFC
1FFFFFFFF8
0FFFFFFFF0
07FFFFFFE0
03FFFFFFC0
00FFFFFF00
003FFFFC00
0003FFC000
ENDCHAR
STARTCHAR 0074
ENCODING 116
SWIDTH 275 0
DWIDTH 26 0
BBX 23 65 1 -2
BITMAP
01FE00
01FE00
01FE00
01FE00
01FE00
01FE00
01FE00
01FE00
01FE00
01FE00
01FE00
01FE00
01FE00
01FE00
FFFFFE
FFFFFE
FFFFFE
FFFFFE
FFFFFE
FFFFFE
01FE00
01FE00
01FE00
01FE00
01FE00
01FE00
01FE00
01FE00
01FE00
01FE00
01FE00
01FE00
01FE00
01FE00
01FE00
01FE00
01FE00
01FE00
01FE00
01FE00
01FE00
01FE00
01FE00
01FE00
01FE00
01FE00
01FE00
01FE00
01FE00
01FE00
01FE00
01FE00
01FE00
01FE00
01FE00
01FE00
01FE00
01FF00
01FFFE
01FFFE
00FFFE
00FFFE
007FFE
003FFE
000FFC
ENDCHAR
STARTCHAR 0075
ENCODING 117
SWIDTH 561 0
DWIDTH 53 0
BBX 40 51 6 -2
BITMAP
FF000000FF
FF000000FF
FF000000FF
FF000000FF
FF000000FF
FF000000FF
FF000000FF
FF000000FF
FF000000FF
FF000000FF
FF000000FF
FF000000FF
FF000000FF
FF000000FF
FF000000FF
FF000000FF
FF000000FF
FF000000FF
FF000000FF
FF000000FF
FF000000FF
FF000000FF
FF000000FF
FF000000FF
FF000000FF
FF000000FF
FF000000FF
FF000000FF
FF000000FF
FF000000FF
FF000000FF
FF000001FF
FF000001FF
FF000001FF
FF000001FF
FF000003FF
FF000003FF
FF000007FF
FF800007FF
FF80000FFF
FFC0001FFF
7FE0003FFF
7FF0007FFF
7FFC03FEFF
3FFFFFFEFF
1FFFFFFCFF
1FFFFFF8FF
07FFFFE0FF
03FFFFC0FF
00FFFF0000
001FF80000
ENDCHAR
STARTCHAR 0076
ENCODING 118
SWIDTH 497 0
DWIDTH 47 0
BBX 45 49 1 0
BITMAP
FF8000000FF8
FF8000001FF0
7FC000001FF0
7FC000001FF0
3FC000003FE0
3FE000003FE0
3FE000003FC0
1FE000007FC0
1FF000007FC0
1FF000007F80
0FF00000FF80
0FF80000FF00
0FF80000FF00
07F80001FF00
07FC0001FE00
07FC0001FE00
03FC0003FC00
03FE0003FC00
03FE0003FC00
01FE0007F800
01FF0007F800
00FF000FF800
00FF000FF000
00FF800FF000
007F801FE000
007F801FE000
007FC01FE000
003FC03FC000
003FC03FC000
003FE03F8000
001FE07F8000
001FE07F8000
001FF07F0000
000FF0FF0000
000FF0FF0000
0007F8FE0000
0007F9FE0000
0007F9FC0000
0003FFFC0000
0003FFFC0000
0003FFF80000
0001FFF80000
0001FFF00000
0001FFF00000
0000FFF00000
0000FFE00000
0000FFE00000
00007FC00000
00007FC00000
ENDCHAR
STARTCHAR 0077
ENCODING 119
SWIDTH 720 0
DWIDTH 68 0
BBX 66 49 1 0
BITMAP
FF00000FFC00007FC0
FF80001FFC00007F80
FF80001FFC0000FF80
7F80001FFC0000FF80
7F80001FFE0000FF80
7FC0003FFE0000FF00
7FC0003FFE0001FF00
3FC0003FFE0001FF00
3FE0003FFF0001FE00
3FE0007FFF0001FE00
1FE0007FFF0003FE00
1FE0007F7F0003FC00
1FF0007F7F8003FC00
1FF000FF7F8003FC00
0FF000FE7F8007FC00
0FF000FE3F8007F800
0FF800FE3FC007F800
07F801FE3FC00FF800
07F801FC3FC00FF000
07F801FC1FC00FF000
03FC01FC1FE00FF000
03FC03FC1FE01FE000
03FC03F81FE01FE000
03FC03F80FE01FE000
01FE03F80FF01FE000
01FE07F80FF03FC000
01FE07F00FF03FC000
00FF07F007F03FC000
00FF07F007F83F8000
00FF0FF007F87F8000
00FF0FE003F87F8000
007F8FE003F87F8000
007F8FE003FC7F0000
007F8FE003FCFF0000
003F9FC001FCFF0000
003FDFC001FCFE0000
003FDFC001FEFE0000
001FDFC001FFFE0000
001FFF8000FFFC0000
001FFF8000FFFC0000
001FFF8000FFFC0000
000FFF8000FFFC0000
000FFF00007FF80000
000FFF00007FF80000
0007FF00007FF80000
0007FF00007FF00000
0007FE00003FF00000
0007FE00003FF00000
0003FE00003FE00000
ENDCHAR
STARTCHAR 0078
ENCODING 120
SWIDTH 497 0
DWIDTH 47 0
BBX 42 49 2 0
BITMAP
7FC000007FC0
3FE00000FF80
3FE00000FF00
1FF00001FF00
0FF80003FE00
0FF80003FC00
07FC0007FC00
03FE000FF800
03FE000FF000
01FF001FF000
00FF803FE000
00FF803FC000
007FC07F8000
003FE0FF8000
003FE0FF0000
001FF1FE0000
000FFBFE0000
0007FBFC0000
0007FFF80000
0003FFF00000
0001FFF00000
0001FFE00000
0000FFC00000
00007FC00000
00007FC00000
0000FFE00000
0001FFE00000
0001FFF00000
0003FFF80000
0007FFFC0000
0007FFFC0000
000FF3FE0000
001FF1FF0000
003FE1FF0000
003FC0FF8000
007FC07FC000
00FF807FC000
00FF003FE000
01FF001FF000
03FE001FF000
03FC000FF800
07FC0007FC00
0FF80007FC00
1FF00003FE00
1FF00001FF00
3FE00001FF00
7FC00000FF80
7FC000007FC0
FF8000007FC0
ENDCHAR
STARTCHAR 0079
ENCODING 121
SWIDTH 497 0
DWIDTH 47 0
BBX 43 70 2 -21
BITMAP
FF0000003FE0
FF8000003FE0
7F8000003FC0
7F8000007FC0
7FC000007F80
3FC000007F80
3FC00000FF80
3FE00000FF00
1FE00000FF00
1FE00001FF00
1FF00001FE00
0FF00001FE00
0FF00003FE00
0FF80003FC00
07F80007FC00
07F80007F800
07FC0007F800
03FC000FF800
03FC000FF000
03FE000FF000
01FE001FF000
01FE001FE000
01FF001FE000
00FF003FC000
00FF003FC000
00FF803FC000
007F807F8000
007F807F8000
003FC0FF8000
003FC0FF0000
003FC0FF0000
001FE1FE0000
001FE1FE0000
001FE1FE0000
000FF3FC0000
000FF3FC0000
000FF3FC0000
0007FFF80000
0007FFF80000
0007FFF80000
0003FFF00000
0003FFF00000
0003FFE00000
0001FFE00000
0001FFE00000
0001FFC00000
0000FFC00000
0000FFC00000
0000FF800000
00007F800000
0000FF000000
0000FF000000
0001FF000000
0001FE000000
0001FE000000
0003FE000000
0003FC000000
0007FC000000
0007FC000000
000FF8000000
000FF8000000
003FF0000000
1FFFF0000000
1FFFE0000000
1FFFE0000000
1FFFC0000000
1FFF80000000
1FFF00000000
1FFC00000000
03E000000000
ENDCHAR
STARTCHAR 007A
ENCODING 122
SWIDTH 497 0
DWIDTH 47 0
BBX 40 49 3 0
BITMAP
3FFFFFFFFE
3FFFFFFFFE
3FFFFFFFFE
3FFFFFFFFE
3FFFFFFFFE
3FFFFFFFFE
3FFFFFFFFE
00000007FC
0000000FFC
0000001FF8
0000003FF0
0000003FE0
0000007FC0
000000FF80
000001FF80
000003FF00
000007FE00
000007FC00
00000FF800
00001FF000
00003FF000
00007FE000
0000FFC000
0001FF8000
0001FF0000
0003FE0000
0007FE0000
000FFC0000
001FF80000
003FF00000
003FE00000
007FC00000
00FF800000
01FF800000
03FF000000
07FE000000
07FC000000
0FF8000000
1FF0000000
3FF0000000
7FE0000000
FFC0000000
FFFFFFFFFF
FFFFFFFFFF
FFFFFFFFFF
FFFFFFFFFF
FFFFFFFFFF
FFFFFFFFFF
FFFFFFFFFF
ENDCHAR
STARTCHAR 007B
ENCODING 123
SWIDTH 338 0
DWIDTH 32 0
BBX 22 89 4 -20
BITMAP
0001FC
000FFC
001FFC
003FFC
007FFC
007FFC
00FFC0
00FF00
00FE00
00FE00
00FE00
01FE00
01FE00
01FE00
01FE00
01FE00
01FE00
01FE00
01FE00
01FE00
01FE00
01FE00
01FE00
01FE00
01FE00
01FE00
01FE00
01FE00
01FE00
01FE00
01FE00
01FE00
01FE00
01FE00
01FC00
01FC00
03FC00
03FC00
07F800
0FF800
3FF000
FFE000
FFC000
FF8000
FE0000
FF8000
FFC000
FFE000
1FF000
0FF800
07F800
03FC00
03FC00
01FC00
01FC00
01FC00
01FE00
01FE00
01FE00
01FE00
01FE00
01FE00
01FE00
01FE00
01FE00
01FE00
01FE00
01FE00
01FE00
01FE00
01FE00
01FE00
01FE00
01FE00
01FE00
01FE00
01FE00
01FE00
00FE00
00FE00
00FE00
00FF00
00FFE0
007FFC
007FFC
003FFC
001FFC
000FFC
0001FC
ENDCHAR
STARTCHAR 007C
ENCODING 124
SWIDTH 264 0
DWIDTH 25 0
BBX 6 89 9 -20
BITMAP
FC
FC
FC
FC
FC
FC
FC
FC
FC
FC
FC
FC
FC
FC
FC
FC
FC
FC
FC
FC
FC
FC
FC
FC
FC
FC
FC
FC
FC
FC
FC
FC
FC
FC
FC
FC
FC
FC
FC
FC
FC
FC
FC
FC
FC
FC
FC
FC
FC
FC
FC
FC
FC
FC
FC
FC
FC
FC
FC
FC
FC
FC
FC
FC
FC
FC
FC
FC
FC
FC
FC
FC
FC
FC
FC
FC
FC
FC
FC
FC
FC
FC
FC
FC
FC
FC
FC
FC
FC
ENDCHAR
STARTCHAR 007D
ENCODING 125
SWIDTH 338 0
DWIDTH 32 0
BBX 22 89 3 -20
BITMAP
FF0000
FFC000
FFE000
FFF000
FFF800
FFF800
0FFC00
03FC00
01FC00
01FC00
01FE00
01FE00
01FE00
01FE00
01FE00
01FE00
01FE00
01FE00
01FE00
01FE00
01FE00
01FE00
01FE00
01FE00
01FE00
01FE00
01FE00
01FE00
01FE00
01FE00
01FE00
01FE00
01FE00
00FE00
00FE00
00FE00
00FF00
007F00
007F80
007FC0
003FF0
001FFC
000FFC
0007FC
0001FC
0007FC
000FFC
001FFC
003FE0
007FC0
007F80
007F00
00FF00
00FE00
00FE00
00FE00
01FE00
01FE00
01FE00
01FE00
01FE00
01FE00
01FE00
01FE00
01FE00
01FE00
01FE00
01FE00
01FE00
01FE00
01FE00
01FE00
01FE00
01FE00
01FE00
01FE00
01FE00
01FE00
01FE00
01FC00
01FC00
03FC00
1FFC00
FFF800
FFF800
FFF000
FFE000
FF8000
FE0000
ENDCHAR
STARTCHAR 007E
ENCODING 126
SWIDTH 582 0
DWIDTH 55 0
BBX 41 15 7 26
BITMAP
03FC00000000
07FF00000000
0FFFC0000F80
1FFFE0000F80
3FFFF8000F80
3FFFFE000F80
7F0FFF801F80
7E01FFC01F80
7C00FFF83F00
7C003FFFFF00
F8001FFFFE00
F80007FFFE00
F80001FFFC00
000000FFF800
0000003FE000
ENDCHAR
STARTCHAR 00A0
ENCODING 160
SWIDTH 275 0
DWIDTH 26 0
BBX 0 0 0 0
BITMAP
ENDCHAR
STARTCHAR 00A1
ENCODING 161
SWIDTH 328 0
DWIDTH 31 0
BBX 8 69 11 -20
BITMAP
FF
FF
FF
FF
FF
FF
FF
FF
FF
FF
00
00
00
00
00
00
1C
3C
3E
3E
3E
3E
3E
3E
3E
3E
3E
7E
7F
7F
7F
7F
7F
7F
7F
7F
7F
7F
7F
7F
7F
7F
7F
7F
7F
7F
7F
7F
7F
7F
7F
7F
7F
7F
7F
7F
7F
7F
7F
7F
7F
7F
7F
7F
7F
7F
7F
7F
7F
ENDCHAR
STARTCHAR 00A2
ENCODING 162
SWIDTH 561 0
DWIDTH 53 0
BBX 43 70 5 -11
BITMAP
00000F000000
00000F000000
00000F000000
00000F000000
00000F000000
00000F000000
00000F000000
00000F000000
00001FF00000
0001FFFE0000
0007FFFFC000
001FFFFFE000
007FFFFFF800
00FFFFFFFC00
01FFFFFFFE00
03FFFF7FFE00
07FF8F07FF00
07FE0F03FF80
0FFC0F01FF80
1FF80F00FF80
1FF00F007FC0
1FE00F007FC0
3FE00F003FC0
3FC00F003FC0
7FC00F003FC0
7F800F001FE0
7F800F000000
7F800F000000
FF800F000000
FF800F000000
FF000F000000
FF000F000000
FF000F000000
FF000F000000
FF000F000000
FF000F000000
FF000F000000
FF000F000000
FF000F000000
FF000F000000
FF800F000000
FF800F000000
7F800F001FE0
7F800F001FE0
7FC00F001FE0
7FC00F003FE0
3FE00F003FE0
3FE00F003FC0
1FF00F007FC0
1FF80F007FC0
0FFC0F00FF80
0FFE0F01FF80
07FF0F07FF00
03FFEF1FFE00
03FFFFFFFE00
01FFFFFFFC00
007FFFFFF800
003FFFFFE000
000FFFFFC000
0003FFFF0000
00007FF80000
00000F000000
00000F000000
00000F000000
00000F000000
00000F000000
00000F000000
00000F000000
00000F000000
00000F000000
ENDCHAR
STARTCHAR 00A3
ENCODING 163
SWIDTH 561 0
DWIDTH 53 0
BBX 48 71 2 -2
BITMAP
000007FE0000
00007FFFC000
0001FFFFF000
0007FFFFFC00
001FFFFFFF00
003FFFFFFF80
007FFFFFFFC0
00FFFE1FFFE0
01FFE001FFE0
03FF80007FF0
03FF00003FF0
07FE00001FF8
07FC00000FF8
0FF800000FF8
0FF8000007FC
0FF0000007FC
1FF0000007FC
1FF0000003FC
1FF0000003FC
1FF0000003FC
1FF0000003FC
1FF0000003FC
1FF000000000
1FF800000000
0FF800000000
0FF800000000
0FFC00000000
07FC00000000
07FE00000000
03FE00000000
01FF00000000
01FF80000000
00FF80000000
FFFFFFFF8000
FFFFFFFF8000
FFFFFFFF8000
FFFFFFFF8000
FFFFFFFF8000
001FF0000000
000FF0000000
000FF0000000
000FF8000000
0007F8000000
0007F8000000
0007F8000000
0007F8000000
0007F8000000
0007F8000000
0007F8000000
0007F0000000
000FF0000000
000FF0000000
000FE0000000
001FC0000000
003FC0000000
003F80000000
007F00000000
00FE00000000
01FE00000000
03FC00000000
07F8FFF00018
0FF3FFFF007C
1FEFFFFFFFFC
3FFFFFFFFFFE
7FFFFFFFFFFF
3FFFFFFFFFFF
1FFFFFFFFFFF
0FF00FFFFFFC
0F8000FFFFF8
0600001FFFE0
00000001FF00
ENDCHAR
STARTCHAR 00A4
ENCODING 164
SWIDTH 561 0
DWIDTH 53 0
BBX 39 39 7 13
BITMAP
0800000000
1C00000060
3E000001F0
7F03FF03F8
FF9FFFE7FC
FFFFFFFFFE
7FFFFFFFFE
3FFFFFFFFC
1FFFFFFFF8
0FFFFFFFF0
0FFF03FFE0
0FFC00FFC0
1FF0003FE0
1FE0001FE0
3FE0001FF0
3FC0000FF0
3FC0000FF0
3F800007F0
7F800007F0
7F800007F0
7F800007F0
3F800007F0
3F800007F0
3FC0000FF0
3FC0000FF0
3FE0001FE0
1FF0003FE0
1FF8007FE0
0FFC00FFC0
0FFF87FFC0
1FFFFFFFE0
3FFFFFFFF0
7FFFFFFFF8
FFFFFFFFFC
FFFFFFF7FC
7F8FFFC3F8
3F01FE01F0
1E000000E0
0C00000040
ENDCHAR
STARTCHAR 00A5
ENCODING 165
SWIDTH 561 0
DWIDTH 53 0
BBX 49 67 2 0
BITMAP
FF000000007F80
FF00000000FF00
7F80000000FF00
7F80000001FE00
3FC0000001FE00
3FC0000003FC00
1FE0000003FC00
0FF0000007F800
0FF0000007F000
07F800000FF000
07F800001FE000
03FC00001FE000
03FC00003FC000
01FE00003FC000
00FF00007F8000
00FF00007F0000
007F8000FF0000
007F8000FE0000
003FC001FE0000
003FC003FC0000
001FE003FC0000
000FF007F80000
000FF007F80000
0007F80FF00000
0007F80FE00000
0003FC1FE00000
0001FC1FC00000
0001FE3FC00000
0000FF7F800000
0000FF7F800000
00007FFF000000
00007FFE000000
00003FFE000000
0FFFFFFFFFF800
0FFFFFFFFFF800
0FFFFFFFFFF800
0FFFFFFFFFF800
0FFFFFFFFFF800
00000FF8000000
00000FF8000000
00000FF8000000
00000FF8000000
00000FF8000000
00000FF8000000
00000FF8000000
00000FF8000000
0FFFFFFFFFF800
0FFFFFFFFFF800
0FFFFFFFFFF800
0FFFFFFFFFF800
0FFFFFFFFFF800
00000FF8000000
00000FF8000000
00000FF8000000
00000FF8000000
00000FF8000000
00000FF8000000
00000FF8000000
00000FF8000000
00000FF8000000
00000FF8000000
00000FF8000000
00000FF8000000
00000FF8000000
00000FF8000000
00000FF8000000
00000FF8000000
ENDCHAR
STARTCHAR 00A6
ENCODING 166
SWIDTH 264 0
DWIDTH 25 0
BBX 6 89 9 -20
BITMAP
FC
FC
FC
FC
FC
FC
FC
FC
FC
FC
FC
FC
FC
FC
FC
FC
FC
FC
FC
FC
FC
FC
FC
FC
FC
FC
FC
FC
FC
FC
FC
FC
FC
FC
FC
FC
FC
FC
00
00
00
00
00
00
00
00
00
00
00
00
00
FC
FC
FC
FC
FC
FC
FC
FC
FC
FC
FC
FC
FC
FC
FC
FC
FC
FC
FC
FC
FC
FC
FC
FC
FC
FC
FC
FC
FC
FC
FC
FC
FC
FC
FC
FC
FC
FC
ENDCHAR
STARTCHAR 00A7
ENCODING 167
SWIDTH 561 0
DWIDTH 53 0
BBX 44 89 4 -20
BITMAP
00001FF00000
0000FFFE0000
0003FFFF8000
000FFFFFC000
001FFFFFE000
003FFFFFF000
007FFFFFF800
007FF87FFC00
00FFC00FFC00
01FF8007FC00
01FF0003FE00
01FE0001FE00
03FE0001FE00
03FE0001FF00
03FE0000FF00
03FC0000FF00
03FC0000FF00
03FE0000FF00
03FE0000FF00
03FF0000FF00
01FF00000000
01FFC0000000
00FFE0000000
00FFF0000000
007FFC000000
003FFE000000
007FFF800000
01FFFFE00000
03FFFFF00000
07F9FFFC0000
0FF07FFE0000
1FE03FFF8000
3FC00FFFC000
3F8007FFF000
7F0001FFF800
7F0000FFFC00
7F00003FFE00
FF00001FFF00
FF000007FF80
FF000003FFC0
FF000001FFC0
FF000000FFE0
FF8000007FE0
7F8000003FE0
7FC000001FF0
7FE000001FF0
7FF000000FF0
3FFC00000FF0
1FFE00000FF0
1FFF00000FF0
0FFFC0000FF0
07FFE0000FE0
03FFF8000FE0
01FFFC001FE0
007FFE001FC0
003FFF803FC0
000FFFC07F80
0007FFE0FF80
0001FFF9FF00
0000FFFFFE00
00003FFFF800
00001FFFE000
000007FFC000
000003FFE000
000001FFF000
0000007FF000
0000003FF800
0000001FF800
0000000FFC00
00000007FC00
1FE00007FC00
1FE00003FC00
1FE00003FC00
1FF00003FC00
0FF00003FC00
0FF00003FC00
0FF00003FC00
0FF80007FC00
0FFC000FFC00
07FE000FF800
07FF003FF800
03FFE1FFF000
01FFFFFFE000
01FFFFFFE000
00FFFFFFC000
003FFFFF0000
001FFFFE0000
0007FFF80000
0000FF800000
ENDCHAR
STARTCHAR 00A8
ENCODING 168
SWIDTH 328 0
DWIDTH 31 0
BBX 25 10 3 58
BITMAP
FFC1FF80
FFC1FF80
FFC1FF80
FFC1FF80
FFC1FF80
FFC1FF80
FFC1FF80
FFC1FF80
FFC1FF80
FFC1FF80
ENDCHAR
STARTCHAR 00A9
ENCODING 169
SWIDTH 741 0
DWIDTH 70 0
BBX 72 72 -1 -2
BITMAP
00000003FFC0000000
0000003FFFFC000000
000001FFFFFF800000
00000FFFFFFFE00000
00003FFFFFFFF80000
00007FFFFFFFFE0000
0001FFFC003FFF8000
0003FFC00007FFC000
0007FF000000FFE000
000FFC0000003FF000
003FF00000000FF800
003FE000000007FC00
007F8000000003FE00
00FF0000000000FF00
01FE00007F00007F80
03FC0003FFF0003FC0
03F8000FFFF8003FC0
07F0003FFFFE001FE0
0FF0007FFFFF000FE0
0FE000FFFFFF8007F0
1FC001FF80FF8007F0
1FC003FE003FC003F8
3F8003FC001FC003F8
3F8007F8001FE001FC
3F0007F0000FE001FC
7F000FE00007F000FC
7F000FE00007F000FE
7E001FC00007F000FE
7E001FC00003F0007E
FE001F80000000007E
FE001F80000000007F
FE003F80000000007F
FC003F80000000007F
FC003F80000000007F
FC003F80000000007F
FC003F80000000007F
FC003F80000000007F
FC003F80000000007F
FC003F80000000007F
FC003F80000000007F
FE003F800003F8007F
FE001F800003F8007F
FE001F800003F8007E
7E001FC00003F8007E
7E001FC00003F000FE
7F000FE00007F000FE
7F000FE00007F000FC
3F800FF0000FE001FC
3F8007F8000FE001FC
3F8007FC001FC003F8
1FC003FE003FC003F8
1FE001FF80FF8007F0
0FE000FFFFFF0007F0
0FF0007FFFFF000FE0
07F8003FFFFC001FE0
03F8001FFFF8001FC0
03FC0007FFE0003FC0
01FE0000FF80007F80
00FF0000000000FF00
007F8000000003FE00
003FE000000007FC00
003FF00000000FF800
001FFC0000003FF000
0007FF000000FFE000
0003FFC00003FFC000
0001FFFC003FFF0000
00007FFFFFFFFE0000
00003FFFFFFFF80000
00000FFFFFFFE00000
000001FFFFFF800000
0000007FFFFC000000
00000003FF80000000
ENDCHAR
STARTCHAR 00AA
ENCODING 170
SWIDTH 370 0
DWIDTH 35 0
BBX 28 42 3 28
BITMAP
007FE000
01FFF800
07FFFE00
0FFFFF00
1FFFFF00
1FC07F80
3F801F80
3F000F80
3F000F80
3E000F80
00000F80
00000F80
00001F80
0001FF80
00FFFF80
07FFFF80
0FFFEF80
1FF80F80
3F800F80
7E000F80
7C000F80
7C000F80
7C000F80
FC001F80
7C003F80
7E007F80
7F01FF80
7FFFFFC0
3FFFFFF0
1FFFC7F0
0FFF87F0
01FC03F0
00000000
00000000
00000000
00000000
00000000
7FFFFFE0
7FFFFFE0
7FFFFFE0
7FFFFFE0
7FFFFFE0
ENDCHAR
STARTCHAR 00AB
ENCODING 171
SWIDTH 561 0
DWIDTH 53 0
BBX 34 31 9 10
BITMAP
0002000040
000E0000C0
001E0003C0
003E0007C0
007E000FC0
01FE001FC0
03FE007FC0
07FE00FFC0
0FF801FF80
3FF003FE00
7FE00FFC00
FF800FF800
FF000FF000
FE000FC000
FC000F8000
F8000F0000
FC000F8000
FE000FE000
FF800FF000
FFC00FF800
7FE007FE00
1FF003FF00
0FFC01FF80
07FE007FC0
03FE003FC0
00FE001FC0
007E000FC0
003E0003C0
001E0001C0
00060000C0
0002000040
ENDCHAR
STARTCHAR 00AC
ENCODING 172
SWIDTH 582 0
DWIDTH 55 0
BBX 47 28 4 8
BITMAP
FFFFFFFFFFFE
FFFFFFFFFFFE
FFFFFFFFFFFE
FFFFFFFFFFFE
FFFFFFFFFFFE
FFFFFFFFFFFE
FFFFFFFFFFFE
00000000007E
00000000007E
00000000007E
00000000007E
00000000007E
00000000007E
00000000007E
00000000007E
00000000007E
00000000007E
00000000007E
00000000007E
00000000007E
00000000007E
00000000007E
00000000007E
00000000007E
00000000007E
00000000007E
00000000007E
00000000007E
ENDCHAR
STARTCHAR 00AD
ENCODING 173
SWIDTH 328 0
DWIDTH 31 0
BBX 23 7 4 23
BITMAP
FFFFFE
FFFFFE
FFFFFE
FFFFFE
FFFFFE
FFFFFE
FFFFFE
ENDCHAR
STARTCHAR 00AE
ENCODING 174
SWIDTH 741 0
DWIDTH 70 0
BBX 72 72 -1 -2
BITMAP
00000003FFC0000000
0000003FFFFC000000
000001FFFFFF800000
00000FFFFFFFE00000
00001FFFFFFFF80000
00007FFFFFFFFE0000
0001FFFC003FFF8000
0003FFC00007FFC000
0007FF000000FFE000
000FFC0000003FF000
003FF00000000FF800
003FE000000007FC00
007F8000000003FE00
00FF0000000000FF00
01FE00000000007F80
03FC0FFFFFF8003FC0
03F80FFFFFFF003FC0
07F00FFFFFFF801FE0
0FF00FFFFFFFC00FE0
0FE00FFFFFFFE007F0
1FC00FFFFFFFF007F8
1FC00FE0001FF003F8
3F800FE0000FF003F8
3F800FE00007F801FC
3F000FE00003F801FC
7F000FE00003F800FC
7F000FE00003F800FE
7E000FE00003F800FE
7E000FE00003F8007E
FE000FE00003F8007E
FE000FE00007F0007F
FE000FE0000FF0007F
FC000FE0001FE0007F
FC000FFFFFFFC0007F
FC000FFFFFFF80007F
FC000FFFFFFF00007F
FC000FFFFFFF80007F
FC000FFFFFFFC0007F
FC000FFFFFFFE0007F
FC000FE0003FE0007F
FE000FE0000FF0007F
FE000FE00007F0007E
FE000FE00007F0007E
7E000FE00007F0007E
7F000FE00007F000FE
7F000FE00007F000FE
7F000FE00007F000FC
3F800FE00007F001FC
3F800FE00007F001FC
1FC00FE00007F003F8
1FC00FE00007F003F8
1FE00FE00007F007F0
0FE00FE00003F807F0
0FF00FE00003F80FE0
07F80FE00003FC1FE0
03F80FE00003FC3FC0
03FC0FE00001FC3F80
01FE00000000007F80
00FF0000000000FF00
007FC000000003FE00
003FE000000007FC00
001FF00000000FF800
000FFC0000003FF000
0007FF000000FFE000
0003FFC00007FFC000
0001FFFC003FFF0000
00007FFFFFFFFE0000
00003FFFFFFFF80000
00000FFFFFFFE00000
000001FFFFFF800000
0000007FFFFC000000
00000003FF80000000
ENDCHAR
STARTCHAR 00AF
ENCODING 175
SWIDTH 328 0
DWIDTH 31 0
BBX 26 7 3 59
BITMAP
FFFFFFC0
FFFFFFC0
FFFFFFC0
FFFFFFC0
FFFFFFC0
FFFFFFC0
FFFFFFC0
ENDCHAR
STARTCHAR 00B0
ENCODING 176
SWIDTH 402 0
DWIDTH 38 0
BBX 28 29 5 36
BITMAP
003FC000
00FFF000
03FFFC00
07FFFE00
0FFFFF00
1FF9FF80
3FC03FC0
7F000FC0
7E0007E0
FC0007E0
FC0003F0
F80003F0
F80001F0
F80001F0
F80001F0
F80001F0
F80001F0
F80003F0
FC0003F0
FC0007E0
7E0007E0
7F000FC0
3FC03FC0
1FF9FF80
1FFFFF00
07FFFE00
03FFFC00
01FFF000
003F8000
ENDCHAR
STARTCHAR 00B1
ENCODING 177
SWIDTH 582 0
DWIDTH 55 0
BBX 45 60 5 -1
BITMAP
00001FC00000
00001FC00000
00001FC00000
00001FC00000
00001FC00000
00001FC00000
00001FC00000
00001FC00000
00001FC00000
00001FC00000
00001FC00000
00001FC00000
00001FC00000
00001FC00000
00001FC00000
00001FC00000
00001FC00000
00001FC00000
00001FC00000
FFFFFFFFFFF8
FFFFFFFFFFF8
FFFFFFFFFFF8
FFFFFFFFFFF8
FFFFFFFFFFF8
FFFFFFFFFFF8
FFFFFFFFFFF8
00001FC00000
00001FC00000
00001FC00000
00001FC00000
00001FC00000
00001FC00000
00001FC00000
00001FC00000
00001FC00000
00001FC00000
00001FC00000
00001FC00000
00001FC00000
00001FC00000
00001FC00000
00001FC00000
00001FC00000
00001FC00000
00001FC00000
00001FC00000
000000000000
000000000000
000000000000
000000000000
000000000000
000000000000
000000000000
FFFFFFFFFFF8
FFFFFFFFFFF8
FFFFFFFFFFF8
FFFFFFFFFFF8
FFFFFFFFFFF8
FFFFFFFFFFF8
FFFFFFFFFFF8
ENDCHAR
STARTCHAR 00B2
ENCODING 178
SWIDTH 328 0
DWIDTH 31 0
BBX 29 40 1 27
BITMAP
001FF000
00FFFC00
03FFFF00
07FFFF80
0FFFFFC0
1FF03FE0
1FC00FF0
3F8007F0
3F0003F0
3F0003F8
7E0001F8
7E0001F8
7E0001F8
7E0001F8
000001F8
000003F0
000007F0
00000FE0
00001FE0
00007FC0
0000FF80
0003FF00
000FFC00
003FF800
00FFE000
01FF8000
03FE0000
0FF80000
0FE00000
1FC00000
3F800000
3F000000
7F000000
7E000000
7E000000
FFFFFFF8
FFFFFFF8
FFFFFFF8
FFFFFFF8
FFFFFFF8
ENDCHAR
STARTCHAR 00B3
ENCODING 179
SWIDTH 328 0
DWIDTH 31 0
BBX 29 41 1 26
BITMAP
003FE000
01FFF800
07FFFE00
0FFFFF00
1FFFFF80
3FE07FC0
3F801FC0
7F000FE0
7E0007E0
7E0007E0
7E0007E0
7E0007E0
7C0007E0
000007E0
000007E0
00000FC0
00007F80
001FFF00
001FFE00
001FFE00
001FFF80
001FFFC0
00001FE0
00000FF0
000007F0
000003F0
000003F0
000001F8
FC0001F8
FC0001F8
FC0003F0
FC0003F0
FE0003F0
7E0007F0
7F000FE0
3FC03FC0
3FFFFFC0
1FFFFF80
07FFFE00
03FFF800
007FC000
ENDCHAR
STARTCHAR 00B4
ENCODING 180
SWIDTH 328 0
DWIDTH 31 0
BBX 19 14 9 56
BITMAP
00FFE0
00FFC0
01FF80
03FF00
03FE00
07FC00
07F800
0FF000
1FE000
1FC000
3F8000
7F0000
7E0000
FC0000
ENDCHAR
STARTCHAR 00B5
ENCODING 181
SWIDTH 561 0
DWIDTH 53 0
BBX 45 70 6 -21
BITMAP
FF000000FE00
FF000000FE00
FF000000FE00
FF000000FE00
FF000000FE00
FF000000FE00
FF000000FE00
FF000000FE00
FF000000FE00
FF000000FE00
FF000000FE00
FF000000FE00
FF000000FE00
FF000000FE00
FF000000FE00
FF000000FE00
FF000000FE00
FF000000FE00
FF000000FE00
FF000000FE00
FF000000FE00
FF000000FE00
FF000000FE00
FF000000FE00
FF000000FE00
FF000000FE00
FF000000FE00
FF000000FE00
FF000000FE00
FF000000FE00
FF000001FE00
FF000001FE00
FF000001FE00
FF000001FE00
FF000001FE00
FF000003FE00
FF000003FE00
FF000007FE00
FF800007FE00
FF80000FFE00
FFC0001FFE00
FFE0003FFF00
FFF0007FFF00
FFFC03FFFF80
FFFFFFFEFFF8
FFFFFFFCFFF8
FFFFFFF8FFF8
FFFFFFF07FF8
FFFFFFC07FF8
FF7FFF003FF8
FF0FF8000FF0
FF0000000000
FF0000000000
FF0000000000
FF0000000000
FF0000000000
FF0000000000
FF0000000000
FF0000000000
FF0000000000
FF0000000000
FF0000000000
FF0000000000
FF0000000000
FF0000000000
FF0000000000
FF0000000000
FF0000000000
FF0000000000
FF0000000000
ENDCHAR
STARTCHAR 00B6
ENCODING 182
SWIDTH 540 0
DWIDTH 51 0
BBX 44 86 5 -17
BITMAP
0000FFFFFFF0
0007FFFFFFF0
001FFFFFFFF0
007FFFFFFFF0
00FFFFFFFFF0
01FFFFFFFFF0
03FFFF807E00
07FFFF807E00
0FFFFF807E00
1FFFFF807E00
1FFFFF807E00
3FFFFF807E00
3FFFFF807E00
7FFFFF807E00
7FFFFF807E00
7FFFFF807E00
FFFFFF807E00
FFFFFF807E00
FFFFFF807E00
FFFFFF807E00
FFFFFF807E00
FFFFFF807E00
FFFFFF807E00
FFFFFF807E00
FFFFFF807E00
FFFFFF807E00
FFFFFF807E00
FFFFFF807E00
FFFFFF807E00
FFFFFF807E00
7FFFFF807E00
7FFFFF807E00
3FFFFF807E00
3FFFFF807E00
1FFFFF807E00
1FFFFF807E00
0FFFFF807E00
07FFFF807E00
07FFFF807E00
03FFFF807E00
00FFFF807E00
007FFF807E00
001FFF807E00
0007FF807E00
00001F807E00
00001F807E00
00001F807E00
00001F807E00
00001F807E00
00001F807E00
00001F807E00
00001F807E00
00001F807E00
00001F807E00
00001F807E00
00001F807E00
00001F807E00
00001F807E00
00001F807E00
00001F807E00
00001F807E00
00001F807E00
00001F807E00
00001F807E00
00001F807E00
00001F807E00
00001F807E00
00001F807E00
00001F807E00
00001F807E00
00001F807E00
00001F807E00
00001F807E00
00001F807E00
00001F807E00
00001F807E00
00001F807E00
00001F807E00
00001F807E00
00001F807E00
00001F807E00
00001F807E00
00001F807E00
00001F807E00
00001F807E00
00001F807E00
ENDCHAR
STARTCHAR 00B7
ENCODING 183
SWIDTH 275 0
DWIDTH 26 0
BBX 10 10 10 21
BITMAP
FFC0
FFC0
FFC0
FFC0
FFC0
FFC0
FFC0
FFC0
FFC0
FFC0
ENDCHAR
STARTCHAR 00B8
ENCODING 184
SWIDTH 328 0
DWIDTH 31 0
BBX 23 20 4 -20
BITMAP
001E00
001E00
003C00
003C00
003800
007FE0
007FF8
00FFFC
00FFFE
0001FE
0000FE
0000FE
0000FE
6000FE
7801FE
FE03FC
FFFFF8
7FFFF0
0FFFE0
01FF00
ENDCHAR
STARTCHAR 00B9
ENCODING 185
SWIDTH 328 0
DWIDTH 31 0
BBX 15 40 5 27
BITMAP
001E
001E
003E
003E
007E
007E
01FE
0FFE
FFFE
FFFE
FFFE
FFFE
007E
007E
007E
007E
007E
007E
007E
007E
007E
007E
007E
007E
007E
007E
007E
007E
007E
007E
007E
007E
007E
007E
007E
007E
007E
007E
007E
007E
ENDCHAR
STARTCHAR 00BA
ENCODING 186
SWIDTH 360 0
DWIDTH 34 0
BBX 27 42 4 28
BITMAP
007F8000
01FFF000
07FFF800
0FFFFE00
1FFFFE00
3FC0FF00
3F803F80
7F001F80
7E001FC0
7C000FC0
FC000FC0
FC0007C0
FC0007C0
F80007E0
F80007E0
F80007E0
F80007E0
F80007E0
F80007E0
FC0007C0
FC0007C0
FC000FC0
7C000FC0
7E001FC0
7F001F80
3F803F80
3FC0FF00
1FFFFE00
0FFFFC00
07FFF800
01FFF000
007F8000
00000000
00000000
00000000
00000000
00000000
7FFFFFC0
7FFFFFC0
7FFFFFC0
7FFFFFC0
7FFFFFC0
ENDCHAR
STARTCHAR 00BB
ENCODING 187
SWIDTH 561 0
DWIDTH 53 0
BBX 34 31 9 10
BITMAP
8000100000
E000180000
F0001E0000
F8001F0000
FC001F8000
FF001FE000
FF801FF000
FFC01FF800
3FF00FFC00
1FF803FF00
0FFC01FF80
07FE00FFC0
01FE003FC0
00FE001FC0
007E000FC0
003E0007C0
007E000FC0
00FE003FC0
03FE007FC0
07FE00FFC0
0FF801FF00
3FF007FE00
7FE00FFC00
FFC01FF000
FF001FE000
FE001FC000
FC001F8000
F8001E0000
E0001C0000
C000180000
8000100000
ENDCHAR
STARTCHAR 00BC
ENCODING 188
SWIDTH 836 0
DWIDTH 79 0
BBX 75 69 2 -2
BITMAP
000F0000000001F80000
001F0000000001F00000
001F0000000003F00000
001F0000000003E00000
003F0000000007C00000
003F000000000FC00000
007F000000000F800000
03FF000000001F800000
FFFF000000003F000000
FFFF000000003E000000
FFFF000000007E000000
FFFF000000007C000000
FFFF00000000F8000000
003F00000001F8000000
003F00000001F0000000
003F00000003F0000000
003F00000007E0000000
003F00000007C0000000
003F0000000FC0000000
003F0000000F80000000
003F0000001F00000000
003F0000003F00000000
003F0000003E00000000
003F0000007E00000000
003F000000FC00000000
003F000000F800000000
003F000001F800000000
003F000001F00000F800
003F000003E00001F800
003F000007E00001F800
003F000007C00003F800
003F00000FC00007F800
003F00001F80000FF800
003F00001F00001FF800
003F00003F00001FF800
003F00003E00003FF800
003F00007C00007FF800
003F0000FC0000FDF800
003F0000F80000FDF800
003F0001F80001F9F800
003F0003F00003F1F800
00000003E00007E1F800
00000007E00007C1F800
00000007C0000FC1F800
0000000F80001F81F800
0000001F80003F01F800
0000001F00007E01F800
0000003F00007E01F800
0000007E0000FC01F800
0000007C0001F801F800
000000FC0003F001F800
000000F80003F001F800
000001F00007E001F800
000003F00007FFFFFFE0
000003E00007FFFFFFE0
000007E00007FFFFFFE0
000007C00007FFFFFFE0
00000F800007FFFFFFE0
00001F8000000001F800
00001F0000000001F800
00003F0000000001F800
00007E0000000001F800
00007C0000000001F800
0000FC0000000001F800
0000F80000000001F800
0001F00000000001F800
0003F00000000001F800
0003E000000000000000
0007E000000000000000
ENDCHAR
STARTCHAR 00BD
ENCODING 189
SWIDTH 836 0
DWIDTH 79 0
BBX 74 69 2 -2
BITMAP
001F0000000007C00000
001F000000000FC00000
001F000000000F800000
003F000000001F000000
003F000000003F000000
007F000000003E000000
00FF000000007E000000
07FF000000007C000000
FFFF00000000F8000000
FFFF00000001F8000000
FFFF00000001F0000000
FFFF00000003F0000000
003F00000007E0000000
003F00000007C0000000
003F0000000FC0000000
003F0000000F80000000
003F0000001F00000000
003F0000003F00000000
003F0000003E00000000
003F0000007E00000000
003F000000FC00000000
003F000000F800000000
003F000001F800000000
003F000001F000000000
003F000003E000000000
003F000007E000000000
003F000007C000000000
003F00000FC000FF8000
003F00001F8007FFF000
003F00001F001FFFF800
003F00003F003FFFFE00
003F00003E007FFFFF00
003F00007C00FF81FF00
003F0000FC00FE007F80
003F0000F800FC001FC0
003F0001F801F8001FC0
003F0001F001F8000FC0
003F0003E001F8000FC0
003F0007E001F0000FC0
003F0007C003F0000FC0
0000000FC003F0000FC0
0000001F800000000FC0
0000001F000000001FC0
0000003F000000001F80
0000003E000000003F80
0000007C000000007F00
000000FC00000001FE00
000000F800000007FC00
000001F80000001FF800
000003F00000007FF000
000003E0000001FFC000
000007E0000003FF0000
000007C000000FFC0000
00000F8000001FF00000
00001F8000003FE00000
00001F0000007F800000
00003F000000FF000000
00007E000000FE000000
00007C000001FC000000
0000FC000001F8000000
0000F8000003F8000000
0001F0000003F0000000
0003F0000003FFFFFFC0
0003E0000003FFFFFFC0
0007E0000003FFFFFFC0
0007C0000007FFFFFFC0
000F80000007FFFFFFC0
001F8000000000000000
001F0000000000000000
ENDCHAR
STARTCHAR 00BE
ENCODING 190
SWIDTH 836 0
DWIDTH 79 0
BBX 75 69 2 -2
BITMAP
003FE0000000003E0000
00FFFC000000007E0000
03FFFF00000000FC0000
07FFFF80000000F80000
0FFFFFC0000001F80000
1FF03FE0000001F00000
1FC00FE0000003F00000
3F8007E0000007E00000
3F0007F0000007C00000
3F0003F000000FC00000
7E0003F000000F800000
7E0003F000001F000000
7E0003F000003F000000
7E0003F000003E000000
000007E000007E000000
000007E00000FC000000
00001FC00000F8000000
000FFFC00001F8000000
000FFF000001F0000000
000FFE000003E0000000
000FFF800007E0000000
000FFFC00007C0000000
0000FFE0000FC0000000
00000FF0000F80000000
000003F0001F00000000
000003F8003F00000000
000001F8003E00000000
000001F8007E0000F000
FC0001F800FC0001F000
FC0001F800F80003F000
FC0001F801F80007F000
7E0001F801F00007F000
7E0001F803E0000FF000
7E0003F807E0001FF000
7F0003F007C0003FF000
3F800FF00FC0003FF000
3FE03FE01F80007FF000
1FFFFFC01F0000FFF000
0FFFFF803F0001FBF000
07FFFF003E0001FBF000
01FFFC007C0003F3F000
003FE000FC0007E3F000
00000000F8000FC3F000
00000001F8000FC3F000
00000001F0001F83F000
00000003E0003F03F000
00000007E0007E03F000
00000007C000FC03F000
0000000FC000FC03F000
0000001F8001F803F000
0000001F0003F003F000
0000003F0007E003F000
0000003E0007E003F000
0000007C0007FFFFFFE0
000000FC0007FFFFFFE0
000000F80007FFFFFFE0
000001F80007FFFFFFE0
000003F00007FFFFFFE0
000003E000000003F000
000007E000000003F000
000007C000000003F000
00000F8000000003F000
00001F8000000003F000
00001F0000000003F000
00003F0000000003F000
00003E0000000003F000
00007C0000000003F000
0000FC00000000000000
0000F800000000000000
ENDCHAR
STARTCHAR 00BF
ENCODING 191
SWIDTH 614 0
DWIDTH 58 0
BBX 41 69 9 -20
BITMAP
00007F800000
00007F800000
00007F800000
00007F800000
00007F800000
00007F800000
00007F800000
00007F800000
00007F800000
00007F800000
000000000000
000000000000
000000000000
000000000000
000000000000
000000000000
000000000000
000000000000
000000000000
00007F800000
00007F800000
00007F800000
00007F800000
00007F800000
00007F800000
00007F800000
0000FF800000
0000FF800000
0001FF800000
0001FF000000
0003FF000000
0007FE000000
000FFC000000
001FF8000000
003FF8000000
007FE0000000
01FFC0000000
03FF80000000
03FF00000000
07FE00000000
0FFC00000000
1FF800000000
3FF000000000
3FE000000000
7FE000000000
7FC000000000
7FC000000000
FF8000007F80
FF8000007F80
FF8000007F80
FF8000007F80
FF0000007F80
FF800000FF80
FF800000FF00
FF800000FF00
FF800000FF00
7FC00001FF00
7FC00001FE00
7FE00003FE00
3FF00007FE00
3FFC000FFC00
1FFF807FF800
0FFFFFFFF800
0FFFFFFFF000
07FFFFFFE000
01FFFFFFC000
00FFFFFF0000
003FFFFC0000
0007FFE00000
ENDCHAR
STARTCHAR 00C0
ENCODING 192
SWIDTH 667 0
DWIDTH 63 0
BBX 59 89 2 0
BITMAP
0000FFE000000000
00007FF000000000
00003FF000000000
00001FF800000000
00000FF800000000
000007FC00000000
000003FE00000000
000001FE00000000
000000FF00000000
0000007F80000000
0000003F80000000
0000001FC0000000
0000000FE0000000
00000007E0000000
0000000000000000
0000000000000000
0000000000000000
0000000000000000
0000000000000000
0000000000000000
000000FFF0000000
000000FFF0000000
000001FFF0000000
000001FFF8000000
000001FFF8000000
000003FFF8000000
000003FFFC000000
000007FFFC000000
000007FFFC000000
000007FFFE000000
00000FFBFE000000
00000FFBFF000000
00000FF9FF000000
00001FF1FF000000
00001FF1FF800000
00001FF0FF800000
00003FE0FF800000
00003FE0FFC00000
00003FC07FC00000
00007FC07FC00000
00007FC07FE00000
00007F803FE00000
0000FF803FE00000
0000FF803FF00000
0001FF001FF00000
0001FF001FF00000
0001FF001FF80000
0003FE000FF80000
0003FE000FF80000
0003FE000FFC0000
0007FC0007FC0000
0007FC0007FE0000
0007F80007FE0000
000FF80003FE0000
000FF80003FF0000
000FF00003FF0000
001FF00001FF0000
001FF00001FF8000
003FE00001FF8000
003FE00000FF8000
003FE00000FFC000
007FFFFFFFFFC000
007FFFFFFFFFC000
007FFFFFFFFFE000
00FFFFFFFFFFE000
00FFFFFFFFFFE000
00FFFFFFFFFFF000
01FFFFFFFFFFF000
01FF0000001FF000
01FF0000001FF800
03FE0000001FF800
03FE0000000FFC00
07FE0000000FFC00
07FC00000007FC00
07FC00000007FE00
0FFC00000007FE00
0FF800000003FE00
0FF800000003FF00
1FF800000003FF00
1FF000000001FF00
1FF000000001FF80
3FF000000001FF80
3FE000000000FF80
3FE000000000FFC0
7FE000000000FFC0
7FC0000000007FC0
FFC0000000007FE0
FF80000000007FE0
FF80000000003FE0
ENDCHAR
STARTCHAR 00C1
ENCODING 193
SWIDTH 667 0
DWIDTH 63 0
BBX 59 89 2 0
BITMAP
000000007FE00000
00000000FFC00000
00000001FF800000
00000001FF000000
00000003FE000000
00000007FC000000
00000007F8000000
0000000FF0000000
0000000FE0000000
0000001FC0000000
0000003F80000000
0000003F00000000
0000007E00000000
000000FC00000000
0000000000000000
0000000000000000
0000000000000000
0000000000000000
0000000000000000
0000000000000000
000000FFF0000000
000000FFF0000000
000001FFF0000000
000001FFF8000000
000001FFF8000000
000003FFF8000000
000003FFFC000000
000007FFFC000000
000007FFFC000000
000007FFFE000000
00000FFBFE000000
00000FFBFF000000
00000FF9FF000000
00001FF1FF000000
00001FF1FF800000
00001FF0FF800000
00003FE0FF800000
00003FE0FFC00000
00003FC07FC00000
00007FC07FC00000
00007FC07FE00000
00007F803FE00000
0000FF803FE00000
0000FF803FF00000
0001FF001FF00000
0001FF001FF00000
0001FF001FF80000
0003FE000FF80000
0003FE000FF80000
0003FE000FFC0000
0007FC0007FC0000
0007FC0007FE0000
0007F80007FE0000
000FF80003FE0000
000FF80003FF0000
000FF00003FF0000
001FF00001FF0000
001FF00001FF8000
003FE00001FF8000
003FE00000FF8000
003FE00000FFC000
007FFFFFFFFFC000
007FFFFFFFFFC000
007FFFFFFFFFE000
00FFFFFFFFFFE000
00FFFFFFFFFFE000
00FFFFFFFFFFF000
01FFFFFFFFFFF000
01FF0000001FF000
01FF0000001FF800
03FE0000001FF800
03FE0000000FFC00
07FE0000000FFC00
07FC00000007FC00
07FC00000007FE00
0FFC00000007FE00
0FF800000003FE00
0FF800000003FF00
1FF800000003FF00
1FF000000001FF00
1FF000000001FF80
3FF000000001FF80
3FE000000000FF80
3FE000000000FFC0
7FE000000000FFC0
7FC0000000007FC0
FFC0000000007FE0
FF80000000007FE0
FF80000000003FE0
ENDCHAR
STARTCHAR 00C2
ENCODING 194
SWIDTH 667 0
DWIDTH 63 0
BBX 59 89 2 0
BITMAP
0000007FC0000000
000000FFE0000000
000000FFF0000000
000001FFF0000000
000003FFF8000000
000003FBFC000000
000007F9FC000000
00000FF0FE000000
00000FE0FF000000
00001FC07F000000
00001F803F800000
00003F001F800000
00007F000FC00000
00007E0007E00000
0000000000000000
0000000000000000
0000000000000000
0000000000000000
0000000000000000
0000000000000000
000000FFF0000000
000000FFF0000000
000001FFF0000000
000001FFF8000000
000001FFF8000000
000003FFF8000000
000003FFFC000000
000007FFFC000000
000007FFFC000000
000007FFFE000000
00000FFBFE000000
00000FFBFF000000
00000FF9FF000000
00001FF1FF000000
00001FF1FF800000
00001FF0FF800000
00003FE0FF800000
00003FE0FFC00000
00003FC07FC00000
00007FC07FC00000
00007FC07FE00000
00007F803FE00000
0000FF803FE00000
0000FF803FF00000
0001FF001FF00000
0001FF001FF00000
0001FF001FF80000
0003FE000FF80000
0003FE000FF80000
0003FE000FFC0000
0007FC0007FC0000
0007FC0007FE0000
0007F80007FE0000
000FF80003FE0000
000FF80003FF0000
000FF00003FF0000
001FF00001FF0000
001FF00001FF8000
003FE00001FF8000
003FE00000FF8000
003FE00000FFC000
007FFFFFFFFFC000
007FFFFFFFFFC000
007FFFFFFFFFE000
00FFFFFFFFFFE000
00FFFFFFFFFFE000
00FFFFFFFFFFF000
01FFFFFFFFFFF000
01FF0000001FF000
01FF0000001FF800
03FE0000001FF800
03FE0000000FFC00
07FE0000000FFC00
07FC00000007FC00
07FC00000007FE00
0FFC00000007FE00
0FF800000003FE00
0FF800000003FF00
1FF800000003FF00
1FF000000001FF00
1FF000000001FF80
3FF000000001FF80
3FE000000000FF80
3FE000000000FFC0
7FE000000000FFC0
7FC0000000007FC0
FFC0000000007FE0
FF80000000007FE0
FF80000000003FE0
ENDCHAR
STARTCHAR 00C3
ENCODING 195
SWIDTH 667 0
DWIDTH 63 0
BBX 59 86 2 0
BITMAP
00000FF001F00000
00003FFE03F00000
00003FFFEFF00000
00007FFFFFF00000
0000FFFFFFE00000
0000FFFFFFE00000
0000FC3FFFC00000
0001F807FF800000
0001F800FF000000
0000000000000000
0000000000000000
0000000000000000
0000000000000000
0000000000000000
0000000000000000
0000000000000000
0000000000000000
000000FFF0000000
000000FFF0000000
000001FFF0000000
000001FFF8000000
000001FFF8000000
000003FFF8000000
000003FFFC000000
000007FFFC000000
000007FFFC000000
000007FFFE000000
00000FFBFE000000
00000FFBFF000000
00000FF9FF000000
00001FF1FF000000
00001FF1FF800000
00001FF0FF800000
00003FE0FF800000
00003FE0FFC00000
00003FC07FC00000
00007FC07FC00000
00007FC07FE00000
00007F803FE00000
0000FF803FE00000
0000FF803FF00000
0001FF001FF00000
0001FF001FF00000
0001FF001FF80000
0003FE000FF80000
0003FE000FF80000
0003FE000FFC0000
0007FC0007FC0000
0007FC0007FE0000
0007F80007FE0000
000FF80003FE0000
000FF80003FF0000
000FF00003FF0000
001FF00001FF0000
001FF00001FF8000
003FE00001FF8000
003FE00000FF8000
003FE00000FFC000
007FFFFFFFFFC000
007FFFFFFFFFC000
007FFFFFFFFFE000
00FFFFFFFFFFE000
00FFFFFFFFFFE000
00FFFFFFFFFFF000
01FFFFFFFFFFF000
01FF0000001FF000
01FF0000001FF800
03FE0000001FF800
03FE0000000FFC00
07FE0000000FFC00
07FC00000007FC00
07FC00000007FE00
0FFC00000007FE00
0FF800000003FE00
0FF800000003FF00
1FF800000003FF00
1FF000000001FF00
1FF000000001FF80
3FF000000001FF80
3FE000000000FF80
3FE000000000FFC0
7FE000000000FFC0
7FC0000000007FC0
FFC0000000007FE0
FF80000000007FE0
FF80000000003FE0
ENDCHAR
STARTCHAR 00C4
ENCODING 196
SWIDTH 667 0
DWIDTH 63 0
BBX 59 87 2 0
BITMAP
00007FE0FFC00000
00007FE0FFC00000
00007FE0FFC00000
00007FE0FFC00000
00007FE0FFC00000
00007FE0FFC00000
00007FE0FFC00000
00007FE0FFC00000
00007FE0FFC00000
00007FE0FFC00000
0000000000000000
0000000000000000
0000000000000000
0000000000000000
0000000000000000
0000000000000000
0000000000000000
0000000000000000
000000FFF0000000
000000FFF0000000
000001FFF0000000
000001FFF8000000
000001FFF8000000
000003FFF8000000
000003FFFC000000
000007FFFC000000
000007FFFC000000
000007FFFE000000
00000FFBFE000000
00000FFBFF000000
00000FF9FF000000
00001FF1FF000000
00001FF1FF800000
00001FF0FF800000
00003FE0FF800000
00003FE0FFC00000
00003FC07FC00000
00007FC07FC00000
00007FC07FE00000
00007F803FE00000
0000FF803FE00000
0000FF803FF00000
0001FF001FF00000
0001FF001FF00000
0001FF001FF80000
0003FE000FF80000
0003FE000FF80000
0003FE000FFC0000
0007FC0007FC0000
0007FC0007FE0000
0007F80007FE0000
000FF80003FE0000
000FF80003FF0000
000FF00003FF0000
001FF00001FF0000
001FF00001FF8000
003FE00001FF8000
003FE00000FF8000
003FE00000FFC000
007FFFFFFFFFC000
007FFFFFFFFFC000
007FFFFFFFFFE000
00FFFFFFFFFFE000
00FFFFFFFFFFE000
00FFFFFFFFFFF000
01FFFFFFFFFFF000
01FF0000001FF000
01FF0000001FF800
03FE0000001FF800
03FE0000000FFC00
07FE0000000FFC00
07FC00000007FC00
07FC00000007FE00
0FFC00000007FE00
0FF800000003FE00
0FF800000003FF00
1FF800000003FF00
1FF000000001FF00
1FF000000001FF80
3FF000000001FF80
3FE000000000FF80
3FE000000000FFC0
7FE000000000FFC0
7FC0000000007FC0
FFC0000000007FE0
FF80000000007FE0
FF80000000003FE0
ENDCHAR
STARTCHAR 00C5
ENCODING 197
SWIDTH 667 0
DWIDTH 63 0
BBX 59 90 2 0
BITMAP
0000003F80000000
0000007FE0000000
000000FFF0000000
000001FFF8000000
000003F0F8000000
000003C07C000000
000007C07C000000
000007C03C000000
000007C03C000000
000007C03C000000
000003C07C000000
000003F0F8000000
000001FFF8000000
000001FFF0000000
0000007FE0000000
0000003F80000000
0000000000000000
0000000000000000
0000000000000000
0000000000000000
0000000000000000
000000FFF0000000
000000FFF0000000
000001FFF0000000
000001FFF8000000
000001FFF8000000
000003FFF8000000
000003FFFC000000
000007FFFC000000
000007FFFC000000
000007FFFE000000
00000FFBFE000000
00000FFBFF000000
00000FF9FF000000
00001FF1FF000000
00001FF1FF800000
00001FF0FF800000
00003FE0FF800000
00003FE0FFC00000
00003FC07FC00000
00007FC07FC00000
00007FC07FE00000
00007F803FE00000
0000FF803FE00000
0000FF803FF00000
0001FF001FF00000
0001FF001FF00000
0001FF001FF80000
0003FE000FF80000
0003FE000FF80000
0003FE000FFC0000
0007FC0007FC0000
0007FC0007FE0000
0007F80007FE0000
000FF80003FE0000
000FF80003FF0000
000FF00003FF0000
001FF00001FF0000
001FF00001FF8000
003FE00001FF8000
003FE00000FF8000
003FE00000FFC000
007FFFFFFFFFC000
007FFFFFFFFFC000
007FFFFFFFFFE000
00FFFFFFFFFFE000
00FFFFFFFFFFE000
00FFFFFFFFFFF000
01FFFFFFFFFFF000
01FF0000001FF000
01FF0000001FF800
03FE0000001FF800
03FE0000000FFC00
07FE0000000FFC00
07FC00000007FC00
07FC00000007FE00
0FFC00000007FE00
0FF800000003FE00
0FF800000003FF00
1FF800000003FF00
1FF000000001FF00
1FF000000001FF80
3FF000000001FF80
3FE000000000FF80
3FE000000000FFC0
7FE000000000FFC0
7FC0000000007FC0
FFC0000000007FE0
FF80000000007FE0
FF80000000003FE0
ENDCHAR
STARTCHAR 00C6
ENCODING 198
SWIDTH 995 0
DWIDTH 94 0
BBX 89 69 1 0
BITMAP
0000000FFFFFFFFFFFFFFE00
0000000FFFFFFFFFFFFFFE00
0000001FFFFFFFFFFFFFFE00
0000001FFFFFFFFFFFFFFE00
0000003FFFFFFFFFFFFFFE00
0000003FFFFFFFFFFFFFFE00
0000003FFFFFFFFFFFFFFE00
0000007FFFFFFFFFFFFFFE00
0000007F801FF00000000000
000000FF801FF00000000000
000000FF801FF00000000000
000000FF001FF00000000000
000001FF001FF00000000000
000001FF001FF00000000000
000003FE001FF00000000000
000003FE001FF00000000000
000003FC001FF00000000000
000007FC001FF00000000000
000007FC001FF00000000000
00000FF8001FF00000000000
00000FF8001FF00000000000
00001FF0001FF00000000000
00001FF0001FF00000000000
00001FF0001FF00000000000
00003FE0001FF00000000000
00003FE0001FF00000000000
00007FC0001FF00000000000
00007FC0001FF00000000000
00007FC0001FF00000000000
0000FF80001FF00000000000
0000FF80001FFFFFFFFFF800
0001FF00001FFFFFFFFFF800
0001FF00001FFFFFFFFFF800
0001FF00001FFFFFFFFFF800
0003FE00001FFFFFFFFFF800
0003FE00001FFFFFFFFFF800
0007FC00001FFFFFFFFFF800
0007FC00001FFFFFFFFFF800
0007FC00001FF00000000000
000FF800001FF00000000000
000FF800001FF00000000000
001FFFFFFFFFF00000000000
001FFFFFFFFFF00000000000
003FFFFFFFFFF00000000000
003FFFFFFFFFF00000000000
003FFFFFFFFFF00000000000
007FFFFFFFFFF00000000000
007FFFFFFFFFF00000000000
00FFFFFFFFFFF00000000000
00FF8000001FF00000000000
00FF8000001FF00000000000
01FF8000001FF00000000000
01FF0000001FF00000000000
03FF0000001FF00000000000
03FF0000001FF00000000000
03FE0000001FF00000000000
07FE0000001FF00000000000
07FC0000001FF00000000000
0FFC0000001FF00000000000
0FFC0000001FF00000000000
0FF80000001FF00000000000
1FF80000001FFFFFFFFFFF80
1FF00000001FFFFFFFFFFF80
3FF00000001FFFFFFFFFFF80
3FF00000001FFFFFFFFFFF80
7FE00000001FFFFFFFFFFF80
7FE00000001FFFFFFFFFFF80
7FC00000001FFFFFFFFFFF80
FFC00000001FFFFFFFFFFF80
ENDCHAR
STARTCHAR 00C7
ENCODING 199
SWIDTH 720 0
DWIDTH 68 0
BBX 59 90 5 -20
BITMAP
0000007FF8000000
000007FFFFC00000
00003FFFFFF00000
0000FFFFFFFC0000
0003FFFFFFFF0000
0007FFFFFFFF8000
001FFFFFFFFFC000
003FFFFFFFFFE000
007FFF000FFFF000
00FFF80001FFF800
00FFF000007FF800
01FFC000001FFC00
03FF8000000FFC00
03FF00000007FE00
07FE00000003FE00
0FFC00000003FF00
0FF800000001FF00
1FF800000001FF00
1FF000000001FF80
1FF000000000FF80
3FE000000000FF80
3FE000000000FF80
3FC000000000FFC0
7FC0000000000000
7FC0000000000000
7FC0000000000000
7F80000000000000
FF80000000000000
FF80000000000000
FF80000000000000
FF80000000000000
FF80000000000000
FF80000000000000
FF00000000000000
FF00000000000000
FF00000000000000
FF00000000000000
FF00000000000000
FF00000000000000
FF00000000000000
FF80000000000000
FF80000000000000
FF80000000000000
FF80000000000000
FF80000000000000
FF80000000003FE0
FFC0000000003FE0
7FC0000000007FE0
7FC0000000007FC0
7FC0000000007FC0
3FE0000000007FC0
3FE0000000007FC0
3FF000000000FFC0
1FF000000000FF80
1FF800000001FF80
1FF800000001FF80
0FFC00000001FF00
0FFE00000003FF00
07FF00000007FE00
03FF8000000FFE00
03FFC000001FFC00
01FFE000003FFC00
00FFF800007FF800
00FFFE0001FFF000
007FFFC01FFFE000
003FFFFFFFFFC000
000FFFFFFFFF8000
0007FFFFFFFF0000
0003FFFFFFFE0000
0000FFFFFFF80000
00003FFFFFE00000
000007FFFF000000
0000001F00000000
0000001C00000000
0000003C00000000
0000003C00000000
0000007FF8000000
0000007FFC000000
0000007FFE000000
00000041FE000000
00000000FF000000
00000000FF000000
000000007F000000
00002000FE000000
00003800FE000000
00007F03FE000000
0000FFFFFC000000
00003FFFF8000000
00000FFFE0000000
000000FF00000000
ENDCHAR
STARTCHAR 00C8
ENCODING 200
SWIDTH 667 0
DWIDTH 63 0
BBX 50 89 8 0
BITMAP
000FFC00000000
0007FE00000000
0003FF00000000
0001FF00000000
0000FF80000000
00007FC0000000
00003FC0000000
00001FE0000000
00000FF0000000
000007F0000000
000003F8000000
000001FC000000
000000FC000000
0000007E000000
00000000000000
00000000000000
00000000000000
00000000000000
00000000000000
00000000000000
FFFFFFFFFFFF00
FFFFFFFFFFFF00
FFFFFFFFFFFF00
FFFFFFFFFFFF00
FFFFFFFFFFFF00
FFFFFFFFFFFF00
FFFFFFFFFFFF00
FFFFFFFFFFFF00
FF800000000000
FF800000000000
FF800000000000
FF800000000000
FF800000000000
FF800000000000
FF800000000000
FF800000000000
FF800000000000
FF800000000000
FF800000000000
FF800000000000
FF800000000000
FF800000000000
FF800000000000
FF800000000000
FF800000000000
FF800000000000
FF800000000000
FF800000000000
FF800000000000
FF800000000000
FFFFFFFFFFFE00
FFFFFFFFFFFE00
FFFFFFFFFFFE00
FFFFFFFFFFFE00
FFFFFFFFFFFE00
FFFFFFFFFFFE00
FFFFFFFFFFFE00
FFFFFFFFFFFE00
FF800000000000
FF800000000000
FF800000000000
FF800000000000
FF800000000000
FF800000000000
FF800000000000
FF800000000000
FF800000000000
FF800000000000
FF800000000000
FF800000000000
FF800000000000
FF800000000000
FF800000000000
FF800000000000
FF800000000000
FF800000000000
FF800000000000
FF800000000000
FF800000000000
FF800000000000
FF800000000000
FFFFFFFFFFFFC0
FFFFFFFFFFFFC0
FFFFFFFFFFFFC0
FFFFFFFFFFFFC0
FFFFFFFFFFFFC0
FFFFFFFFFFFFC0
FFFFFFFFFFFFC0
FFFFFFFFFFFFC0
ENDCHAR
STARTCHAR 00C9
ENCODING 201
SWIDTH 667 0
DWIDTH 63 0
BBX 50 89 8 0
BITMAP
0000003FF80000
0000003FF00000
0000007FE00000
000000FFC00000
000000FF800000
000001FF000000
000001FE000000
000003FC000000
000007F8000000
000007F0000000
00000FE0000000
00001FC0000000
00001F80000000
00003F00000000
00000000000000
00000000000000
00000000000000
00000000000000
00000000000000
00000000000000
FFFFFFFFFFFF00
FFFFFFFFFFFF00
FFFFFFFFFFFF00
FFFFFFFFFFFF00
FFFFFFFFFFFF00
FFFFFFFFFFFF00
FFFFFFFFFFFF00
FFFFFFFFFFFF00
FF800000000000
FF800000000000
FF800000000000
FF800000000000
FF800000000000
FF800000000000
FF800000000000
FF800000000000
FF800000000000
FF800000000000
FF800000000000
FF800000000000
FF800000000000
FF800000000000
FF800000000000
FF800000000000
FF800000000000
FF800000000000
FF800000000000
FF800000000000
FF800000000000
FF800000000000
FFFFFFFFFFFE00
FFFFFFFFFFFE00
FFFFFFFFFFFE00
FFFFFFFFFFFE00
FFFFFFFFFFFE00
FFFFFFFFFFFE00
FFFFFFFFFFFE00
FFFFFFFFFFFE00
FF800000000000
FF800000000000
FF800000000000
FF800000000000
FF800000000000
FF800000000000
FF800000000000
FF800000000000
FF800000000000
FF800000000000
FF800000000000
FF800000000000
FF800000000000
FF800000000000
FF800000000000
FF800000000000
FF800000000000
FF800000000000
FF800000000000
FF800000000000
FF800000000000
FF800000000000
FF800000000000
FFFFFFFFFFFFC0
FFFFFFFFFFFFC0
FFFFFFFFFFFFC0
FFFFFFFFFFFFC0
FFFFFFFFFFFFC0
FFFFFFFFFFFFC0
FFFFFFFFFFFFC0
FFFFFFFFFFFFC0
ENDCHAR
STARTCHAR 00CA
ENCODING 202
SWIDTH 667 0
DWIDTH 63 0
BBX 50 89 8 0
BITMAP
00000FF8000000
00001FFC000000
00001FFE000000
00003FFE000000
00007FFF000000
00007F7F000000
0000FF3F800000
0001FE3FC00000
0001FC1FC00000
0003F80FE00000
0007F007F00000
0007E003F00000
000FE001F80000
001FC001FC0000
00000000000000
00000000000000
00000000000000
00000000000000
00000000000000
00000000000000
FFFFFFFFFFFF00
FFFFFFFFFFFF00
FFFFFFFFFFFF00
FFFFFFFFFFFF00
FFFFFFFFFFFF00
FFFFFFFFFFFF00
FFFFFFFFFFFF00
FFFFFFFFFFFF00
FF800000000000
FF800000000000
FF800000000000
FF800000000000
FF800000000000
FF800000000000
FF800000000000
FF800000000000
FF800000000000
FF800000000000
FF800000000000
FF800000000000
FF800000000000
FF800000000000
FF800000000000
FF800000000000
FF800000000000
FF800000000000
FF800000000000
FF800000000000
FF800000000000
FF800000000000
FFFFFFFFFFFE00
FFFFFFFFFFFE00
FFFFFFFFFFFE00
FFFFFFFFFFFE00
FFFFFFFFFFFE00
FFFFFFFFFFFE00
FFFFFFFFFFFE00
FFFFFFFFFFFE00
FF800000000000
FF800000000000
FF800000000000
FF800000000000
FF800000000000
FF800000000000
FF800000000000
FF800000000000
FF800000000000
FF800000000000
FF800000000000
FF800000000000
FF800000000000
FF800000000000
FF800000000000
FF800000000000
FF800000000000
FF800000000000
FF800000000000
FF800000000000
FF800000000000
FF800000000000
FF800000000000
FFFFFFFFFFFFC0
FFFFFFFFFFFFC0
FFFFFFFFFFFFC0
FFFFFFFFFFFFC0
FFFFFFFFFFFFC0
FFFFFFFFFFFFC0
FFFFFFFFFFFFC0
FFFFFFFFFFFFC0
ENDCHAR
STARTCHAR 00CB
ENCODING 203
SWIDTH 667 0
DWIDTH 63 0
BBX 50 87 8 0
BITMAP
000FFC1FF80000
000FFC1FF80000
000FFC1FF80000
000FFC1FF80000
000FFC1FF80000
000FFC1FF80000
000FFC1FF80000
000FFC1FF80000
000FFC1FF80000
000FFC1FF80000
00000000000000
00000000000000
00000000000000
00000000000000
00000000000000
00000000000000
00000000000000
00000000000000
FFFFFFFFFFFF00
FFFFFFFFFFFF00
FFFFFFFFFFFF00
FFFFFFFFFFFF00
FFFFFFFFFFFF00
FFFFFFFFFFFF00
FFFFFFFFFFFF00
FFFFFFFFFFFF00
FF800000000000
FF800000000000
FF800000000000
FF800000000000
FF800000000000
FF800000000000
FF800000000000
FF800000000000
FF800000000000
FF800000000000
FF800000000000
FF800000000000
FF800000000000
FF800000000000
FF800000000000
FF800000000000
FF800000000000
FF800000000000
FF800000000000
FF800000000000
FF800000000000
FF800000000000
FFFFFFFFFFFE00
FFFFFFFFFFFE00
FFFFFFFFFFFE00
FFFFFFFFFFFE00
FFFFFFFFFFFE00
FFFFFFFFFFFE00
FFFFFFFFFFFE00
FFFFFFFFFFFE00
FF800000000000
FF800000000000
FF800000000000
FF800000000000
FF800000000000
FF800000000000
FF800000000000
FF800000000000
FF800000000000
FF800000000000
FF800000000000
FF800000000000
FF800000000000
FF800000000000
FF800000000000
FF800000000000
FF800000000000
FF800000000000
FF800000000000
FF800000000000
FF800000000000
FF800000000000
FF800000000000
FFFFFFFFFFFFC0
FFFFFFFFFFFFC0
FFFFFFFFFFFFC0
FFFFFFFFFFFFC0
FFFFFFFFFFFFC0
FFFFFFFFFFFFC0
FFFFFFFFFFFFC0
FFFFFFFFFFFFC0
ENDCHAR
STARTCHAR 00CC
ENCODING 204
SWIDTH 275 0
DWIDTH 26 0
BBX 19 89 0 0
BITMAP
FFE000
7FF000
3FF000
1FF800
0FFC00
07FC00
03FE00
01FF00
00FF00
007F80
003F80
001FC0
000FE0
0007E0
000000
000000
000000
000000
000000
000000
007FC0
007FC0
007FC0
007FC0
007FC0
007FC0
007FC0
007FC0
007FC0
007FC0
007FC0
007FC0
007FC0
007FC0
007FC0
007FC0
007FC0
007FC0
007FC0
007FC0
007FC0
007FC0
007FC0
007FC0
007FC0
007FC0
007FC0
007FC0
007FC0
007FC0
007FC0
007FC0
007FC0
007FC0
007FC0
007FC0
007FC0
007FC0
007FC0
007FC0
007FC0
007FC0
007FC0
007FC0
007FC0
007FC0
007FC0
007FC0
007FC0
007FC0
007FC0
007FC0
007FC0
007FC0
007FC0
007FC0
007FC0
007FC0
007FC0
007FC0
007FC0
007FC0
007FC0
007FC0
007FC0
007FC0
007FC0
007FC0
007FC0
ENDCHAR
STARTCHAR 00CD
ENCODING 205
SWIDTH 275 0
DWIDTH 26 0
BBX 19 89 7 0
BITMAP
007FE0
00FFC0
01FF80
01FF00
03FE00
07FC00
07F800
0FF000
1FE000
1FC000
3F8000
7F0000
7E0000
FC0000
000000
000000
000000
000000
000000
000000
3FE000
3FE000
3FE000
3FE000
3FE000
3FE000
3FE000
3FE000
3FE000
3FE000
3FE000
3FE000
3FE000
3FE000
3FE000
3FE000
3FE000
3FE000
3FE000
3FE000
3FE000
3FE000
3FE000
3FE000
3FE000
3FE000
3FE000
3FE000
3FE000
3FE000
3FE000
3FE000
3FE000
3FE000
3FE000
3FE000
3FE000
3FE000
3FE000
3FE000
3FE000
3FE000
3FE000
3FE000
3FE000
3FE000
3FE000
3FE000
3FE000
3FE000
3FE000
3FE000
3FE000
3FE000
3FE000
3FE000
3FE000
3FE000
3FE000
3FE000
3FE000
3FE000
3FE000
3FE000
3FE000
3FE000
3FE000
3FE000
3FE000
ENDCHAR
STARTCHAR 00CE
ENCODING 206
SWIDTH 275 0
DWIDTH 26 0
BBX 27 89 0 0
BITMAP
007FC000
00FFE000
01FFE000
01FFF000
03FFF800
03FBF800
07F3FC00
0FF1FE00
0FE0FE00
1FC07F00
3F803F80
3F001F80
7E000FC0
FE000FE0
00000000
00000000
00000000
00000000
00000000
00000000
007FC000
007FC000
007FC000
007FC000
007FC000
007FC000
007FC000
007FC000
007FC000
007FC000
007FC000
007FC000
007FC000
007FC000
007FC000
007FC000
007FC000
007FC000
007FC000
007FC000
007FC000
007FC000
007FC000
007FC000
007FC000
007FC000
007FC000
007FC000
007FC000
007FC000
007FC000
007FC000
007FC000
007FC000
007FC000
007FC000
007FC000
007FC000
007FC000
007FC000
007FC000
007FC000
007FC000
007FC000
007FC000
007FC000
007FC000
007FC000
007FC000
007FC000
007FC000
007FC000
007FC000
007FC000
007FC000
007FC000
007FC000
007FC000
007FC000
007FC000
007FC000
007FC000
007FC000
007FC000
007FC000
007FC000
007FC000
007FC000
007FC000
ENDCHAR
STARTCHAR 00CF
ENCODING 207
SWIDTH 275 0
DWIDTH 26 0
BBX 25 86 1 0
BITMAP
FFC1FF80
FFC1FF80
FFC1FF80
FFC1FF80
FFC1FF80
FFC1FF80
FFC1FF80
FFC1FF80
FFC1FF80
FFC1FF80
00000000
00000000
00000000
00000000
00000000
00000000
00000000
00FF8000
00FF8000
00FF8000
00FF8000
00FF8000
00FF8000
00FF8000
00FF8000
00FF8000
00FF8000
00FF8000
00FF8000
00FF8000
00FF8000
00FF8000
00FF8000
00FF8000
00FF8000
00FF8000
00FF8000
00FF8000
00FF8000
00FF8000
00FF8000
00FF8000
00FF8000
00FF8000
00FF8000
00FF8000
00FF8000
00FF8000
00FF8000
00FF8000
00FF8000
00FF8000
00FF8000
00FF8000
00FF8000
00FF8000
00FF8000
00FF8000
00FF8000
00FF8000
00FF8000
00FF8000
00FF8000
00FF8000
00FF8000
00FF8000
00FF8000
00FF8000
00FF8000
00FF8000
00FF8000
00FF8000
00FF8000
00FF8000
00FF8000
00FF8000
00FF8000
00FF8000
00FF8000
00FF8000
00FF8000
00FF8000
00FF8000
00FF8000
00FF8000
00FF8000
ENDCHAR
STARTCHAR 00D0
ENCODING 208
SWIDTH 720 0
DWIDTH 68 0
BBX 61 69 2 0
BITMAP
03FFFFFFFE000000
03FFFFFFFFE00000
03FFFFFFFFF80000
03FFFFFFFFFE0000
03FFFFFFFFFF8000
03FFFFFFFFFFC000
03FFFFFFFFFFE000
03FFFFFFFFFFF000
03FE000007FFF800
03FE000000FFFC00
03FE0000003FFE00
03FE0000000FFE00
03FE00000007FF00
03FE00000003FF00
03FE00000001FF80
03FE00000000FF80
03FE00000000FFC0
03FE000000007FC0
03FE000000007FE0
03FE000000003FE0
03FE000000003FE0
03FE000000001FF0
03FE000000001FF0
03FE000000001FF0
03FE000000001FF0
03FE000000000FF0
03FE000000000FF0
03FE000000000FF8
03FE000000000FF8
03FE000000000FF8
03FE000000000FF8
FFFFFFFE00000FF8
FFFFFFFE00000FF8
FFFFFFFE00000FF8
FFFFFFFE00000FF8
FFFFFFFE00000FF8
FFFFFFFE00000FF8
03FE000000000FF8
03FE000000000FF8
03FE000000000FF8
03FE000000000FF8
03FE000000000FF8
03FE000000000FF0
03FE000000001FF0
03FE000000001FF0
03FE000000001FF0
03FE000000001FF0
03FE000000001FE0
03FE000000003FE0
03FE000000003FE0
03FE000000007FE0
03FE000000007FC0
03FE00000000FFC0
03FE00000000FF80
03FE00000001FF80
03FE00000003FF00
03FE00000007FF00
03FE0000000FFE00
03FE0000001FFE00
03FE0000007FFC00
03FE000003FFF800
03FFFFFFFFFFF000
03FFFFFFFFFFE000
03FFFFFFFFFFC000
03FFFFFFFFFF0000
03FFFFFFFFFE0000
03FFFFFFFFF80000
03FFFFFFFFC00000
03FFFFFFFC000000
ENDCHAR
STARTCHAR 00D1
ENCODING 209
SWIDTH 720 0
DWIDTH 68 0
BBX 54 86 7 0
BITMAP
00003FC007C000
00007FF80FC000
0000FFFFBFC000
0001FFFFFFC000
0003FFFFFF8000
0003FFFFFF8000
0003F0FFFF0000
0007E01FFE0000
0007E001FC0000
00000000000000
00000000000000
00000000000000
00000000000000
00000000000000
00000000000000
00000000000000
00000000000000
FFC000000003FC
FFE000000003FC
FFE000000003FC
FFF000000003FC
FFF800000003FC
FFF800000003FC
FFFC00000003FC
FFFC00000003FC
FFFE00000003FC
FFFF00000003FC
FFFF00000003FC
FFFF80000003FC
FFFFC0000003FC
FF7FC0000003FC
FF7FE0000003FC
FF3FF0000003FC
FF1FF0000003FC
FF1FF8000003FC
FF0FFC000003FC
FF07FC000003FC
FF07FE000003FC
FF03FE000003FC
FF03FF000003FC
FF01FF800003FC
FF00FF800003FC
FF00FFC00003FC
FF007FE00003FC
FF003FE00003FC
FF003FF00003FC
FF001FF80003FC
FF000FF80003FC
FF000FFC0003FC
FF0007FC0003FC
FF0007FE0003FC
FF0003FF0003FC
FF0001FF0003FC
FF0001FF8003FC
FF0000FFC003FC
FF00007FC003FC
FF00007FE003FC
FF00003FF003FC
FF00001FF003FC
FF00001FF803FC
FF00000FF803FC
FF00000FFC03FC
FF000007FE03FC
FF000003FE03FC
FF000003FF03FC
FF000001FF83FC
FF000000FF83FC
FF000000FFC3FC
FF0000007FE3FC
FF0000003FE3FC
FF0000003FF3FC
FF0000001FF3FC
FF0000001FFBFC
FF0000000FFFFC
FF00000007FFFC
FF00000007FFFC
FF00000003FFFC
FF00000001FFFC
FF00000001FFFC
FF00000000FFFC
FF00000000FFFC
FF000000007FFC
FF000000003FFC
FF000000003FFC
FF000000001FFC
FF000000000FFC
ENDCHAR
STARTCHAR 00D2
ENCODING 210
SWIDTH 772 0
DWIDTH 73 0
BBX 66 91 4 -2
BITMAP
00001FFC0000000000
00000FFE0000000000
000007FE0000000000
000003FF0000000000
000001FF8000000000
000000FF8000000000
0000007FC000000000
0000003FE000000000
0000001FE000000000
0000000FF000000000
00000007F000000000
00000003F800000000
00000001FC00000000
00000000FC00000000
000000000000000000
000000000000000000
000000000000000000
000000000000000000
000000000000000000
0000001FFE00000000
000003FFFFF0000000
00000FFFFFFC000000
00007FFFFFFF800000
0000FFFFFFFFC00000
0003FFFFFFFFF00000
0007FFFFFFFFF80000
001FFFFFFFFFFE0000
003FFFC001FFFF0000
007FFE00003FFF8000
00FFF800000FFF8000
01FFF0000003FFC000
01FFC0000001FFE000
03FF800000007FF000
07FF000000003FF000
07FE000000001FF800
0FFC000000001FFC00
0FFC000000000FFC00
1FF80000000007FE00
1FF00000000007FE00
3FF00000000003FE00
3FE00000000003FF00
3FE00000000001FF00
7FC00000000001FF00
7FC00000000000FF80
7FC00000000000FF80
7FC00000000000FF80
FF800000000000FF80
FF8000000000007F80
FF8000000000007FC0
FF8000000000007FC0
FF8000000000007FC0
FF8000000000007FC0
FF0000000000007FC0
FF0000000000007FC0
FF0000000000007FC0
FF0000000000007FC0
FF0000000000007FC0
FF0000000000007FC0
FF8000000000007FC0
FF8000000000007FC0
FF8000000000007FC0
FF8000000000007FC0
FF8000000000007FC0
FF800000000000FF80
7FC00000000000FF80
7FC00000000000FF80
7FC00000000000FF80
7FE00000000001FF00
3FE00000000001FF00
3FE00000000003FF00
3FF00000000003FE00
1FF00000000007FE00
1FF80000000007FC00
0FFC000000000FFC00
0FFC000000001FF800
07FE000000001FF800
07FF000000003FF000
03FF800000007FF000
01FFC0000001FFE000
01FFF0000003FFC000
00FFF800000FFF8000
007FFF00003FFF8000
003FFFE001FFFF0000
001FFFFFFFFFFC0000
000FFFFFFFFFF80000
0003FFFFFFFFF00000
0001FFFFFFFFC00000
00007FFFFFFF000000
00001FFFFFFC000000
000003FFFFE0000000
0000001FFE00000000
ENDCHAR
STARTCHAR 00D3
ENCODING 211
SWIDTH 772 0
DWIDTH 73 0
BBX 66 91 4 -2
BITMAP
000000001FFC000000
000000001FF8000000
000000003FF0000000
000000007FE0000000
000000007FC0000000
00000000FF80000000
00000000FF00000000
00000001FE00000000
00000003FC00000000
00000003F800000000
00000007F000000000
0000000FE000000000
0000000FC000000000
0000001F8000000000
000000000000000000
000000000000000000
000000000000000000
000000000000000000
000000000000000000
0000001FFE00000000
000003FFFFF0000000
00000FFFFFFC000000
00007FFFFFFF800000
0000FFFFFFFFC00000
0003FFFFFFFFF00000
0007FFFFFFFFF80000
001FFFFFFFFFFE0000
003FFFC001FFFF0000
007FFE00003FFF8000
00FFF800000FFF8000
01FFF0000003FFC000
01FFC0000001FFE000
03FF800000007FF000
07FF000000003FF000
07FE000000001FF800
0FFC000000001FFC00
0FFC000000000FFC00
1FF80000000007FE00
1FF00000000007FE00
3FF00000000003FE00
3FE00000000003FF00
3FE00000000001FF00
7FC00000000001FF00
7FC00000000000FF80
7FC00000000000FF80
7FC00000000000FF80
FF800000000000FF80
FF8000000000007F80
FF8000000000007FC0
FF8000000000007FC0
FF8000000000007FC0
FF8000000000007FC0
FF0000000000007FC0
FF0000000000007FC0
FF0000000000007FC0
FF0000000000007FC0
FF0000000000007FC0
FF0000000000007FC0
FF8000000000007FC0
FF8000000000007FC0
FF8000000000007FC0
FF8000000000007FC0
FF8000000000007FC0
FF800000000000FF80
7FC00000000000FF80
7FC00000000000FF80
7FC00000000000FF80
7FE00000000001FF00
3FE00000000001FF00
3FE00000000003FF00
3FF00000000003FE00
1FF00000000007FE00
1FF80000000007FC00
0FFC000000000FFC00
0FFC000000001FF800
07FE000000001FF800
07FF000000003FF000
03FF800000007FF000
01FFC0000001FFE000
01FFF0000003FFC000
00FFF800000FFF8000
007FFF00003FFF8000
003FFFE001FFFF0000
001FFFFFFFFFFC0000
000FFFFFFFFFF80000
0003FFFFFFFFF00000
0001FFFFFFFFC00000
00007FFFFFFF000000
00001FFFFFFC000000
000003FFFFE0000000
0000001FFE00000000
ENDCHAR
STARTCHAR 00D4
ENCODING 212
SWIDTH 772 0
DWIDTH 73 0
BBX 66 91 4 -2
BITMAP
0000000FF800000000
0000000FFC00000000
0000001FFE00000000
0000003FFE00000000
0000003FFF00000000
0000007FFF80000000
000000FF3F80000000
000000FE1FC0000000
000001FC1FE0000000
000003F80FE0000000
000003F807F0000000
000007F003F8000000
000007E001F8000000
00000FC000FC000000
000000000000000000
000000000000000000
000000000000000000
000000000000000000
000000000000000000
0000001FFE00000000
000003FFFFF0000000
00000FFFFFFC000000
00007FFFFFFF800000
0000FFFFFFFFC00000
0003FFFFFFFFF00000
0007FFFFFFFFF80000
001FFFFFFFFFFE0000
003FFFC001FFFF0000
007FFE00003FFF8000
00FFF800000FFF8000
01FFF0000003FFC000
01FFC0000001FFE000
03FF800000007FF000
07FF000000003FF000
07FE000000001FF800
0FFC000000001FFC00
0FFC000000000FFC00
1FF80000000007FE00
1FF00000000007FE00
3FF00000000003FE00
3FE00000000003FF00
3FE00000000001FF00
7FC00000000001FF00
7FC00000000000FF80
7FC00000000000FF80
7FC00000000000FF80
FF800000000000FF80
FF8000000000007F80
FF8000000000007FC0
FF8000000000007FC0
FF8000000000007FC0
FF8000000000007FC0
FF0000000000007FC0
FF0000000000007FC0
FF0000000000007FC0
FF0000000000007FC0
FF0000000000007FC0
FF0000000000007FC0
FF8000000000007FC0
FF8000000000007FC0
FF8000000000007FC0
FF8000000000007FC0
FF8000000000007FC0
FF800000000000FF80
7FC00000000000FF80
7FC00000000000FF80
7FC00000000000FF80
7FE00000000001FF00
3FE00000000001FF00
3FE00000000003FF00
3FF00000000003FE00
1FF00000000007FE00
1FF80000000007FC00
0FFC000000000FFC00
0FFC000000001FF800
07FE000000001FF800
07FF000000003FF000
03FF800000007FF000
01FFC0000001FFE000
01FFF0000003FFC000
00FFF800000FFF8000
007FFF00003FFF8000
003FFFE001FFFF0000
001FFFFFFFFFFC0000
000FFFFFFFFFF80000
0003FFFFFFFFF00000
0001FFFFFFFFC00000
00007FFFFFFF000000
00001FFFFFFC000000
000003FFFFE0000000
0000001FFE00000000
ENDCHAR
STARTCHAR 00D5
ENCODING 213
SWIDTH 772 0
DWIDTH 73 0
BBX 66 88 4 -2
BITMAP
000001FE003F000000
000003FF803F000000
000007FFF07E000000
00000FFFFFFE000000
00000FFFFFFE000000
00001FFFFFFC000000
00001F87FFFC000000
00001F80FFF8000000
00003F001FE0000000
000000000000000000
000000000000000000
000000000000000000
000000000000000000
000000000000000000
000000000000000000
000000000000000000
0000001FFE00000000
000003FFFFF0000000
00000FFFFFFC000000
00007FFFFFFF800000
0000FFFFFFFFC00000
0003FFFFFFFFF00000
0007FFFFFFFFF80000
001FFFFFFFFFFE0000
003FFFC001FFFF0000
007FFE00003FFF8000
00FFF800000FFF8000
01FFF0000003FFC000
01FFC0000001FFE000
03FF800000007FF000
07FF000000003FF000
07FE000000001FF800
0FFC000000001FFC00
0FFC000000000FFC00
1FF80000000007FE00
1FF00000000007FE00
3FF00000000003FE00
3FE00000000003FF00
3FE00000000001FF00
7FC00000000001FF00
7FC00000000000FF80
7FC00000000000FF80
7FC00000000000FF80
FF800000000000FF80
FF8000000000007F80
FF8000000000007FC0
FF8000000000007FC0
FF8000000000007FC0
FF8000000000007FC0
FF0000000000007FC0
FF0000000000007FC0
FF0000000000007FC0
FF0000000000007FC0
FF0000000000007FC0
FF0000000000007FC0
FF8000000000007FC0
FF8000000000007FC0
FF8000000000007FC0
FF8000000000007FC0
FF8000000000007FC0
FF800000000000FF80
7FC00000000000FF80
7FC00000000000FF80
7FC00000000000FF80
7FE00000000001FF00
3FE00000000001FF00
3FE00000000003FF00
3FF00000000003FE00
1FF00000000007FE00
1FF80000000007FC00
0FFC000000000FFC00
0FFC000000001FF800
07FE000000001FF800
07FF000000003FF000
03FF800000007FF000
01FFC0000001FFE000
01FFF0000003FFC000
00FFF800000FFF8000
007FFF00003FFF8000
003FFFE001FFFF0000
001FFFFFFFFFFC0000
000FFFFFFFFFF80000
0003FFFFFFFFF00000
0001FFFFFFFFC00000
00007FFFFFFF000000
00001FFFFFFC000000
000003FFFFE0000000
0000001FFE00000000
ENDCHAR
STARTCHAR 00D6
ENCODING 214
SWIDTH 772 0
DWIDTH 73 0
BBX 66 88 4 -2
BITMAP
00000FFC0FF8000000
00000FFC0FF8000000
00000FFC0FF8000000
00000FFC0FF8000000
00000FFC0FF8000000
00000FFC0FF8000000
00000FFC0FF8000000
00000FFC0FF8000000
00000FFC0FF8000000
00000FFC0FF8000000
000000000000000000
000000000000000000
000000000000000000
000000000000000000
000000000000000000
000000000000000000
0000001FFE00000000
000003FFFFF0000000
00000FFFFFFC000000
00007FFFFFFF800000
0000FFFFFFFFC00000
0003FFFFFFFFF00000
0007FFFFFFFFF80000
001FFFFFFFFFFE0000
003FFFC001FFFF0000
007FFE00003FFF8000
00FFF800000FFF8000
01FFF0000003FFC000
01FFC0000001FFE000
03FF800000007FF000
07FF000000003FF000
07FE000000001FF800
0FFC000000001FFC00
0FFC000000000FFC00
1FF80000000007FE00
1FF00000000007FE00
3FF00000000003FE00
3FE00000000003FF00
3FE00000000001FF00
7FC00000000001FF00
7FC00000000000FF80
7FC00000000000FF80
7FC00000000000FF80
FF800000000000FF80
FF8000000000007F80
FF8000000000007FC0
FF8000000000007FC0
FF8000000000007FC0
FF8000000000007FC0
FF0000000000007FC0
FF0000000000007FC0
FF0000000000007FC0
FF0000000000007FC0
FF0000000000007FC0
FF0000000000007FC0
FF8000000000007FC0
FF8000000000007FC0
FF8000000000007FC0
FF8000000000007FC0
FF8000000000007FC0
FF800000000000FF80
7FC00000000000FF80
7FC00000000000FF80
7FC00000000000FF80
7FE00000000001FF00
3FE00000000001FF00
3FE00000000003FF00
3FF00000000003FE00
1FF00000000007FE00
1FF80000000007FC00
0FFC000000000FFC00
0FFC000000001FF800
07FE000000001FF800
07FF000000003FF000
03FF800000007FF000
01FFC0000001FFE000
01FFF0000003FFC000
00FFF800000FFF8000
007FFF00003FFF8000
003FFFE001FFFF0000
001FFFFFFFFFFC0000
000FFFFFFFFFF80000
0003FFFFFFFFF00000
0001FFFFFFFFC00000
00007FFFFFFF000000
00001FFFFFFC000000
000003FFFFE0000000
0000001FFE00000000
ENDCHAR
STARTCHAR 00D7
ENCODING 215
SWIDTH 582 0
DWIDTH 55 0
BBX 37 37 9 3
BITMAP
0800000080
1C000001C0
3E000003E0
7F000007F0
FF80000FF8
7FC0001FF0
3FE0007FE0
1FF000FFC0
0FF801FF80
07FC03FF00
03FF07FE00
01FF8FFC00
00FFDFF800
007FFFF000
003FFFE000
001FFFC000
000FFF8000
0007FF0000
0003FF0000
0007FF8000
000FFFC000
001FFFE000
003FFFF000
007FDFF800
00FF8FFC00
01FF07FE00
03FE03FF00
07FC01FF80
0FF800FFC0
1FF0007FE0
3FE0003FF0
7FC0001FF8
FF80000FF8
7F000007F0
3E000003E0
1C000001C0
0800000080
ENDCHAR
STARTCHAR 00D8
ENCODING 216
SWIDTH 772 0
DWIDTH 73 0
BBX 67 73 3 -2
BITMAP
000000000000000100
0000000FFF000003C0
000001FFFFF00007E0
00000FFFFFFE000FE0
00003FFFFFFF801FC0
0000FFFFFFFFE03F80
0001FFFFFFFFF87F00
0007FFFFFFFFFCFE00
000FFFFFFFFFFFFC00
001FFFE000FFFFF800
003FFF00001FFFF000
007FFC000007FFF000
00FFF0000001FFE000
01FFE0000000FFF000
01FFC00000007FF800
03FF800000007FF800
07FF00000000FFFC00
07FE00000001FFFC00
0FFC00000003FFFE00
0FFC00000007F3FE00
1FF80000000FE3FF00
1FF80000000FC1FF00
1FF00000001F81FF00
3FF00000003F80FF80
3FE00000007F00FF80
3FE0000000FE00FF80
3FE0000001FC007FC0
7FC0000003F8007FC0
7FC0000007F0007FC0
7FC000000FE0007FC0
7FC000001FC0007FC0
7F8000003F80003FE0
7F8000007F00003FE0
FF800000FE00003FE0
FF800000FC00003FE0
FF800001F800003FE0
FF800003F800003FE0
FF800007F000003FE0
FF80000FE000003FE0
FF80001FC000003FE0
FF80003F8000003FE0
7F80007F0000003FE0
7FC000FE0000003FE0
7FC001FC0000003FC0
7FC003F80000007FC0
7FC007F00000007FC0
7FC007E00000007FC0
7FE00FC00000007FC0
3FE01F80000000FF80
3FE03F80000000FF80
3FF07F00000000FF80
1FF0FE00000001FF00
1FF9FC00000001FF00
1FFBF800000003FF00
0FFFF000000003FE00
0FFFE000000007FE00
07FFC00000000FFC00
07FF800000001FFC00
03FF800000003FF800
01FFC00000007FF000
01FFE0000000FFF000
01FFF8000001FFE000
03FFFC000007FFC000
07FFFF00001FFF8000
0FFFFFE000FFFF0000
1FCFFFFFFFFFFE0000
3F87FFFFFFFFFC0000
7F03FFFFFFFFF00000
FE00FFFFFFFFE00000
FC003FFFFFFF800000
78000FFFFFFE000000
300001FFFFF0000000
0000001FFE00000000
ENDCHAR
STARTCHAR 00D9
ENCODING 217
SWIDTH 720 0
DWIDTH 68 0
BBX 53 91 8 -2
BITMAP
0007FF00000000
0003FF00000000
0001FF80000000
0000FFC0000000
00007FC0000000
00003FE0000000
00001FF0000000
00000FF0000000
000007F8000000
000003FC000000
000001FC000000
000000FE000000
0000007F000000
0000003F000000
00000000000000
00000000000000
00000000000000
00000000000000
00000000000000
00000000000000
FF800000000FF8
FF800000000FF8
FF800000000FF8
FF800000000FF8
FF800000000FF8
FF800000000FF8
FF800000000FF8
FF800000000FF8
FF800000000FF8
FF800000000FF8
FF800000000FF8
FF800000000FF8
FF800000000FF8
FF800000000FF8
FF800000000FF8
FF800000000FF8
FF800000000FF8
FF800000000FF8
FF800000000FF8
FF800000000FF8
FF800000000FF8
FF800000000FF8
FF800000000FF8
FF800000000FF8
FF800000000FF8
FF800000000FF8
FF800000000FF8
FF800000000FF8
FF800000000FF8
FF800000000FF8
FF800000000FF8
FF800000000FF8
FF800000000FF8
FF800000000FF8
FF800000000FF8
FF800000000FF8
FF800000000FF8
FF800000000FF8
FF800000000FF8
FF800000000FF8
FF800000000FF8
FF800000000FF8
FF800000000FF8
FF800000000FF8
FF800000000FF8
FF800000000FF8
FF800000000FF8
FF800000000FF8
FF800000000FF8
FF800000000FF8
FF800000000FF8
FF800000000FF8
FF800000000FF8
7FC00000001FF0
7FC00000001FF0
7FE00000001FF0
7FE00000003FF0
3FF00000007FE0
3FF8000000FFE0
1FFC000001FFC0
1FFE000003FFC0
0FFF80000FFF80
07FFF0007FFF00
03FFFFFFFFFE00
01FFFFFFFFFC00
00FFFFFFFFF800
007FFFFFFFE000
001FFFFFFFC000
0007FFFFFF0000
0000FFFFF80000
00000FFF800000
ENDCHAR
STARTCHAR 00DA
ENCODING 218
SWIDTH 720 0
DWIDTH 68 0
BBX 53 91 8 -2
BITMAP
0000000FFE0000
0000000FFC0000
0000001FF80000
0000003FF00000
0000003FE00000
0000007FC00000
000000FF800000
000000FF000000
000001FE000000
000003FC000000
000003F8000000
000007F0000000
000007E0000000
00000FC0000000
00000000000000
00000000000000
00000000000000
00000000000000
00000000000000
00000000000000
FF800000000FF8
FF800000000FF8
FF800000000FF8
FF800000000FF8
FF800000000FF8
FF800000000FF8
FF800000000FF8
FF800000000FF8
FF800000000FF8
FF800000000FF8
FF800000000FF8
FF800000000FF8
FF800000000FF8
FF800000000FF8
FF800000000FF8
FF800000000FF8
FF800000000FF8
FF800000000FF8
FF800000000FF8
FF800000000FF8
FF800000000FF8
FF800000000FF8
FF800000000FF8
FF800000000FF8
FF800000000FF8
FF800000000FF8
FF800000000FF8
FF800000000FF8
FF800000000FF8
FF800000000FF8
FF800000000FF8
FF800000000FF8
FF800000000FF8
FF800000000FF8
FF800000000FF8
FF800000000FF8
FF800000000FF8
FF800000000FF8
FF800000000FF8
FF800000000FF8
FF800000000FF8
FF800000000FF8
FF800000000FF8
FF800000000FF8
FF800000000FF8
FF800000000FF8
FF800000000FF8
FF800000000FF8
FF800000000FF8
FF800000000FF8
FF800000000FF8
FF800000000FF8
FF800000000FF8
7FC00000001FF0
7FC00000001FF0
7FE00000001FF0
7FE00000003FF0
3FF00000007FE0
3FF8000000FFE0
1FFC000001FFC0
1FFE000003FFC0
0FFF80000FFF80
07FFF0007FFF00
03FFFFFFFFFE00
01FFFFFFFFFC00
00FFFFFFFFF800
007FFFFFFFE000
001FFFFFFFC000
0007FFFFFF0000
0000FFFFF80000
00000FFF800000
ENDCHAR
STARTCHAR 00DB
ENCODING 219
SWIDTH 720 0
DWIDTH 68 0
BBX 53 91 8 -2
BITMAP
000003FE000000
000007FF000000
00000FFF000000
00000FFF800000
00001FFFC00000
00001FDFC00000
00003F8FE00000
00007F8FF00000
00007F07F00000
0000FE03F80000
0001FC01FC0000
0001F800FC0000
0003F0007E0000
0007F0007F0000
00000000000000
00000000000000
00000000000000
00000000000000
00000000000000
00000000000000
FF800000000FF8
FF800000000FF8
FF800000000FF8
FF800000000FF8
FF800000000FF8
FF800000000FF8
FF800000000FF8
FF800000000FF8
FF800000000FF8
FF800000000FF8
FF800000000FF8
FF800000000FF8
FF800000000FF8
FF800000000FF8
FF800000000FF8
FF800000000FF8
FF800000000FF8
FF800000000FF8
FF800000000FF8
FF800000000FF8
FF800000000FF8
FF800000000FF8
FF800000000FF8
FF800000000FF8
FF800000000FF8
FF800000000FF8
FF800000000FF8
FF800000000FF8
FF800000000FF8
FF800000000FF8
FF800000000FF8
FF800000000FF8
FF800000000FF8
FF800000000FF8
FF800000000FF8
FF800000000FF8
FF800000000FF8
FF800000000FF8
FF800000000FF8
FF800000000FF8
FF800000000FF8
FF800000000FF8
FF800000000FF8
FF800000000FF8
FF800000000FF8
FF800000000FF8
FF800000000FF8
FF800000000FF8
FF800000000FF8
FF800000000FF8
FF800000000FF8
FF800000000FF8
FF800000000FF8
7FC00000001FF0
7FC00000001FF0
7FE00000001FF0
7FE00000003FF0
3FF00000007FE0
3FF8000000FFE0
1FFC000001FFC0
1FFE000003FFC0
0FFF80000FFF80
07FFF0007FFF00
03FFFFFFFFFE00
01FFFFFFFFFC00
00FFFFFFFFF800
007FFFFFFFE000
001FFFFFFFC000
0007FFFFFF0000
0000FFFFF80000
00000FFF800000
ENDCHAR
STARTCHAR 00DC
ENCODING 220
SWIDTH 720 0
DWIDTH 68 0
BBX 53 89 8 -2
BITMAP
0003FF07FE0000
0003FF07FE0000
0003FF07FE0000
0003FF07FE0000
0003FF07FE0000
0003FF07FE0000
0003FF07FE0000
0003FF07FE0000
0003FF07FE0000
0003FF07FE0000
00000000000000
00000000000000
00000000000000
00000000000000
00000000000000
00000000000000
00000000000000
00000000000000
FF800000000FF8
FF800000000FF8
FF800000000FF8
FF800000000FF8
FF800000000FF8
FF800000000FF8
FF800000000FF8
FF800000000FF8
FF800000000FF8
FF800000000FF8
FF800000000FF8
FF800000000FF8
FF800000000FF8
FF800000000FF8
FF800000000FF8
FF800000000FF8
FF800000000FF8
FF800000000FF8
FF800000000FF8
FF800000000FF8
FF800000000FF8
FF800000000FF8
FF800000000FF8
FF800000000FF8
FF800000000FF8
FF800000000FF8
FF800000000FF8
FF800000000FF8
FF800000000FF8
FF800000000FF8
FF800000000FF8
FF800000000FF8
FF800000000FF8
FF800000000FF8
FF800000000FF8
FF800000000FF8
FF800000000FF8
FF800000000FF8
FF800000000FF8
FF800000000FF8
FF800000000FF8
FF800000000FF8
FF800000000FF8
FF800000000FF8
FF800000000FF8
FF800000000FF8
FF800000000FF8
FF800000000FF8
FF800000000FF8
FF800000000FF8
FF800000000FF8
FF800000000FF8
FF800000000FF8
7FC00000001FF0
7FC00000001FF0
7FE00000001FF0
7FE00000003FF0
3FF00000007FE0
3FF8000000FFE0
1FFC000001FFC0
1FFE000003FFC0
0FFF80000FFF80
07FFF0007FFF00
03FFFFFFFFFE00
01FFFFFFFFFC00
00FFFFFFFFF800
007FFFFFFFE000
001FFFFFFFC000
0007FFFFFF0000
0000FFFFF80000
00000FFF800000
ENDCHAR
STARTCHAR 00DD
ENCODING 221
SWIDTH 667 0
DWIDTH 63 0
BBX 60 89 2 0
BITMAP
00000000FFE00000
00000000FFC00000
00000001FF800000
00000003FF000000
00000003FE000000
00000007FC000000
0000000FF8000000
0000000FF0000000
0000001FE0000000
0000003FC0000000
0000003F80000000
0000007F00000000
000000FE00000000
000000FC00000000
0000000000000000
0000000000000000
0000000000000000
0000000000000000
0000000000000000
0000000000000000
FFC0000000003FF0
FFE0000000007FE0
7FF000000000FFE0
7FF000000000FFC0
3FF800000001FFC0
1FF800000001FF80
1FFC00000003FF00
0FFE00000007FF00
07FE00000007FE00
07FF0000000FFC00
03FF0000000FFC00
03FF8000001FF800
01FFC000001FF800
00FFC000003FF000
00FFE000007FE000
007FE000007FE000
003FF00000FFC000
003FF80000FFC000
001FF80001FF8000
001FFC0003FF0000
000FFC0003FF0000
0007FE0007FE0000
0007FF0007FC0000
0003FF000FFC0000
0001FF800FF80000
0001FF801FF80000
0000FFC03FF00000
00007FE03FE00000
00007FE07FE00000
00003FF07FC00000
00003FF0FF800000
00001FF9FF800000
00000FFDFF000000
00000FFFFF000000
000007FFFE000000
000003FFFC000000
000003FFFC000000
000001FFF8000000
000001FFF8000000
000000FFF0000000
0000007FE0000000
0000007FE0000000
0000003FC0000000
0000003FC0000000
0000003FC0000000
0000003FC0000000
0000003FC0000000
0000003FC0000000
0000003FC0000000
0000003FC0000000
0000003FC0000000
0000003FC0000000
0000003FC0000000
0000003FC0000000
0000003FC0000000
0000003FC0000000
0000003FC0000000
0000003FC0000000
0000003FC0000000
0000003FC0000000
0000003FC0000000
0000003FC0000000
0000003FC0000000
0000003FC0000000
0000003FC0000000
0000003FC0000000
0000003FC0000000
0000003FC0000000
0000003FC0000000
ENDCHAR
STARTCHAR 00DE
ENCODING 222
SWIDTH 667 0
DWIDTH 63 0
BBX 49 69 9 0
BITMAP
FF000000000000
FF000000000000
FF000000000000
FF000000000000
FF000000000000
FF000000000000
FF000000000000
FF000000000000
FF000000000000
FF000000000000
FF000000000000
FFFFFFFE000000
FFFFFFFFF80000
FFFFFFFFFE0000
FFFFFFFFFF8000
FFFFFFFFFFC000
FFFFFFFFFFE000
FFFFFFFFFFF000
FFFFFFFFFFF800
FF000001FFFC00
FF0000003FFE00
FF0000001FFE00
FF00000007FF00
FF00000007FF00
FF00000003FF00
FF00000001FF80
FF00000001FF80
FF00000001FF80
FF00000000FF80
FF00000000FF80
FF00000000FF80
FF00000000FF80
FF00000000FF80
FF00000000FF80
FF00000001FF80
FF00000001FF80
FF00000001FF80
FF00000003FF00
FF00000003FF00
FF00000007FF00
FF0000000FFE00
FF0000003FFE00
FF000000FFFC00
FFFFFFFFFFF800
FFFFFFFFFFF800
FFFFFFFFFFF000
FFFFFFFFFFE000
FFFFFFFFFF8000
FFFFFFFFFF0000
FFFFFFFFFC0000
FFFFFFFFE00000
FF000000000000
FF000000000000
FF000000000000
FF000000000000
FF000000000000
FF000000000000
FF000000000000
FF000000000000
FF000000000000
FF000000000000
FF000000000000
FF000000000000
FF000000000000
FF000000000000
FF000000000000
FF000000000000
FF000000000000
FF000000000000
ENDCHAR
STARTCHAR 00DF
ENCODING 223
SWIDTH 614 0
DWIDTH 58 0
BBX 45 71 7 -2
BITMAP
0000FFE00000
000FFFFE0000
003FFFFF8000
00FFFFFFE000
03FFFFFFF000
07FFFFFFF800
0FFFFFFFFC00
1FFFE3FFFE00
3FFC001FFF00
7FF00007FF00
7FE00003FF80
7FC00000FF80
FF800000FF80
FF0000007FC0
FF0000007FC0
FF0000003FC0
FF0000003FC0
FE0000003FC0
FE0000003FC0
FE0000003FC0
FE0000007FC0
FE0000007FC0
FE0000007F80
FE000000FF80
FE000001FF00
FE000003FE00
FE00000FFE00
FE00007FF800
FE001FFFF000
FE001FFFC000
FE001FFF0000
FE001FFF0000
FE001FFFC000
FE001FFFF800
FE001FFFFC00
FE001FFFFF00
FE00001FFF80
FE000003FFC0
FE000000FFC0
FE0000007FE0
FE0000003FF0
FE0000001FF0
FE0000000FF8
FE0000000FF8
FE00000007F8
FE00000007F8
FE00000007F8
FE00000007F8
FE00000007F8
FE00000007F8
FE00000007F8
FE00000007F8
FE00000007F8
FE00000007F8
FE0000000FF8
FE0000000FF8
FE0000001FF0
FE0000003FF0
FE0000003FF0
FE0000007FE0
FE000001FFE0
FE000003FFC0
FE00001FFF80
FE007FFFFF00
FE007FFFFF00
FE007FFFFC00
FE007FFFF800
FE007FFFF000
FE007FFFC000
00007FFE0000
00007FF00000
ENDCHAR
STARTCHAR 00E0
ENCODING 224
SWIDTH 561 0
DWIDTH 53 0
BBX 47 72 4 -2
BITMAP
007FF0000000
003FF8000000
001FF8000000
000FFC000000
0007FE000000
0003FE000000
0001FF000000
0000FF000000
00007F800000
00003FC00000
00001FC00000
00000FE00000
000007F00000
000003F00000
000000000000
000000000000
000000000000
000000000000
000000000000
0000FFF00000
000FFFFF0000
003FFFFFC000
00FFFFFFF000
01FFFFFFF800
03FFFFFFFC00
07FFFFFFFE00
0FFFC07FFE00
0FFE0007FF00
1FF80003FF00
1FF00001FF00
1FE00000FF00
1FE00000FF80
3FE000007F80
3FC000007F80
3FC000007F80
000000007F80
000000007F80
00000000FF80
00000000FF80
00000001FF80
0000000FFF80
000003FFFF80
0001FFFFFF80
001FFFFFFF80
00FFFFFFFF80
03FFFFFFFF80
07FFFFFC7F80
0FFFFF807F80
1FFFC0007F80
3FFC00007F80
7FF000007F80
7FE000007F80
7FC000007F80
FF8000007F80
FF8000007F80
FF0000007F80
FF0000007F80
FF000000FF80
FF000000FF80
FF800001FF80
FF800003FF80
FF800007FF80
7FC0001FFF80
7FE0003FFF80
3FFC01FFFFC0
3FFFFFFF7FFE
1FFFFFFE7FFE
0FFFFFFC3FFE
07FFFFF03FFE
03FFFFC01FFE
00FFFF000FFE
001FF80003F8
ENDCHAR
STARTCHAR 00E1
ENCODING 225
SWIDTH 561 0
DWIDTH 53 0
BBX 47 72 4 -2
BITMAP
000000FFE000
000000FFC000
000001FF8000
000003FF0000
000003FE0000
000007FC0000
00000FF80000
00000FF00000
00001FE00000
00003FC00000
00003F800000
00007F000000
00007E000000
0000FC000000
000000000000
000000000000
000000000000
000000000000
000000000000
0000FFF00000
000FFFFF0000
003FFFFFC000
00FFFFFFF000
01FFFFFFF800
03FFFFFFFC00
07FFFFFFFE00
0FFFC07FFE00
0FFE0007FF00
1FF80003FF00
1FF00001FF00
1FE00000FF00
1FE00000FF80
3FE000007F80
3FC000007F80
3FC000007F80
000000007F80
000000007F80
00000000FF80
00000000FF80
00000001FF80
0000000FFF80
000003FFFF80
0001FFFFFF80
001FFFFFFF80
00FFFFFFFF80
03FFFFFFFF80
07FFFFFC7F80
0FFFFF807F80
1FFFC0007F80
3FFC00007F80
7FF000007F80
7FE000007F80
7FC000007F80
FF8000007F80
FF8000007F80
FF0000007F80
FF0000007F80
FF000000FF80
FF000000FF80
FF800001FF80
FF800003FF80
FF800007FF80
7FC0001FFF80
7FE0003FFF80
3FFC01FFFFC0
3FFFFFFF7FFE
1FFFFFFE7FFE
0FFFFFFC3FFE
07FFFFF03FFE
03FFFFC01FFE
00FFFF000FFE
001FF80003F8
ENDCHAR
STARTCHAR 00E2
ENCODING 226
SWIDTH 561 0
DWIDTH 53 0
BBX 47 72 4 -2
BITMAP
00007FE00000
00007FE00000
0000FFF00000
0001FFF80000
0001FFF80000
0003FFFC0000
0007F9FE0000
0007F0FE0000
000FE07F0000
001FC03F8000
001F803F8000
003F801FC000
007F000FE000
007E0007E000
000000000000
000000000000
000000000000
000000000000
000000000000
0000FFF00000
000FFFFF0000
003FFFFFC000
00FFFFFFF000
01FFFFFFF800
03FFFFFFFC00
07FFFFFFFE00
0FFFC07FFE00
0FFE0007FF00
1FF80003FF00
1FF00001FF00
1FE00000FF00
1FE00000FF80
3FE000007F80
3FC000007F80
3FC000007F80
000000007F80
000000007F80
00000000FF80
00000000FF80
00000001FF80
0000000FFF80
000003FFFF80
0001FFFFFF80
001FFFFFFF80
00FFFFFFFF80
03FFFFFFFF80
07FFFFFC7F80
0FFFFF807F80
1FFFC0007F80
3FFC00007F80
7FF000007F80
7FE000007F80
7FC000007F80
FF8000007F80
FF8000007F80
FF0000007F80
FF0000007F80
FF000000FF80
FF000000FF80
FF800001FF80
FF800003FF80
FF800007FF80
7FC0001FFF80
7FE0003FFF80
3FFC01FFFFC0
3FFFFFFF7FFE
1FFFFFFE7FFE
0FFFFFFC3FFE
07FFFFF03FFE
03FFFFC01FFE
00FFFF000FFE
001FF80003F8
ENDCHAR
STARTCHAR 00E3
ENCODING 227
SWIDTH 561 0
DWIDTH 53 0
BBX 47 70 4 -2
BITMAP
0007C001F800
001FF801F800
003FFE03F000
007FFFEFF000
007FFFFFF000
00FFFFFFE000
00FE7FFFE000
00FC0FFFC000
01F801FF8000
01F8007E0000
000000000000
000000000000
000000000000
000000000000
000000000000
000000000000
000000000000
0000FFF00000
000FFFFF0000
003FFFFFC000
00FFFFFFF000
01FFFFFFF800
03FFFFFFFC00
07FFFFFFFE00
0FFFC07FFE00
0FFE0007FF00
1FF80003FF00
1FF00001FF00
1FE00000FF00
1FE00000FF80
3FE000007F80
3FC000007F80
3FC000007F80
000000007F80
000000007F80
00000000FF80
00000000FF80
00000001FF80
0000000FFF80
000003FFFF80
0001FFFFFF80
001FFFFFFF80
00FFFFFFFF80
03FFFFFFFF80
07FFFFFC7F80
0FFFFF807F80
1FFFC0007F80
3FFC00007F80
7FF000007F80
7FE000007F80
7FC000007F80
FF8000007F80
FF8000007F80
FF0000007F80
FF0000007F80
FF000000FF80
FF000000FF80
FF800001FF80
FF800003FF80
FF800007FF80
7FC0001FFF80
7FE0003FFF80
3FFC01FFFFC0
3FFFFFFF7FFE
1FFFFFFE7FFE
0FFFFFFC3FFE
07FFFFF03FFE
03FFFFC01FFE
00FFFF000FFE
001FF80003F8
ENDCHAR
STARTCHAR 00E4
ENCODING 228
SWIDTH 561 0
DWIDTH 53 0
BBX 47 70 4 -2
BITMAP
007FE07FC000
007FE07FC000
007FE07FC000
007FE07FC000
007FE07FC000
007FE07FC000
007FE07FC000
007FE07FC000
007FE07FC000
007FE07FC000
000000000000
000000000000
000000000000
000000000000
000000000000
000000000000
000000000000
0000FFF00000
000FFFFF0000
003FFFFFC000
00FFFFFFF000
01FFFFFFF800
03FFFFFFFC00
07FFFFFFFE00
0FFFC07FFE00
0FFE0007FF00
1FF80003FF00
1FF00001FF00
1FE00000FF00
1FE00000FF80
3FE000007F80
3FC000007F80
3FC000007F80
000000007F80
000000007F80
00000000FF80
00000000FF80
00000001FF80
0000000FFF80
000003FFFF80
0001FFFFFF80
001FFFFFFF80
00FFFFFFFF80
03FFFFFFFF80
07FFFFFC7F80
0FFFFF807F80
1FFFC0007F80
3FFC00007F80
7FF000007F80
7FE000007F80
7FC000007F80
FF8000007F80
FF8000007F80
FF0000007F80
FF0000007F80
FF000000FF80
FF000000FF80
FF800001FF80
FF800003FF80
FF800007FF80
7FC0001FFF80
7FE0003FFF80
3FFC01FFFFC0
3FFFFFFF7FFE
1FFFFFFE7FFE
0FFFFFFC3FFE
07FFFFF03FFE
03FFFFC01FFE
00FFFF000FFE
001FF80003F8
ENDCHAR
STARTCHAR 00E5
ENCODING 229
SWIDTH 561 0
DWIDTH 53 0
BBX 47 73 4 -2
BITMAP
00001F800000
00007FE00000
0000FFF00000
0001FFF80000
0001F0FC0000
0003E07C0000
0003C03C0000
0003C03C0000
0003C03C0000
0003C03C0000
0003E07C0000
0003F0F80000
0001FFF80000
0000FFF00000
00007FE00000
00001F800000
000000000000
000000000000
000000000000
000000000000
0000FFF00000
000FFFFF0000
003FFFFFC000
00FFFFFFF000
01FFFFFFF800
03FFFFFFFC00
07FFFFFFFE00
0FFFC07FFE00
0FFE0007FF00
1FF80003FF00
1FF00001FF00
1FE00000FF00
1FE00000FF80
3FE000007F80
3FC000007F80
3FC000007F80
000000007F80
000000007F80
00000000FF80
00000000FF80
00000001FF80
0000000FFF80
000003FFFF80
0001FFFFFF80
001FFFFFFF80
00FFFFFFFF80
03FFFFFFFF80
07FFFFFC7F80
0FFFFF807F80
1FFFC0007F80
3FFC00007F80
7FF000007F80
7FE000007F80
7FC000007F80
FF8000007F80
FF8000007F80
FF0000007F80
FF0000007F80
FF000000FF80
FF000000FF80
FF800001FF80
FF800003FF80
FF800007FF80
7FC0001FFF80
7FE0003FFF80
3FFC01FFFFC0
3FFFFFFF7FFE
1FFFFFFE7FFE
0FFFFFFC3FFE
07FFFFF03FFE
03FFFFC01FFE
00FFFF000FFE
001FF80003F8
ENDCHAR
STARTCHAR 00E6
ENCODING 230
SWIDTH 889 0
DWIDTH 84 0
BBX 77 53 3 -2
BITMAP
00007FF000003FF00000
0007FFFE0001FFFE0000
003FFFFF8007FFFF8000
00FFFFFFE01FFFFFE000
01FFFFFFF03FFFFFF000
03FFFFFFF87FFFFFFC00
07FFFFFFFCFFFFFFFE00
07FFE07FFDFFF07FFF00
0FFE0007FFFF800FFF00
0FF80001FFFE0003FF80
1FF00000FFFC0001FFC0
1FF00000FFF80000FFC0
1FE000007FF000007FE0
1FE000007FE000003FE0
3FE000007FE000001FE0
3FC000007FC000001FF0
000000007FC000001FF0
000000007FC000000FF0
000000007F8000000FF0
000000007F8000000FF0
00000000FF8000000FF0
00000003FF8000000FF8
0000007FFF8000000FF8
0000FFFFFFFFFFFFFFF8
000FFFFFFFFFFFFFFFF8
007FFFFFFFFFFFFFFFF8
01FFFFFFFFFFFFFFFFF8
07FFFFFE7FFFFFFFFFF8
0FFFFFC07FFFFFFFFFF8
1FFFF0007F0000000000
3FFE00007F0000000000
3FF800007F8000000000
7FE000007F8000000000
7FC000007F8000000000
7F8000007F8000000000
FF8000007F8000000000
FF8000007FC000000FF0
FF0000007FC000001FF0
FF000000FFC000001FE0
FF800000FFE000003FE0
FF800001FFF000003FC0
FF800003FFF800007FC0
7FC0000FFFFC0000FFC0
7FC0001FF7FE0001FF80
7FF0007FE3FF8007FF00
3FFC03FFC3FFF83FFF00
3FFFFFFF01FFFFFFFE00
1FFFFFFE00FFFFFFFC00
0FFFFFFC007FFFFFF800
07FFFFF0003FFFFFE000
03FFFFE0000FFFFFC000
00FFFF000003FFFE0000
001FF80000003FF00000
ENDCHAR
STARTCHAR 00E7
ENCODING 231
SWIDTH 497 0
DWIDTH 47 0
BBX 42 71 3 -20
BITMAP
00007FE00000
0003FFFC0000
000FFFFF8000
003FFFFFC000
007FFFFFF000
00FFFFFFF800
01FFFFFFFC00
03FFF0FFFC00
07FF001FFE00
0FFE0007FE00
0FFC0003FF00
1FF80001FF00
1FF00000FF80
3FE00000FF80
3FE000007F80
3FC000007F80
7FC000007F80
7F8000007F80
7F8000000000
7F8000000000
FF8000000000
FF8000000000
FF0000000000
FF0000000000
FF0000000000
FF0000000000
FF0000000000
FF0000000000
FF0000000000
FF0000000000
FF0000000000
FF0000000000
FF8000000000
FF8000000000
7F8000003FC0
7F8000003FC0
7FC000003FC0
7FC000007FC0
3FC000007F80
3FE000007F80
3FF00000FF80
1FF00001FF00
1FF80001FF00
0FFC0003FF00
07FF000FFE00
07FFC03FFC00
03FFFFFFFC00
01FFFFFFF800
00FFFFFFF000
007FFFFFC000
001FFFFF8000
0007FFFE0000
0000FFF00000
00003C000000
000038000000
000078000000
00007FC00000
0000FFF80000
0000FFFC0000
0001FFFC0000
000001FE0000
000001FE0000
000000FE0000
000000FE0000
004001FE0000
007001FC0000
00FE03FC0000
00FFFFF80000
007FFFF00000
001FFFC00000
0001FE000000
ENDCHAR
STARTCHAR 00E8
ENCODING 232
SWIDTH 561 0
DWIDTH 53 0
BBX 44 72 4 -2
BITMAP
003FF0000000
001FF8000000
000FF8000000
0007FC000000
0003FE000000
0001FE000000
0000FF000000
00007F800000
00003F800000
00001FC00000
00000FE00000
000007E00000
000003F00000
000001F80000
000000000000
000000000000
000000000000
000000000000
000000000000
00003FF00000
0003FFFE0000
000FFFFF8000
003FFFFFE000
007FFFFFF000
00FFFFFFF800
01FFFFFFFC00
03FFF0FFFE00
07FF800FFF00
0FFE0003FF80
0FF80001FF80
1FF00000FFC0
1FF000007FC0
3FE000003FE0
3FC000003FE0
3FC000001FE0
7F8000001FE0
7F8000001FF0
7F8000000FF0
7F8000000FF0
FF0000000FF0
FF0000000FF0
FF0000000FF0
FFFFFFFFFFF0
FFFFFFFFFFF0
FFFFFFFFFFF0
FFFFFFFFFFF0
FFFFFFFFFFF0
FFFFFFFFFFF0
FF0000000000
FF0000000000
FF0000000000
FF0000000000
FF0000000000
FF8000000000
7F8000000000
7F8000001FE0
7FC000001FE0
3FC000003FE0
3FE000003FE0
3FE000007FC0
1FF000007FC0
1FF80000FF80
0FFE0003FF80
07FF8007FF00
07FFF87FFE00
03FFFFFFFC00
01FFFFFFF800
00FFFFFFF000
003FFFFFE000
001FFFFF8000
0003FFFE0000
00007FE00000
ENDCHAR
STARTCHAR 00E9
ENCODING 233
SWIDTH 561 0
DWIDTH 53 0
BBX 44 72 4 -2
BITMAP
0000007FE000
000000FFC000
000001FF8000
000001FF0000
000003FE0000
000003FC0000
000007F80000
00000FF00000
00000FE00000
00001FC00000
00003F800000
00003F000000
00007E000000
0000FC000000
000000000000
000000000000
000000000000
000000000000
000000000000
00003FF00000
0003FFFE0000
000FFFFF8000
003FFFFFE000
007FFFFFF000
00FFFFFFF800
01FFFFFFFC00
03FFF0FFFE00
07FF800FFF00
0FFE0003FF80
0FF80001FF80
1FF00000FFC0
1FF000007FC0
3FE000003FE0
3FC000003FE0
3FC000001FE0
7F8000001FE0
7F8000001FF0
7F8000000FF0
7F8000000FF0
FF0000000FF0
FF0000000FF0
FF0000000FF0
FFFFFFFFFFF0
FFFFFFFFFFF0
FFFFFFFFFFF0
FFFFFFFFFFF0
FFFFFFFFFFF0
FFFFFFFFFFF0
FF0000000000
FF0000000000
FF0000000000
FF0000000000
FF0000000000
FF8000000000
7F8000000000
7F8000001FE0
7FC000001FE0
3FC000003FE0
3FE000003FE0
3FE000007FC0
1FF000007FC0
1FF80000FF80
0FFE0003FF80
07FF8007FF00
07FFF87FFE00
03FFFFFFFC00
01FFFFFFF800
00FFFFFFF000
003FFFFFE000
001FFFFF8000
0003FFFE0000
00007FE00000
ENDCHAR
STARTCHAR 00EA
ENCODING 234
SWIDTH 561 0
DWIDTH 53 0
BBX 44 72 4 -2
BITMAP
00003FF00000
00003FF80000
00007FF80000
0000FFFC0000
0000FFFC0000
0001FFFE0000
0003FCFF0000
0003F87F0000
0007F03F8000
000FE01FC000
000FE00FC000
001FC00FE000
001F8007F000
003F0003F000
000000000000
000000000000
000000000000
000000000000
000000000000
00003FF00000
0003FFFE0000
000FFFFF8000
003FFFFFE000
007FFFFFF000
00FFFFFFF800
01FFFFFFFC00
03FFF0FFFE00
07FF800FFF00
0FFE0003FF80
0FF80001FF80
1FF00000FFC0
1FF000007FC0
3FE000003FE0
3FC000003FE0
3FC000001FE0
7F8000001FE0
7F8000001FF0
7F8000000FF0
7F8000000FF0
FF0000000FF0
FF0000000FF0
FF0000000FF0
FFFFFFFFFFF0
FFFFFFFFFFF0
FFFFFFFFFFF0
FFFFFFFFFFF0
FFFFFFFFFFF0
FFFFFFFFFFF0
FF0000000000
FF0000000000
FF0000000000
FF0000000000
FF0000000000
FF8000000000
7F8000000000
7F8000001FE0
7FC000001FE0
3FC000003FE0
3FE000003FE0
3FE000007FC0
1FF000007FC0
1FF80000FF80
0FFE0003FF80
07FF8007FF00
07FFF87FFE00
03FFFFFFFC00
01FFFFFFF800
00FFFFFFF000
003FFFFFE000
001FFFFF8000
0003FFFE0000
00007FE00000
ENDCHAR
STARTCHAR 00EB
ENCODING 235
SWIDTH 561 0
DWIDTH 53 0
BBX 44 70 4 -2
BITMAP
003FF03FF000
003FF03FF000
003FF03FF000
003FF03FF000
003FF03FF000
003FF03FF000
003FF03FF000
003FF03FF000
003FF03FF000
003FF03FF000
000000000000
000000000000
000000000000
000000000000
000000000000
000000000000
000000000000
00003FF00000
0003FFFE0000
000FFFFF8000
003FFFFFE000
007FFFFFF000
00FFFFFFF800
01FFFFFFFC00
03FFF0FFFE00
07FF800FFF00
0FFE0003FF80
0FF80001FF80
1FF00000FFC0
1FF000007FC0
3FE000003FE0
3FC000003FE0
3FC000001FE0
7F8000001FE0
7F8000001FF0
7F8000000FF0
7F8000000FF0
FF0000000FF0
FF0000000FF0
FF0000000FF0
FFFFFFFFFFF0
FFFFFFFFFFF0
FFFFFFFFFFF0
FFFFFFFFFFF0
FFFFFFFFFFF0
FFFFFFFFFFF0
FF0000000000
FF0000000000
FF0000000000
FF0000000000
FF0000000000
FF8000000000
7F8000000000
7F8000001FE0
7FC000001FE0
3FC000003FE0
3FE000003FE0
3FE000007FC0
1FF000007FC0
1FF80000FF80
0FFE0003FF80
07FF8007FF00
07FFF87FFE00
03FFFFFFFC00
01FFFFFFF800
00FFFFFFF000
003FFFFFE000
001FFFFF8000
0003FFFE0000
00007FE00000
ENDCHAR
STARTCHAR 00EC
ENCODING 236
SWIDTH 275 0
DWIDTH 26 0
BBX 19 70 0 0
BITMAP
FFE000
7FE000
3FF000
1FF000
0FF800
07FC00
03FC00
01FE00
00FF00
007F00
003F80
001F80
000FC0
0007E0
000000
000000
000000
000000
000000
000000
000000
007F80
007F80
007F80
007F80
007F80
007F80
007F80
007F80
007F80
007F80
007F80
007F80
007F80
007F80
007F80
007F80
007F80
007F80
007F80
007F80
007F80
007F80
007F80
007F80
007F80
007F80
007F80
007F80
007F80
007F80
007F80
007F80
007F80
007F80
007F80
007F80
007F80
007F80
007F80
007F80
007F80
007F80
007F80
007F80
007F80
007F80
007F80
007F80
007F80
ENDCHAR
STARTCHAR 00ED
ENCODING 237
SWIDTH 275 0
DWIDTH 26 0
BBX 18 70 7 0
BITMAP
00FFC0
01FF80
01FF00
03FE00
07FC00
07F800
0FF800
1FF000
1FE000
3FC000
3F8000
7F0000
FE0000
FC0000
000000
000000
000000
000000
000000
000000
000000
3FC000
3FC000
3FC000
3FC000
3FC000
3FC000
3FC000
3FC000
3FC000
3FC000
3FC000
3FC000
3FC000
3FC000
3FC000
3FC000
3FC000
3FC000
3FC000
3FC000
3FC000
3FC000
3FC000
3FC000
3FC000
3FC000
3FC000
3FC000
3FC000
3FC000
3FC000
3FC000
3FC000
3FC000
3FC000
3FC000
3FC000
3FC000
3FC000
3FC000
3FC000
3FC000
3FC000
3FC000
3FC000
3FC000
3FC000
3FC000
3FC000
ENDCHAR
STARTCHAR 00EE
ENCODING 238
SWIDTH 275 0
DWIDTH 26 0
BBX 27 70 -1 0
BITMAP
007FE000
00FFE000
00FFF000
01FFF800
01FFF800
03FFFC00
07F9FC00
07F0FE00
0FE07F00
1FC07F00
1FC03F80
3F801FC0
3F000FC0
7E0007E0
FC0007E0
00000000
00000000
00000000
00000000
00000000
00000000
003FC000
003FC000
003FC000
003FC000
003FC000
003FC000
003FC000
003FC000
003FC000
003FC000
003FC000
003FC000
003FC000
003FC000
003FC000
003FC000
003FC000
003FC000
003FC000
003FC000
003FC000
003FC000
003FC000
003FC000
003FC000
003FC000
003FC000
003FC000
003FC000
003FC000
003FC000
003FC000
003FC000
003FC000
003FC000
003FC000
003FC000
003FC000
003FC000
003FC000
003FC000
003FC000
003FC000
003FC000
003FC000
003FC000
003FC000
003FC000
003FC000
ENDCHAR
STARTCHAR 00EF
ENCODING 239
SWIDTH 275 0
DWIDTH 26 0
BBX 25 67 0 0
BITMAP
FFC0FF80
FFC0FF80
FFC0FF80
FFC0FF80
FFC0FF80
FFC0FF80
FFC0FF80
FFC0FF80
FFC0FF80
FFC0FF80
00000000
00000000
00000000
00000000
00000000
00000000
00000000
00000000
007F8000
007F8000
007F8000
007F8000
007F8000
007F8000
007F8000
007F8000
007F8000
007F8000
007F8000
007F8000
007F8000
007F8000
007F8000
007F8000
007F8000
007F8000
007F8000
007F8000
007F8000
007F8000
007F8000
007F8000
007F8000
007F8000
007F8000
007F8000
007F8000
007F8000
007F8000
007F8000
007F8000
007F8000
007F8000
007F8000
007F8000
007F8000
007F8000
007F8000
007F8000
007F8000
007F8000
007F8000
007F8000
007F8000
007F8000
007F8000
007F8000
ENDCHAR
STARTCHAR 00F0
ENCODING 240
SWIDTH 561 0
DWIDTH 53 0
BBX 45 73 3 -2
BITMAP
004000000000
00F800000000
01FC000C0000
03FF003E0000
03FFC0FF0000
01FFE7FF8000
007FFFFE0000
001FFFF00000
000FFFC00000
0007FF800000
001FFFC00000
007FFFE00000
01FFFFF00000
07FF1FFC0000
03FC0FFE0000
01F007FF0000
00C003FF8000
000001FFC000
000000FFC000
0000007FE000
00007FBFF000
0003FFFFF800
000FFFFFFC00
003FFFFFFC00
007FFFFFFE00
01FFFFFFFF00
03FFFFFFFF00
03FFE03FFF80
07FF8007FF80
0FFE0003FFC0
0FFC0000FFC0
1FF800007FE0
1FF000007FE0
3FF000003FE0
3FE000001FF0
3FE000001FF0
3FC000001FF0
7FC000000FF0
7FC000000FF8
7F8000000FF8
7F8000000FF8
7F80000007F8
7F80000007F8
7F80000007F8
FF80000007F8
FF80000007F8
FF80000007F8
FF80000007F8
FF80000007F8
FF80000007F8
7F80000007F8
7F80000007F8
7F8000000FF8
7F8000000FF8
7FC000000FF0
7FC000000FF0
3FC000001FF0
3FE000001FF0
3FE000001FE0
3FF000003FE0
1FF000007FE0
1FF80000FFC0
0FFC0000FFC0
0FFE0003FF80
07FF8007FF80
03FFF87FFF00
01FFFFFFFE00
00FFFFFFFC00
007FFFFFF800
003FFFFFF000
000FFFFFC000
0003FFFF0000
00007FF00000
ENDCHAR
STARTCHAR 00F1
ENCODING 241
SWIDTH 561 0
DWIDTH 53 0
BBX 39 68 7 0
BITMAP
003F0007C0
00FFC00FC0
01FFF80FC0
01FFFFBF80
03FFFFFF80
03FFFFFF80
07F3FFFF00
07E07FFE00
07C00FFC00
07C001F000
0000000000
0000000000
0000000000
0000000000
0000000000
0000000000
0000000000
00000FF000
00007FFE00
FE03FFFF80
FE07FFFFE0
FE0FFFFFF0
FE1FFFFFF8
FE3FFFFFF8
FE7F807FFC
FEFE001FFC
FFF8000FFC
FFF00007FE
FFE00003FE
FFE00003FE
FFC00001FE
FF800001FE
FF800001FE
FF800001FE
FF000001FE
FF000001FE
FF000001FE
FF000001FE
FF000001FE
FF000001FE
FF000001FE
FF000001FE
FF000001FE
FF000001FE
FF000001FE
FF000001FE
FF000001FE
FF000001FE
FF000001FE
FF000001FE
FF000001FE
FF000001FE
FF000001FE
FF000001FE
FF000001FE
FF000001FE
FF000001FE
FF000001FE
FF000001FE
FF000001FE
FF000001FE
FF000001FE
FF000001FE
FF000001FE
FF000001FE
FF000001FE
FF000001FE
FF000001FE
ENDCHAR
STARTCHAR 00F2
ENCODING 242
SWIDTH 561 0
DWIDTH 53 0
BBX 45 72 3 -2
BITMAP
003FF0000000
001FF8000000
000FFC000000
0007FC000000
0003FE000000
0001FF000000
0000FF000000
00007F800000
00003FC00000
00001FC00000
00000FE00000
000007F00000
000003F00000
000001F80000
000000000000
000000000000
000000000000
000000000000
000000000000
00003FF00000
0003FFFF0000
000FFFFFC000
003FFFFFF000
007FFFFFF800
00FFFFFFFC00
01FFFFFFFE00
03FFF87FFF00
07FF800FFF00
07FE0003FF80
0FFC0001FFC0
0FF80000FFC0
1FF000007FE0
1FF000003FE0
3FE000003FE0
3FE000001FF0
3FC000001FF0
7FC000000FF0
7FC000000FF0
7F8000000FF8
7F8000000FF8
7F80000007F8
7F80000007F8
7F80000007F8
FF80000007F8
FF80000007F8
FF80000007F8
FF80000007F8
FF80000007F8
7F80000007F8
7F80000007F8
7F80000007F8
7F8000000FF8
7F8000000FF8
7FC000000FF0
7FC000000FF0
3FC000001FF0
3FE000001FF0
3FE000001FE0
1FF000003FE0
1FF000007FE0
1FF80000FFC0
0FFC0000FFC0
07FE0003FF80
07FF8007FF00
03FFF87FFF00
01FFFFFFFE00
00FFFFFFFC00
007FFFFFF800
003FFFFFE000
000FFFFFC000
0003FFFE0000
00007FF00000
ENDCHAR
STARTCHAR 00F3
ENCODING 243
SWIDTH 561 0
DWIDTH 53 0
BBX 45 72 3 -2
BITMAP
0000007FE000
000000FFC000
000000FF8000
000001FF0000
000003FE0000
000003FC0000
000007F80000
00000FF00000
00000FE00000
00001FC00000
00003F800000
00003F000000
00007E000000
0000FC000000
000000000000
000000000000
000000000000
000000000000
000000000000
00003FF00000
0003FFFF0000
000FFFFFC000
003FFFFFF000
007FFFFFF800
00FFFFFFFC00
01FFFFFFFE00
03FFF87FFF00
07FF800FFF00
07FE0003FF80
0FFC0001FFC0
0FF80000FFC0
1FF000007FE0
1FF000003FE0
3FE000003FE0
3FE000001FF0
3FC000001FF0
7FC000000FF0
7FC000000FF0
7F8000000FF8
7F8000000FF8
7F80000007F8
7F80000007F8
7F80000007F8
FF80000007F8
FF80000007F8
FF80000007F8
FF80000007F8
FF80000007F8
7F80000007F8
7F80000007F8
7F80000007F8
7F8000000FF8
7F8000000FF8
7FC000000FF0
7FC000000FF0
3FC000001FF0
3FE000001FF0
3FE000001FE0
1FF000003FE0
1FF000007FE0
1FF80000FFC0
0FFC0000FFC0
07FE0003FF80
07FF8007FF00
03FFF87FFF00
01FFFFFFFE00
00FFFFFFFC00
007FFFFFF800
003FFFFFE000
000FFFFFC000
0003FFFE0000
00007FF00000
ENDCHAR
STARTCHAR 00F4
ENCODING 244
SWIDTH 561 0
DWIDTH 53 0
BBX 45 72 3 -2
BITMAP
00003FF00000
00007FF00000
00007FF80000
0000FFFC0000
0001FFFC0000
0001FDFE0000
0003FCFE0000
0003F87F0000
0007F03F8000
000FE03F8000
000FC01FC000
001F800FE000
003F8007E000
003F0003F000
000000000000
000000000000
000000000000
000000000000
000000000000
00003FF00000
0003FFFF0000
000FFFFFC000
003FFFFFF000
007FFFFFF800
00FFFFFFFC00
01FFFFFFFE00
03FFF87FFF00
07FF800FFF00
07FE0003FF80
0FFC0001FFC0
0FF80000FFC0
1FF000007FE0
1FF000003FE0
3FE000003FE0
3FE000001FF0
3FC000001FF0
7FC000000FF0
7FC000000FF0
7F8000000FF8
7F8000000FF8
7F80000007F8
7F80000007F8
7F80000007F8
FF80000007F8
FF80000007F8
FF80000007F8
FF80000007F8
FF80000007F8
7F80000007F8
7F80000007F8
7F80000007F8
7F8000000FF8
7F8000000FF8
7FC000000FF0
7FC000000FF0
3FC000001FF0
3FE000001FF0
3FE000001FE0
1FF000003FE0
1FF000007FE0
1FF80000FFC0
0FFC0000FFC0
07FE0003FF80
07FF8007FF00
03FFF87FFF00
01FFFFFFFE00
00FFFFFFFC00
007FFFFFF800
003FFFFFE000
000FFFFFC000
0003FFFE0000
00007FF00000
ENDCHAR
STARTCHAR 00F5
ENCODING 245
SWIDTH 561 0
DWIDTH 53 0
BBX 45 70 3 -2
BITMAP
0003F000FC00
000FFC00FC00
001FFF01F800
003FFFF7F800
003FFFFFF800
007FFFFFF000
007F3FFFF000
007E07FFE000
007C00FFC000
00FC003F0000
000000000000
000000000000
000000000000
000000000000
000000000000
000000000000
000000000000
00003FF00000
0003FFFF0000
000FFFFFC000
003FFFFFF000
007FFFFFF800
00FFFFFFFC00
01FFFFFFFE00
03FFF87FFF00
07FF800FFF00
07FE0003FF80
0FFC0001FFC0
0FF80000FFC0
1FF000007FE0
1FF000003FE0
3FE000003FE0
3FE000001FF0
3FC000001FF0
7FC000000FF0
7FC000000FF0
7F8000000FF8
7F8000000FF8
7F80000007F8
7F80000007F8
7F80000007F8
FF80000007F8
FF80000007F8
FF80000007F8
FF80000007F8
FF80000007F8
7F80000007F8
7F80000007F8
7F80000007F8
7F8000000FF8
7F8000000FF8
7FC000000FF0
7FC000000FF0
3FC000001FF0
3FE000001FF0
3FE000001FE0
1FF000003FE0
1FF000007FE0
1FF80000FFC0
0FFC0000FFC0
07FE0003FF80
07FF8007FF00
03FFF87FFF00
01FFFFFFFE00
00FFFFFFFC00
007FFFFFF800
003FFFFFE000
000FFFFFC000
0003FFFE0000
00007FF00000
ENDCHAR
STARTCHAR 00F6
ENCODING 246
SWIDTH 561 0
DWIDTH 53 0
BBX 45 70 3 -2
BITMAP
003FF03FE000
003FF03FE000
003FF03FE000
003FF03FE000
003FF03FE000
003FF03FE000
003FF03FE000
003FF03FE000
003FF03FE000
003FF03FE000
000000000000
000000000000
000000000000
000000000000
000000000000
000000000000
000000000000
00003FF00000
0003FFFF0000
000FFFFFC000
003FFFFFF000
007FFFFFF800
00FFFFFFFC00
01FFFFFFFE00
03FFF87FFF00
07FF800FFF00
07FE0003FF80
0FFC0001FFC0
0FF80000FFC0
1FF000007FE0
1FF000003FE0
3FE000003FE0
3FE000001FF0
3FC000001FF0
7FC000000FF0
7FC000000FF0
7F8000000FF8
7F8000000FF8
7F80000007F8
7F80000007F8
7F80000007F8
FF80000007F8
FF80000007F8
FF80000007F8
FF80000007F8
FF80000007F8
7F80000007F8
7F80000007F8
7F80000007F8
7F8000000FF8
7F8000000FF8
7FC000000FF0
7FC000000FF0
3FC000001FF0
3FE000001FF0
3FE000001FE0
1FF000003FE0
1FF000007FE0
1FF80000FFC0
0FFC0000FFC0
07FE0003FF80
07FF8007FF00
03FFF87FFF00
01FFFFFFFE00
00FFFFFFFC00
007FFFFFF800
003FFFFFE000
000FFFFFC000
0003FFFE0000
00007FF00000
ENDCHAR
STARTCHAR 00F7
ENCODING 247
SWIDTH 582 0
DWIDTH 55 0
BBX 45 45 5 0
BITMAP
00003FE00000
00003FE00000
00003FE00000
00003FE00000
00003FE00000
00003FE00000
00003FE00000
00003FE00000
00003FE00000
00003FE00000
000000000000
000000000000
000000000000
000000000000
000000000000
000000000000
000000000000
000000000000
000000000000
FFFFFFFFFFF8
FFFFFFFFFFF8
FFFFFFFFFFF8
FFFFFFFFFFF8
FFFFFFFFFFF8
FFFFFFFFFFF8
FFFFFFFFFFF8
000000000000
000000000000
000000000000
000000000000
000000000000
000000000000
000000000000
000000000000
000000000000
00003FE00000
00003FE00000
00003FE00000
00003FE00000
00003FE00000
00003FE00000
00003FE00000
00003FE00000
00003FE00000
00003FE00000
ENDCHAR
STARTCHAR 00F8
ENCODING 248
SWIDTH 614 0
DWIDTH 58 0
BBX 48 54 2 -3
BITMAP
00001FF80008
0001FFFF800E
0007FFFFE01F
001FFFFFF03E
003FFFFFFC7C
007FFFFFFEF8
00FFFFFFFFF8
01FFFC3FFFF0
03FFC007FFE0
03FF0001FFC0
07FE00007FE0
0FFC00003FE0
0FF800003FF0
0FF800007FF0
1FF00000FFF0
1FF00001FFF8
1FE00003FFF8
3FE00007E7F8
3FE00007C7FC
3FC0000F87FC
3FC0001F07FC
3FC0003E03FC
3FC0007C03FC
3FC000F803FC
7FC001F803FC
7FC003F003FC
7FC007E003FC
7FC007C003FC
7FC00F8003FC
7FC01F0003FC
3FC03E0003FC
3FC07C0003FC
3FC0F80007FC
3FC1F80007FC
3FE3F00007F8
3FE7E00007F8
1FE7C0000FF8
1FFF80000FF8
1FFF00001FF0
0FFE00001FF0
0FFC00003FF0
0FFC00007FE0
07FE00007FE0
03FF0001FFC0
03FFC003FF80
07FFFC3FFF80
0FFFFFFFFF00
1F7FFFFFFE00
3E3FFFFFFC00
7C1FFFFFF000
FC07FFFFE000
F801FFFF0000
70001FF80000
200000000000
ENDCHAR
STARTCHAR 00F9
ENCODING 249
SWIDTH 561 0
DWIDTH 53 0
BBX 40 72 6 -2
BITMAP
01FF800000
00FFC00000
007FE00000
003FE00000
001FF00000
000FF80000
0007F80000
0003FC0000
0001FC0000
0000FE0000
00007F0000
00003F0000
00001F8000
00000FC000
0000000000
0000000000
0000000000
0000000000
0000000000
0000000000
0000000000
FF000000FF
FF000000FF
FF000000FF
FF000000FF
FF000000FF
FF000000FF
FF000000FF
FF000000FF
FF000000FF
FF000000FF
FF000000FF
FF000000FF
FF000000FF
FF000000FF
FF000000FF
FF000000FF
FF000000FF
FF000000FF
FF000000FF
FF000000FF
FF000000FF
FF000000FF
FF000000FF
FF000000FF
FF000000FF
FF000000FF
FF000000FF
FF000000FF
FF000000FF
FF000000FF
FF000000FF
FF000001FF
FF000001FF
FF000001FF
FF000001FF
FF000003FF
FF000003FF
FF000007FF
FF800007FF
FF80000FFF
FFC0001FFF
7FE0003FFF
7FF0007FFF
7FFC03FEFF
3FFFFFFEFF
1FFFFFFCFF
1FFFFFF8FF
07FFFFE0FF
03FFFFC0FF
00FFFF0000
001FF80000
ENDCHAR
STARTCHAR 00FA
ENCODING 250
SWIDTH 561 0
DWIDTH 53 0
BBX 40 72 6 -2
BITMAP
000003FF00
000007FE00
00000FFC00
00000FF800
00001FF000
00003FE000
00003FC000
00007F8000
0000FF0000
0000FE0000
0001FC0000
0003F80000
0003F00000
0007E00000
0000000000
0000000000
0000000000
0000000000
0000000000
0000000000
0000000000
FF000000FF
FF000000FF
FF000000FF
FF000000FF
FF000000FF
FF000000FF
FF000000FF
FF000000FF
FF000000FF
FF000000FF
FF000000FF
FF000000FF
FF000000FF
FF000000FF
FF000000FF
FF000000FF
FF000000FF
FF000000FF
FF000000FF
FF000000FF
FF000000FF
FF000000FF
FF000000FF
FF000000FF
FF000000FF
FF000000FF
FF000000FF
FF000000FF
FF000000FF
FF000000FF
FF000000FF
FF000001FF
FF000001FF
FF000001FF
FF000001FF
FF000003FF
FF000003FF
FF000007FF
FF800007FF
FF80000FFF
FFC0001FFF
7FE0003FFF
7FF0007FFF
7FFC03FEFF
3FFFFFFEFF
1FFFFFFCFF
1FFFFFF8FF
07FFFFE0FF
03FFFFC0FF
00FFFF0000
001FF80000
ENDCHAR
STARTCHAR 00FB
ENCODING 251
SWIDTH 561 0
DWIDTH 53 0
BBX 40 72 6 -2
BITMAP
0001FF8000
0003FF8000
0003FFC000
0007FFE000
0007FFE000
000FFFF000
001FE7F800
001FC3F800
003F81FC00
007F00FE00
007E00FE00
00FE007F00
01FC003F00
01F8001F80
0000000000
0000000000
0000000000
0000000000
0000000000
0000000000
0000000000
FF000000FF
FF000000FF
FF000000FF
FF000000FF
FF000000FF
FF000000FF
FF000000FF
FF000000FF
FF000000FF
FF000000FF
FF000000FF
FF000000FF
FF000000FF
FF000000FF
FF000000FF
FF000000FF
FF000000FF
FF000000FF
FF000000FF
FF000000FF
FF000000FF
FF000000FF
FF000000FF
FF000000FF
FF000000FF
FF000000FF
FF000000FF
FF000000FF
FF000000FF
FF000000FF
FF000000FF
FF000001FF
FF000001FF
FF000001FF
FF000001FF
FF000003FF
FF000003FF
FF000007FF
FF800007FF
FF80000FFF
FFC0001FFF
7FE0003FFF
7FF0007FFF
7FFC03FEFF
3FFFFFFEFF
1FFFFFFCFF
1FFFFFF8FF
07FFFFE0FF
03FFFFC0FF
00FFFF0000
001FF80000
ENDCHAR
STARTCHAR 00FC
ENCODING 252
SWIDTH 561 0
DWIDTH 53 0
BBX 40 70 6 -2
BITMAP
01FF81FF00
01FF81FF00
01FF81FF00
01FF81FF00
01FF81FF00
01FF81FF00
01FF81FF00
01FF81FF00
01FF81FF00
01FF81FF00
0000000000
0000000000
0000000000
0000000000
0000000000
0000000000
0000000000
0000000000
0000000000
FF000000FF
FF000000FF
FF000000FF
FF000000FF
FF000000FF
FF000000FF
FF000000FF
FF000000FF
FF000000FF
FF000000FF
FF000000FF
FF000000FF
FF000000FF
FF000000FF
FF000000FF
FF000000FF
FF000000FF
FF000000FF
FF000000FF
FF000000FF
FF000000FF
FF000000FF
FF000000FF
FF000000FF
FF000000FF
FF000000FF
FF000000FF
FF000000FF
FF000000FF
FF000000FF
FF000000FF
FF000001FF
FF000001FF
FF000001FF
FF000001FF
FF000003FF
FF000003FF
FF000007FF
FF800007FF
FF80000FFF
FFC0001FFF
7FE0003FFF
7FF0007FFF
7FFC03FEFF
3FFFFFFEFF
1FFFFFFCFF
1FFFFFF8FF
07FFFFE0FF
03FFFFC0FF
00FFFF0000
001FF80000
ENDCHAR
STARTCHAR 00FD
ENCODING 253
SWIDTH 497 0
DWIDTH 47 0
BBX 43 91 2 -21
BITMAP
000001FFC000
000001FF8000
000003FF0000
000007FE0000
000007FC0000
00000FF80000
00001FF00000
00001FE00000
00003FC00000
00003F800000
00007F000000
0000FE000000
0000FC000000
0001F8000000
000000000000
000000000000
000000000000
000000000000
000000000000
000000000000
000000000000
FF0000003FE0
FF8000003FE0
7F8000003FC0
7F8000007FC0
7FC000007F80
3FC000007F80
3FC00000FF80
3FE00000FF00
1FE00000FF00
1FE00001FF00
1FF00001FE00
0FF00001FE00
0FF00003FE00
0FF80003FC00
07F80007FC00
07F80007F800
07FC0007F800
03FC000FF800
03FC000FF000
03FE000FF000
01FE001FF000
01FE001FE000
01FF001FE000
00FF003FC000
00FF003FC000
00FF803FC000
007F807F8000
007F807F8000
003FC0FF8000
003FC0FF0000
003FC0FF0000
001FE1FE0000
001FE1FE0000
001FE1FE0000
000FF3FC0000
000FF3FC0000
000FF3FC0000
0007FFF80000
0007FFF80000
0007FFF80000
0003FFF00000
0003FFF00000
0003FFE00000
0001FFE00000
0001FFE00000
0001FFC00000
0000FFC00000
0000FFC00000
0000FF800000
00007F800000
0000FF000000
0000FF000000
0001FF000000
0001FE000000
0001FE000000
0003FE000000
0003FC000000
0007FC000000
0007FC000000
000FF8000000
000FF8000000
003FF0000000
1FFFF0000000
1FFFE0000000
1FFFE0000000
1FFFC0000000
1FFF80000000
1FFF00000000
1FFC00000000
03E000000000
ENDCHAR
STARTCHAR 00FE
ENCODING 254
SWIDTH 561 0
DWIDTH 53 0
BBX 44 88 5 -20
BITMAP
FF0000000000
FF0000000000
FF0000000000
FF0000000000
FF0000000000
FF0000000000
FF0000000000
FF0000000000
FF0000000000
FF0000000000
FF0000000000
FF0000000000
FF0000000000
FF0000000000
FF0000000000
FF0000000000
FF0000000000
FF001FF00000
FF00FFFE0000
FF03FFFF8000
FF0FFFFFE000
FF1FFFFFF000
FF3FFFFFF800
FF7FFFFFFC00
FFFFF9FFFE00
FFFF001FFE00
FFFE0007FF00
FFFC0003FF80
FFF80001FF80
FFF00000FFC0
FFE000007FC0
FFE000007FC0
FFC000003FE0
FFC000003FE0
FF8000001FE0
FF8000001FF0
FF8000001FF0
FF8000001FF0
FF0000000FF0
FF0000000FF0
FF0000000FF0
FF0000000FF0
FF0000000FF0
FF0000000FF0
FF0000000FF0
FF0000000FF0
FF0000000FF0
FF0000000FF0
FF0000000FF0
FF8000000FF0
FF8000001FF0
FF8000001FF0
FF8000001FE0
FFC000003FE0
FFC000003FE0
FFE000007FE0
FFE000007FC0
FFF00000FFC0
FFF80001FF80
FFFC0003FF80
FFFE0007FF00
FFFF801FFF00
FFFFF9FFFE00
FF7FFFFFFC00
FF3FFFFFF800
FF1FFFFFF000
FF0FFFFFE000
FF07FFFF8000
FF01FFFE0000
FF003FF00000
FF0000000000
FF0000000000
FF0000000000
FF0000000000
FF0000000000
FF0000000000
FF0000000000
FF0000000000
FF0000000000
FF0000000000
FF0000000000
FF0000000000
FF0000000000
FF0000000000
FF0000000000
FF0000000000
FF0000000000
FF0000000000
ENDCHAR
STARTCHAR 00FF
ENCODING 255
SWIDTH 497 0
DWIDTH 47 0
BBX 43 89 2 -21
BITMAP
007FC0FFC000
007FC0FFC000
007FC0FFC000
007FC0FFC000
007FC0FFC000
007FC0FFC000
007FC0FFC000
007FC0FFC000
007FC0FFC000
007FC0FFC000
000000000000
000000000000
000000000000
000000000000
000000000000
000000000000
000000000000
000000000000
000000000000
FF0000003FE0
FF8000003FE0
7F8000003FC0
7F8000007FC0
7FC000007F80
3FC000007F80
3FC00000FF80
3FE00000FF00
1FE00000FF00
1FE00001FF00
1FF00001FE00
0FF00001FE00
0FF00003FE00
0FF80003FC00
07F80007FC00
07F80007F800
07FC0007F800
03FC000FF800
03FC000FF000
03FE000FF000
01FE001FF000
01FE001FE000
01FF001FE000
00FF003FC000
00FF003FC000
00FF803FC000
007F807F8000
007F807F8000
003FC0FF8000
003FC0FF0000
003FC0FF0000
001FE1FE0000
001FE1FE0000
001FE1FE0000
000FF3FC0000
000FF3FC0000
000FF3FC0000
0007FFF80000
0007FFF80000
0007FFF80000
0003FFF00000
0003FFF00000
0003FFE00000
0001FFE00000
0001FFE00000
0001FFC00000
0000FFC00000
0000FFC00000
0000FF800000
00007F800000
0000FF000000
0000FF000000
0001FF000000
0001FE000000
0001FE000000
0003FE000000
0003FC000000
0007FC000000
0007FC000000
000FF8000000
000FF8000000
003FF0000000
1FFFF0000000
1FFFE0000000
1FFFE0000000
1FFFC0000000
1FFF80000000
1FFF00000000
1FFC00000000
03E000000000
ENDCHAR
STARTCHAR 0100
ENCODING 256
SWIDTH 667 0
DWIDTH 63 0
BBX 59 85 2 0
BITMAP
00007FFFFFE00000
00007FFFFFE00000
00007FFFFFE00000
00007FFFFFE00000
00007FFFFFE00000
00007FFFFFE00000
00007FFFFFE00000
0000000000000000
0000000000000000
0000000000000000
0000000000000000
0000000000000000
0000000000000000
0000000000000000
0000000000000000
0000000000000000
000000FFF0000000
000000FFF0000000
000001FFF0000000
000001FFF8000000
000001FFF8000000
000003FFF8000000
000003FFFC000000
000007FFFC000000
000007FFFC000000
000007FFFE000000
00000FFBFE000000
00000FFBFF000000
00000FF9FF000000
00001FF1FF000000
00001FF1FF800000
00001FF0FF800000
00003FE0FF800000
00003FE0FFC00000
00003FC07FC00000
00007FC07FC00000
00007FC07FE00000
00007F803FE00000
0000FF803FE00000
0000FF803FF00000
0001FF001FF00000
0001FF001FF00000
0001FF001FF80000
0003FE000FF80000
0003FE000FF80000
0003FE000FFC0000
0007FC0007FC0000
0007FC0007FE0000
0007F80007FE0000
000FF80003FE0000
000FF80003FF0000
000FF00003FF0000
001FF00001FF0000
001FF00001FF8000
003FE00001FF8000
003FE00000FF8000
003FE00000FFC000
007FFFFFFFFFC000
007FFFFFFFFFC000
007FFFFFFFFFE000
00FFFFFFFFFFE000
00FFFFFFFFFFE000
00FFFFFFFFFFF000
01FFFFFFFFFFF000
01FF0000001FF000
01FF0000001FF800
03FE0000001FF800
03FE0000000FFC00
07FE0000000FFC00
07FC00000007FC00
07FC00000007FE00
0FFC00000007FE00
0FF800000003FE00
0FF800000003FF00
1FF800000003FF00
1FF000000001FF00
1FF000000001FF80
3FF000000001FF80
3FE000000000FF80
3FE000000000FFC0
7FE000000000FFC0
7FC0000000007FC0
FFC0000000007FE0
FF80000000007FE0
FF80000000003FE0
ENDCHAR
STARTCHAR 0101
ENCODING 257
SWIDTH 561 0
DWIDTH 53 0
BBX 47 68 4 -2
BITMAP
007FFFFFE000
007FFFFFE000
007FFFFFE000
007FFFFFE000
007FFFFFE000
007FFFFFE000
007FFFFFE000
000000000000
000000000000
000000000000
000000000000
000000000000
000000000000
000000000000
000000000000
0000FFF00000
000FFFFF0000
003FFFFFC000
00FFFFFFF000
01FFFFFFF800
03FFFFFFFC00
07FFFFFFFE00
0FFFC07FFE00
0FFE0007FF00
1FF80003FF00
1FF00001FF00
1FE00000FF00
1FE00000FF80
3FE000007F80
3FC000007F80
3FC000007F80
000000007F80
000000007F80
00000000FF80
00000000FF80
00000001FF80
0000000FFF80
000003FFFF80
0001FFFFFF80
001FFFFFFF80
00FFFFFFFF80
03FFFFFFFF80
07FFFFFC7F80
0FFFFF807F80
1FFFC0007F80
3FFC00007F80
7FF000007F80
7FE000007F80
7FC000007F80
FF8000007F80
FF8000007F80
FF0000007F80
FF0000007F80
FF000000FF80
FF000000FF80
FF800001FF80
FF800003FF80
FF800007FF80
7FC0001FFF80
7FE0003FFF80
3FFC01FFFFC0
3FFFFFFF7FFE
1FFFFFFE7FFE
0FFFFFFC3FFE
07FFFFF03FFE
03FFFFC01FFE
00FFFF000FFE
001FF80003F8
ENDCHAR
STARTCHAR 0102
ENCODING 258
SWIDTH 667 0
DWIDTH 63 0
BBX 59 88 2 0
BITMAP
0000F80003F00000
0000F80003F00000
0000FC0007F00000
0000FE0007E00000
0000FF000FE00000
0000FFC03FE00000
00007FFFFFC00000
00003FFFFF800000
00001FFFFF800000
00000FFFFF000000
000007FFFC000000
000001FFF0000000
0000000400000000
0000000000000000
0000000000000000
0000000000000000
0000000000000000
0000000000000000
0000000000000000
000000FFF0000000
000000FFF0000000
000001FFF0000000
000001FFF8000000
000001FFF8000000
000003FFF8000000
000003FFFC000000
000007FFFC000000
000007FFFC000000
000007FFFE000000
00000FFBFE000000
00000FFBFF000000
00000FF9FF000000
00001FF1FF000000
00001FF1FF800000
00001FF0FF800000
00003FE0FF800000
00003FE0FFC00000
00003FC07FC00000
00007FC07FC00000
00007FC07FE00000
00007F803FE00000
0000FF803FE00000
0000FF803FF00000
0001FF001FF00000
0001FF001FF00000
0001FF001FF80000
0003FE000FF80000
0003FE000FF80000
0003FE000FFC0000
0007FC0007FC0000
0007FC0007FE0000
0007F80007FE0000
000FF80003FE0000
000FF80003FF0000
000FF00003FF0000
001FF00001FF0000
001FF00001FF8000
003FE00001FF8000
003FE00000FF8000
003FE00000FFC000
007FFFFFFFFFC000
007FFFFFFFFFC000
007FFFFFFFFFE000
00FFFFFFFFFFE000
00FFFFFFFFFFE000
00FFFFFFFFFFF000
01FFFFFFFFFFF000
01FF0000001FF000
01FF0000001FF800
03FE0000001FF800
03FE0000000FFC00
07FE0000000FFC00
07FC00000007FC00
07FC00000007FE00
0FFC00000007FE00
0FF800000003FE00
0FF800000003FF00
1FF800000003FF00
1FF000000001FF00
1FF000000001FF80
3FF000000001FF80
3FE000000000FF80
3FE000000000FFC0
7FE000000000FFC0
7FC0000000007FC0
FFC0000000007FE0
FF80000000007FE0
FF80000000003FE0
ENDCHAR
STARTCHAR 0103
ENCODING 259
SWIDTH 561 0
DWIDTH 53 0
BBX 47 71 4 -2
BITMAP
00F80001F000
00FC0003F000
00FC0003F000
00FE0007F000
00FF000FE000
007FC03FE000
007FFFFFC000
003FFFFFC000
001FFFFF8000
000FFFFF0000
0007FFFC0000
0000FFF00000
000000000000
000000000000
000000000000
000000000000
000000000000
000000000000
0000FFF00000
000FFFFF0000
003FFFFFC000
00FFFFFFF000
01FFFFFFF800
03FFFFFFFC00
07FFFFFFFE00
0FFFC07FFE00
0FFE0007FF00
1FF80003FF00
1FF00001FF00
1FE00000FF00
1FE00000FF80
3FE000007F80
3FC000007F80
3FC000007F80
000000007F80
000000007F80
00000000FF80
00000000FF80
00000001FF80
0000000FFF80
000003FFFF80
0001FFFFFF80
001FFFFFFF80
00FFFFFFFF80
03FFFFFFFF80
07FFFFFC7F80
0FFFFF807F80
1FFFC0007F80
3FFC00007F80
7FF000007F80
7FE000007F80
7FC000007F80
FF8000007F80
FF8000007F80
FF0000007F80
FF0000007F80
FF000000FF80
FF000000FF80
FF800001FF80
FF800003FF80
FF800007FF80
7FC0001FFF80
7FE0003FFF80
3FFC01FFFFC0
3FFFFFFF7FFE
1FFFFFFE7FFE
0FFFFFFC3FFE
07FFFFF03FFE
03FFFFC01FFE
00FFFF000FFE
001FF80003F8
ENDCHAR
STARTCHAR 0104
ENCODING 260
SWIDTH 667 0
DWIDTH 63 0
BBX 63 88 2 -19
BITMAP
000000FFF0000000
000000FFF0000000
000001FFF0000000
000001FFF8000000
000001FFF8000000
000003FFF8000000
000003FFFC000000
000007FFFC000000
000007FFFC000000
000007FFFE000000
00000FFBFE000000
00000FFBFF000000
00000FF9FF000000
00001FF1FF000000
00001FF1FF800000
00001FF0FF800000
00003FE0FF800000
00003FE0FFC00000
00003FC07FC00000
00007FC07FC00000
00007FC07FE00000
00007F803FE00000
0000FF803FE00000
0000FF803FF00000
0001FF001FF00000
0001FF001FF00000
0001FF001FF80000
0003FE000FF80000
0003FE000FF80000
0003FE000FFC0000
0007FC0007FC0000
0007FC0007FE0000
0007F80007FE0000
000FF80003FE0000
000FF80003FF0000
000FF00003FF0000
001FF00001FF0000
001FF00001FF8000
003FE00001FF8000
003FE00000FF8000
003FE00000FFC000
007FFFFFFFFFC000
007FFFFFFFFFC000
007FFFFFFFFFE000
00FFFFFFFFFFE000
00FFFFFFFFFFE000
00FFFFFFFFFFF000
01FFFFFFFFFFF000
01FF0000001FF000
01FF0000001FF800
03FE0000001FF800
03FE0000000FFC00
07FE0000000FFC00
07FC00000007FC00
07FC00000007FE00
0FFC00000007FE00
0FF800000003FE00
0FF800000003FF00
1FF800000003FF00
1FF000000001FF00
1FF000000001FF80
3FF000000001FF80
3FE000000000FF80
3FE000000000FFC0
7FE000000000FFC0
7FC0000000007FC0
FFC0000000007FE0
FF80000000007FE0
FF80000000003FE0
0000000000000FE0
0000000000003F80
0000000000007E00
000000000001FC00
000000000003F800
000000000007F000
000000000007E000
00000000000FE000
00000000000FE000
00000000000FE000
00000000000FE000
00000000000FE000
00000000000FE000
00000000000FF000
000000000007FC02
000000000003FFFE
000000000001FFFE
000000000000FFFE
0000000000001FFC
ENDCHAR
STARTCHAR 0105
ENCODING 261
SWIDTH 561 0
DWIDTH 53 0
BBX 52 70 4 -19
BITMAP
0000FFF0000000
000FFFFF000000
003FFFFFE00000
00FFFFFFF00000
01FFFFFFF80000
03FFFFFFFC0000
07FFFFFFFE0000
0FFFE07FFE0000
0FFE0007FF0000
1FF80003FF0000
1FF00001FF0000
1FF00000FF8000
1FE000007F8000
1FE000007F8000
3FE000007F8000
3FC000007F8000
000000007F8000
000000007F8000
000000007F8000
00000000FF8000
00000001FF8000
0000000FFF8000
000003FFFF8000
0001FFFFFF8000
001FFFFFFF8000
00FFFFFFFF8000
03FFFFFFFF8000
07FFFFFC7F8000
0FFFFF807F8000
1FFFC0007F8000
3FFC00007F8000
3FF000007F8000
7FE000007F8000
7FC000007F8000
7F8000007F8000
FF8000007F8000
FF0000007F8000
FF0000007F8000
FF000000FF8000
FF000000FF8000
FF800001FF8000
FF800003FF8000
7F800007FF8000
7FC0001FFF8000
7FE0003FFF8000
3FFC01FFFFC000
3FFFFFFF7FFE00
1FFFFFFE7FFE00
0FFFFFFC3FFE00
07FFFFF03FFE00
03FFFFE01FFE00
00FFFF000FFE00
001FF80007FC00
0000000003F000
0000000007E000
000000001FC000
000000003F8000
000000003F0000
000000007F0000
000000007F0000
000000007E0000
000000007F0000
000000007F0000
000000007F0000
000000007F8000
000000003FE010
000000003FFFF0
000000000FFFF0
0000000007FFF0
0000000000FFE0
ENDCHAR
STARTCHAR 0106
ENCODING 262
SWIDTH 720 0
DWIDTH 68 0
BBX 59 91 5 -2
BITMAP
000000007FF00000
000000007FE00000
00000000FFC00000
00000001FF800000
00000001FF000000
00000003FE000000
00000007FC000000
00000007F8000000
0000000FF0000000
0000001FE0000000
0000001FC0000000
0000003F80000000
0000007F00000000
0000007E00000000
0000000000000000
0000000000000000
0000000000000000
0000000000000000
0000000000000000
0000007FF8000000
000007FFFFC00000
00003FFFFFF00000
0000FFFFFFFC0000
0003FFFFFFFF0000
0007FFFFFFFF8000
001FFFFFFFFFC000
003FFFFFFFFFE000
007FFF000FFFF000
00FFF80001FFF800
00FFE000007FF800
01FFC000001FFC00
03FF8000000FFC00
03FF00000007FE00
07FE00000003FE00
0FFC00000003FF00
0FF800000001FF00
1FF800000001FF00
1FF000000000FF80
1FF000000000FF80
3FE000000000FF80
3FE000000000FF80
7FC0000000000000
7FC0000000000000
7FC0000000000000
7FC0000000000000
7F80000000000000
FF80000000000000
FF80000000000000
FF80000000000000
FF80000000000000
FF80000000000000
FF00000000000000
FF00000000000000
FF00000000000000
FF00000000000000
FF00000000000000
FF00000000000000
FF00000000000000
FF00000000000000
FF80000000000000
FF80000000000000
FF80000000000000
FF80000000000000
FF80000000000000
FF80000000003FE0
7FC0000000003FE0
7FC0000000007FE0
7FC0000000007FC0
7FE0000000007FC0
3FE0000000007FC0
3FE000000000FFC0
3FF000000000FF80
1FF000000000FF80
1FF800000001FF80
0FFC00000001FF00
0FFC00000003FF00
07FE00000003FF00
07FF00000007FE00
03FF8000000FFE00
01FFC000001FFC00
01FFF000007FF800
00FFFC0001FFF800
007FFF8007FFF000
003FFFFFFFFFE000
001FFFFFFFFFC000
000FFFFFFFFF8000
0003FFFFFFFE0000
0001FFFFFFFC0000
00007FFFFFF00000
00000FFFFF800000
000000FFF8000000
ENDCHAR
STARTCHAR 0107
ENCODING 263
SWIDTH 497 0
DWIDTH 47 0
BBX 42 72 3 -2
BITMAP
0000007FE000
000000FFC000
000000FF8000
000001FF0000
000003FE0000
000003FC0000
000007F80000
00000FF00000
00000FE00000
00001FC00000
00003F800000
00003F000000
00007E000000
0000FC000000
000000000000
000000000000
000000000000
000000000000
000000000000
00007FE00000
0003FFFC0000
000FFFFF8000
003FFFFFC000
007FFFFFF000
00FFFFFFF800
01FFFFFFFC00
03FFF0FFFC00
07FF001FFE00
0FFE0007FE00
0FF80003FF00
1FF80001FF00
1FF00000FF80
3FE00000FF80
3FE000007F80
3FC000007F80
7FC000007F80
7F8000007F80
7F8000000000
7F8000000000
FF8000000000
FF8000000000
FF0000000000
FF0000000000
FF0000000000
FF0000000000
FF0000000000
FF0000000000
FF0000000000
FF0000000000
FF0000000000
FF0000000000
FF8000000000
FF8000000000
7F8000003FC0
7F8000003FC0
7FC000003FC0
7FC000007FC0
3FE000007F80
3FE00000FF80
3FF00000FF80
1FF80001FF00
1FF80003FF00
0FFE0007FE00
07FF000FFE00
07FFF07FFC00
03FFFFFFF800
01FFFFFFF000
00FFFFFFE000
003FFFFFC000
001FFFFF0000
0007FFFC0000
00007FE00000
ENDCHAR
STARTCHAR 0108
ENCODING 264
SWIDTH 720 0
DWIDTH 68 0
BBX 59 91 5 -2
BITMAP
0000003FE0000000
0000007FF0000000
000000FFF0000000
000000FFF8000000
000001FFFC000000
000003FFFC000000
000003F9FE000000
000007F0FE000000
00000FF07F000000
00000FE03F800000
00001FC01F800000
00001F801FC00000
00003F000FE00000
00007E0007E00000
0000000000000000
0000000000000000
0000000000000000
0000000000000000
0000000000000000
0000007FF8000000
000007FFFFC00000
00003FFFFFF00000
0000FFFFFFFC0000
0003FFFFFFFF0000
0007FFFFFFFF8000
001FFFFFFFFFC000
003FFFFFFFFFE000
007FFF000FFFF000
00FFF80001FFF800
00FFE000007FF800
01FFC000001FFC00
03FF8000000FFC00
03FF00000007FE00
07FE00000003FE00
0FFC00000003FF00
0FF800000001FF00
1FF800000001FF00
1FF000000000FF80
1FF000000000FF80
3FE000000000FF80
3FE000000000FF80
7FC0000000000000
7FC0000000000000
7FC0000000000000
7FC0000000000000
7F80000000000000
FF80000000000000
FF80000000000000
FF80000000000000
FF80000000000000
FF80000000000000
FF00000000000000
FF00000000000000
FF00000000000000
FF00000000000000
FF00000000000000
FF00000000000000
FF00000000000000
FF00000000000000
FF80000000000000
FF80000000000000
FF80000000000000
FF80000000000000
FF80000000000000
FF80000000003FE0
7FC0000000003FE0
7FC0000000007FE0
7FC0000000007FC0
7FE0000000007FC0
3FE0000000007FC0
3FE000000000FFC0
3FF000000000FF80
1FF000000000FF80
1FF800000001FF80
0FFC00000001FF00
0FFC00000003FF00
07FE00000003FF00
07FF00000007FE00
03FF8000000FFE00
01FFC000001FFC00
01FFF000007FF800
00FFFC0001FFF800
007FFF8007FFF000
003FFFFFFFFFE000
001FFFFFFFFFC000
000FFFFFFFFF8000
0003FFFFFFFE0000
0001FFFFFFFC0000
00007FFFFFF00000
00000FFFFF800000
000000FFF8000000
ENDCHAR
STARTCHAR 0109
ENCODING 265
SWIDTH 497 0
DWIDTH 47 0
BBX 42 72 3 -2
BITMAP
00007FE00000
00007FF00000
0000FFF00000
0000FFF80000
0001FFFC0000
0003FDFC0000
0003F9FE0000
0007F0FF0000
000FE07F0000
000FE03F8000
001FC01F8000
003F800FC000
003F000FE000
007E0007E000
000000000000
000000000000
000000000000
000000000000
000000000000
00007FE00000
0003FFFC0000
000FFFFF8000
003FFFFFC000
007FFFFFF000
00FFFFFFF800
01FFFFFFFC00
03FFF0FFFC00
07FF001FFE00
0FFE0007FE00
0FF80003FF00
1FF80001FF00
1FF00000FF80
3FE00000FF80
3FE000007F80
3FC000007F80
7FC000007F80
7F8000007F80
7F8000000000
7F8000000000
FF8000000000
FF8000000000
FF0000000000
FF0000000000
FF0000000000
FF0000000000
FF0000000000
FF0000000000
FF0000000000
FF0000000000
FF0000000000
FF0000000000
FF8000000000
FF8000000000
7F8000003FC0
7F8000003FC0
7FC000003FC0
7FC000007FC0
3FE000007F80
3FE00000FF80
3FF00000FF80
1FF80001FF00
1FF80003FF00
0FFE0007FE00
07FF000FFE00
07FFF07FFC00
03FFFFFFF800
01FFFFFFF000
00FFFFFFE000
003FFFFFC000
001FFFFF0000
0007FFFC0000
00007FE00000
ENDCHAR
STARTCHAR 010A
ENCODING 266
SWIDTH 720 0
DWIDTH 68 0
BBX 59 89 5 -2
BITMAP
0000003FF0000000
0000003FF0000000
0000003FF0000000
0000003FF0000000
0000003FF0000000
0000003FF0000000
0000003FF0000000
0000003FF0000000
0000003FF0000000
0000003FF0000000
0000000000000000
0000000000000000
0000000000000000
0000000000000000
0000000000000000
0000000000000000
0000000000000000
0000007FF8000000
000007FFFFC00000
00003FFFFFF00000
0000FFFFFFFC0000
0003FFFFFFFF0000
0007FFFFFFFF8000
001FFFFFFFFFC000
003FFFFFFFFFE000
007FFF000FFFF000
00FFF80001FFF800
00FFE000007FF800
01FFC000001FFC00
03FF8000000FFC00
03FF00000007FE00
07FE00000003FE00
0FFC00000003FF00
0FF800000001FF00
1FF800000001FF00
1FF000000000FF80
1FF000000000FF80
3FE000000000FF80
3FE000000000FF80
7FC0000000000000
7FC0000000000000
7FC0000000000000
7FC0000000000000
7F80000000000000
FF80000000000000
FF80000000000000
FF80000000000000
FF80000000000000
FF80000000000000
FF00000000000000
FF00000000000000
FF00000000000000
FF00000000000000
FF00000000000000
FF00000000000000
FF00000000000000
FF00000000000000
FF80000000000000
FF80000000000000
FF80000000000000
FF80000000000000
FF80000000000000
FF80000000003FE0
7FC0000000003FE0
7FC0000000007FE0
7FC0000000007FC0
7FE0000000007FC0
3FE0000000007FC0
3FE000000000FFC0
3FF000000000FF80
1FF000000000FF80
1FF800000001FF80
0FFC00000001FF00
0FFC00000003FF00
07FE00000003FF00
07FF00000007FE00
03FF8000000FFE00
01FFC000001FFC00
01FFF000007FF800
00FFFC0001FFF800
007FFF8007FFF000
003FFFFFFFFFE000
001FFFFFFFFFC000
000FFFFFFFFF8000
0003FFFFFFFE0000
0001FFFFFFFC0000
00007FFFFFF00000
00000FFFFF800000
000000FFF8000000
ENDCHAR
STARTCHAR 010B
ENCODING 267
SWIDTH 497 0
DWIDTH 47 0
BBX 42 70 3 -2
BITMAP
00007FE00000
00007FE00000
00007FE00000
00007FE00000
00007FE00000
00007FE00000
00007FE00000
00007FE00000
00007FE00000
00007FE00000
000000000000
000000000000
000000000000
000000000000
000000000000
000000000000
000000000000
00007FE00000
0003FFFC0000
000FFFFF8000
003FFFFFC000
007FFFFFF000
00FFFFFFF800
01FFFFFFFC00
03FFF0FFFC00
07FF001FFE00
0FFE0007FE00
0FF80003FF00
1FF80001FF00
1FF00000FF80
3FE00000FF80
3FE000007F80
3FC000007F80
7FC000007F80
7F8000007F80
7F8000000000
7F8000000000
FF8000000000
FF8000000000
FF0000000000
FF0000000000
FF0000000000
FF0000000000
FF0000000000
FF0000000000
FF0000000000
FF0000000000
FF0000000000
FF0000000000
FF8000000000
FF8000000000
7F8000003FC0
7F8000003FC0
7FC000003FC0
7FC000007FC0
3FE000007F80
3FE00000FF80
3FF00000FF80
1FF80001FF00
1FF80003FF00
0FFE0007FE00
07FF000FFE00
07FFF07FFC00
03FFFFFFF800
01FFFFFFF000
00FFFFFFE000
003FFFFFC000
001FFFFF0000
0007FFFC0000
00007FE00000
ENDCHAR
STARTCHAR 010C
ENCODING 268
SWIDTH 720 0
DWIDTH 68 0
BBX 59 91 5 -2
BITMAP
00003F0003F00000
00003F0007F00000
00001F8007E00000
00001FC00FC00000
00000FE01FC00000
000007F03F800000
000007F87F000000
000003F8FF000000
000001FCFE000000
000001FFFE000000
000000FFFC000000
0000007FF8000000
0000007FF8000000
0000003FF0000000
0000000000000000
0000000000000000
0000000000000000
0000000000000000
0000000000000000
0000007FF8000000
000007FFFFC00000
00003FFFFFF00000
0000FFFFFFFC0000
0003FFFFFFFF0000
0007FFFFFFFF8000
001FFFFFFFFFC000
003FFFFFFFFFE000
007FFF000FFFF000
00FFF80001FFF800
00FFE000007FF800
01FFC000001FFC00
03FF8000000FFC00
03FF00000007FE00
07FE00000003FE00
0FFC00000003FF00
0FF800000001FF00
1FF800000001FF00
1FF000000000FF80
1FF000000000FF80
3FE000000000FF80
3FE000000000FF80
7FC0000000000000
7FC0000000000000
7FC0000000000000
7FC0000000000000
7F80000000000000
FF80000000000000
FF80000000000000
FF80000000000000
FF80000000000000
FF80000000000000
FF00000000000000
FF00000000000000
FF00000000000000
FF00000000000000
FF00000000000000
FF00000000000000
FF00000000000000
FF00000000000000
FF80000000000000
FF80000000000000
FF80000000000000
FF80000000000000
FF80000000000000
FF80000000003FE0
7FC0000000003FE0
7FC0000000007FE0
7FC0000000007FC0
7FE0000000007FC0
3FE0000000007FC0
3FE000000000FFC0
3FF000000000FF80
1FF000000000FF80
1FF800000001FF80
0FFC00000001FF00
0FFC00000003FF00
07FE00000003FF00
07FF00000007FE00
03FF8000000FFE00
01FFC000001FFC00
01FFF000007FF800
00FFFC0001FFF800
007FFF8007FFF000
003FFFFFFFFFE000
001FFFFFFFFFC000
000FFFFFFFFF8000
0003FFFFFFFE0000
0001FFFFFFFC0000
00007FFFFFF00000
00000FFFFF800000
000000FFF8000000
ENDCHAR
STARTCHAR 010D
ENCODING 269
SWIDTH 497 0
DWIDTH 47 0
BBX 42 72 3 -2
BITMAP
007E0007E000
007F000FE000
003F800FC000
001FC01F8000
001FC03F8000
000FE07F0000
0007F0FE0000
0007F9FE0000
0003FDFC0000
0001FFFC0000
0001FFF80000
0000FFF00000
00007FF00000
00007FE00000
000000000000
000000000000
000000000000
000000000000
000000000000
00007FE00000
0003FFFC0000
000FFFFF8000
003FFFFFC000
007FFFFFF000
00FFFFFFF800
01FFFFFFFC00
03FFF0FFFC00
07FF001FFE00
0FFE0007FE00
0FF80003FF00
1FF80001FF00
1FF00000FF80
3FE00000FF80
3FE000007F80
3FC000007F80
7FC000007F80
7F8000007F80
7F8000000000
7F8000000000
FF8000000000
FF8000000000
FF0000000000
FF0000000000
FF0000000000
FF0000000000
FF0000000000
FF0000000000
FF0000000000
FF0000000000
FF0000000000
FF0000000000
FF8000000000
FF8000000000
7F8000003FC0
7F8000003FC0
7FC000003FC0
7FC000007FC0
3FE000007F80
3FE00000FF80
3FF00000FF80
1FF80001FF00
1FF80003FF00
0FFE0007FE00
07FF000FFE00
07FFF07FFC00
03FFFFFFF800
01FFFFFFF000
00FFFFFFE000
003FFFFFC000
001FFFFF0000
0007FFFC0000
00007FE00000
ENDCHAR
STARTCHAR 010E
ENCODING 270
SWIDTH 720 0
DWIDTH 68 0
BBX 55 89 8 0
BITMAP
001F8001F80000
001FC003F80000
000FC007F00000
0007E007E00000
0007F00FE00000
0003F81FC00000
0003FC3F800000
0001FE7F800000
0000FEFF000000
0000FFFE000000
00007FFE000000
00003FFC000000
00003FFC000000
00001FF8000000
00000000000000
00000000000000
00000000000000
00000000000000
00000000000000
00000000000000
FFFFFFFF800000
FFFFFFFFF80000
FFFFFFFFFE0000
FFFFFFFFFF8000
FFFFFFFFFFE000
FFFFFFFFFFF000
FFFFFFFFFFF800
FFFFFFFFFFFC00
FF800000FFFE00
FF8000003FFF00
FF8000000FFF80
FF80000003FF80
FF80000001FFC0
FF80000000FFC0
FF800000007FE0
FF800000003FE0
FF800000003FF0
FF800000001FF0
FF800000001FF8
FF800000000FF8
FF800000000FF8
FF800000000FFC
FF8000000007FC
FF8000000007FC
FF8000000007FC
FF8000000007FC
FF8000000003FC
FF8000000003FE
FF8000000003FE
FF8000000003FE
FF8000000003FE
FF8000000003FE
FF8000000003FE
FF8000000003FE
FF8000000003FE
FF8000000003FE
FF8000000003FE
FF8000000003FE
FF8000000003FE
FF8000000003FE
FF8000000003FE
FF8000000003FE
FF8000000003FC
FF8000000007FC
FF8000000007FC
FF8000000007FC
FF8000000007FC
FF8000000007F8
FF800000000FF8
FF800000000FF8
FF800000001FF8
FF800000001FF0
FF800000003FF0
FF800000003FE0
FF800000007FE0
FF80000000FFC0
FF80000001FFC0
FF80000003FF80
FF80000007FF00
FF8000001FFF00
FF800000FFFE00
FFFFFFFFFFFC00
FFFFFFFFFFF800
FFFFFFFFFFF000
FFFFFFFFFFC000
FFFFFFFFFF8000
FFFFFFFFFE0000
FFFFFFFFF00000
FFFFFFFF000000
ENDCHAR
STARTCHAR 010F
ENCODING 271
SWIDTH 645 0
DWIDTH 61 0
BBX 59 71 2 -2
BITMAP
0000000007F83FE0
0000000007F83FE0
0000000007F83FE0
0000000007F83FE0
0000000007F83FE0
0000000007F83FE0
0000000007F83FE0
0000000007F83FE0
0000000007F83FE0
0000000007F801E0
0000000007F801E0
0000000007F801E0
0000000007F801E0
0000000007F801E0
0000000007F803E0
0000000007F803C0
0000000007F807C0
0000000007F81F80
00007FE007F83F00
0003FFFC07F83E00
000FFFFF07F83C00
003FFFFF87F80000
007FFFFFC7F80000
00FFFFFFE7F80000
01FFFFFFF7F80000
03FFFCFFFFF80000
07FFC00FFFF80000
07FF0003FFF80000
0FFE0001FFF80000
0FFC0000FFF80000
1FF800007FF80000
1FF000003FF80000
3FE000003FF80000
3FE000001FF80000
3FE000001FF80000
7FC000000FF80000
7FC000000FF80000
7FC000000FF80000
7F8000000FF80000
7F80000007F80000
7F80000007F80000
7F80000007F80000
7F80000007F80000
FF80000007F80000
FF80000007F80000
FF80000007F80000
7F80000007F80000
7F80000007F80000
7F80000007F80000
7F80000007F80000
7F8000000FF80000
7FC000000FF80000
7FC000000FF80000
7FC000000FF80000
3FE000001FF80000
3FE000001FF80000
3FF000003FF80000
1FF000003FF80000
1FF800007FF80000
0FFC0000FFF80000
0FFE0001FFF80000
07FF0003FFF80000
07FFC00FFFF80000
03FFFCFFFBF80000
01FFFFFFF3F80000
00FFFFFFE3F80000
007FFFFFC3F80000
003FFFFF83F80000
000FFFFF03F80000
0003FFFC00000000
00007FE000000000
ENDCHAR
STARTCHAR 0110
ENCODING 272
SWIDTH 720 0
DWIDTH 68 0
BBX 61 69 2 0
BITMAP
03FFFFFFFE000000
03FFFFFFFFE00000
03FFFFFFFFF80000
03FFFFFFFFFE0000
03FFFFFFFFFF8000
03FFFFFFFFFFC000
03FFFFFFFFFFE000
03FFFFFFFFFFF000
03FE000007FFF800
03FE000000FFFC00
03FE0000003FFE00
03FE0000000FFE00
03FE00000007FF00
03FE00000003FF00
03FE00000001FF80
03FE00000000FF80
03FE00000000FFC0
03FE000000007FC0
03FE000000007FE0
03FE000000003FE0
03FE000000003FE0
03FE000000001FF0
03FE000000001FF0
03FE000000001FF0
03FE000000001FF0
03FE000000000FF0
03FE000000000FF0
03FE000000000FF8
03FE000000000FF8
03FE000000000FF8
03FE000000000FF8
FFFFFFFE00000FF8
FFFFFFFE00000FF8
FFFFFFFE00000FF8
FFFFFFFE00000FF8
FFFFFFFE00000FF8
FFFFFFFE00000FF8
03FE000000000FF8
03FE000000000FF8
03FE000000000FF8
03FE000000000FF8
03FE000000000FF8
03FE000000000FF0
03FE000000001FF0
03FE000000001FF0
03FE000000001FF0
03FE000000001FF0
03FE000000001FE0
03FE000000003FE0
03FE000000003FE0
03FE000000007FE0
03FE000000007FC0
03FE00000000FFC0
03FE00000000FF80
03FE00000001FF80
03FE00000003FF00
03FE00000007FF00
03FE0000000FFE00
03FE0000001FFE00
03FE0000007FFC00
03FE000003FFF800
03FFFFFFFFFFF000
03FFFFFFFFFFE000
03FFFFFFFFFFC000
03FFFFFFFFFF0000
03FFFFFFFFFE0000
03FFFFFFFFF80000
03FFFFFFFFC00000
03FFFFFFFC000000
ENDCHAR
ENDFONT
